<svg preserveAspectRatio="none" width="100%" height="100%" overflow="visible" style="display: block;" viewBox="0 0 60.23 36.2882" fill="none" xmlns="http://www.w3.org/2000/svg">
<g id="Ellipse">
<mask id="path-1-inside-1_0_19" fill="white">
<path d="M60.23 5.77074C58.5084 11.8037 55.4589 17.3751 51.305 22.0768C47.1511 26.7784 41.9979 30.4912 36.2231 32.9431C30.4483 35.3951 24.1981 36.524 17.9304 36.2473C11.6627 35.9706 5.53626 34.2952 -7.93628e-07 31.3438L9.89277 12.7865C12.6609 14.2622 15.7241 15.0999 18.8579 15.2383C21.9918 15.3767 25.1169 14.8122 28.0043 13.5862C30.8917 12.3602 33.4683 10.5038 35.5453 8.15301C37.6222 5.80218 39.147 3.01648 40.0078 1.31929e-06L60.23 5.77074Z"/>
</mask>
<path d="M60.23 5.77074C58.5084 11.8037 55.4589 17.3751 51.305 22.0768C47.1511 26.7784 41.9979 30.4912 36.2231 32.9431C30.4483 35.3951 24.1981 36.524 17.9304 36.2473C11.6627 35.9706 5.53626 34.2952 -7.93628e-07 31.3438L9.89277 12.7865C12.6609 14.2622 15.7241 15.0999 18.8579 15.2383C21.9918 15.3767 25.1169 14.8122 28.0043 13.5862C30.8917 12.3602 33.4683 10.5038 35.5453 8.15301C37.6222 5.80218 39.147 3.01648 40.0078 1.31929e-06L60.23 5.77074Z" fill="var(--fill-0, #68E2F6)" stroke="var(--stroke-0, white)" stroke-width="1.29213" mask="url(#path-1-inside-1_0_19)"/>
</g>
</svg>
