<svg preserveAspectRatio="none" width="100%" height="100%" overflow="visible" style="display: block;" viewBox="0 0 40 88.7735" fill="none" xmlns="http://www.w3.org/2000/svg">
<g id="Group 427319110">
<path id="Vector 78" d="M39.9993 2.88675L34.9993 0V5.7735L39.9993 2.88675ZM0.850447 42.8868V43.3868H16.5093V42.8868V42.3868H0.850447V42.8868ZM24.5093 34.8868H25.0093V10.8868H24.5093H24.0093V34.8868H24.5093ZM32.5093 2.88675V3.38675H35.4993V2.88675V2.38675H32.5093V2.88675ZM24.5093 10.8868H25.0093C25.0093 6.74462 28.3671 3.38675 32.5093 3.38675V2.88675V2.38675C27.8148 2.38675 24.0093 6.19233 24.0093 10.8868H24.5093ZM16.5093 42.8868V43.3868C21.2037 43.3868 25.0093 39.5812 25.0093 34.8868H24.5093H24.0093C24.0093 39.0289 20.6514 42.3868 16.5093 42.3868V42.8868Z" fill="url(#paint0_linear_0_6)" fill-opacity="0.2"/>
<path id="Vector 90" d="M39.9999 85.8868L34.9999 88.7735V83L39.9999 85.8868ZM0 42.8868V42.3868H16.1731V42.8868V43.3868H0V42.8868ZM24.1731 50.8868H24.6731V77.8868H24.1731H23.6731V50.8868H24.1731ZM32.1731 85.8868V85.3868H35.4999V85.8868V86.3868H32.1731V85.8868ZM24.1731 77.8868H24.6731C24.6731 82.0289 28.031 85.3868 32.1731 85.3868V85.8868V86.3868C27.4787 86.3868 23.6731 82.5812 23.6731 77.8868H24.1731ZM16.1731 42.8868V42.3868C20.8676 42.3868 24.6731 46.1923 24.6731 50.8868H24.1731H23.6731C23.6731 46.7446 20.3153 43.3868 16.1731 43.3868V42.8868Z" fill="url(#paint1_linear_0_6)" fill-opacity="0.2"/>
</g>
<defs>
<linearGradient id="paint0_linear_0_6" x1="0.850447" y1="45.6056" x2="45.0674" y2="45.6056" gradientUnits="userSpaceOnUse">
<stop stop-color="#4E4E4E"/>
<stop offset="1" stop-color="white"/>
</linearGradient>
<linearGradient id="paint1_linear_0_6" x1="1.15848e-08" y1="39.9639" x2="45.1782" y2="39.964" gradientUnits="userSpaceOnUse">
<stop stop-color="#4E4E4E"/>
<stop offset="1" stop-color="white"/>
</linearGradient>
</defs>
</svg>
