<svg preserveAspectRatio="none" width="100%" height="100%" overflow="visible" style="display: block;" viewBox="0 0 149.839 167.393" fill="none" xmlns="http://www.w3.org/2000/svg">
<path id="Vector 92" d="M143.439 3.2C143.439 4.96731 144.871 6.4 146.639 6.4C148.406 6.4 149.839 4.96731 149.839 3.2C149.839 1.43269 148.406 0 146.639 0C144.871 0 143.439 1.43269 143.439 3.2ZM19.7031 167.394L19.4628 160.469L13.5865 164.14L19.7031 167.394ZM16.2663 161.711L16.7865 161.412C16.0579 160.145 15.3566 158.881 14.6823 157.622L14.1533 157.905L13.6244 158.188C14.3045 159.459 15.0117 160.733 15.7462 162.01L16.2663 161.711ZM12.1279 153.97L12.6658 153.705C12.021 152.4 11.4049 151.099 10.8174 149.803L10.2709 150.051L9.72443 150.299C10.3176 151.607 10.9394 152.92 11.5901 154.236L12.1279 153.97ZM8.51118 145.978L9.06618 145.75C8.51326 144.404 7.99098 143.063 7.49888 141.728L6.93587 141.935L6.37286 142.143C6.87011 143.492 7.39774 144.847 7.95619 146.206L8.51118 145.978ZM5.48479 137.746L6.05553 137.561C5.60657 136.177 5.19003 134.798 4.8054 133.426L4.22767 133.588L3.64994 133.75C4.03898 135.138 4.46018 136.532 4.91406 137.931L5.48479 137.746ZM3.12323 129.299L3.70737 129.162C3.37434 127.743 3.0755 126.33 2.81026 124.925L2.22067 125.037L1.63109 125.148C1.89962 126.57 2.20209 128 2.53909 129.436L3.12323 129.299ZM1.50137 120.681L2.09546 120.597C1.89091 119.151 1.72207 117.713 1.58825 116.284L0.990867 116.34L0.393478 116.395C0.529062 117.844 0.70011 119.301 0.907281 120.765L1.50137 120.681ZM0.687512 111.952L1.28692 111.926C1.22183 110.465 1.19352 109.013 1.20124 107.572L0.601247 107.568L0.00125539 107.565C-0.00656676 109.027 0.0221389 110.498 0.0881066 111.979L0.687512 111.952ZM0.735734 103.188L1.33479 103.222C1.41691 101.761 1.53627 100.311 1.69207 98.8728L1.09556 98.8082L0.499046 98.7436C0.341022 100.203 0.219966 101.673 0.13668 103.154L0.735734 103.188ZM1.67932 94.4719L2.27167 94.5674C2.50416 93.1251 2.77361 91.6947 3.0792 90.2765L2.49266 90.1501L1.90612 90.0237C1.59613 91.4623 1.3228 92.9134 1.08696 94.3764L1.67932 94.4719ZM3.52765 85.8899L4.1068 86.0467C4.48708 84.6421 4.90324 83.2503 5.35441 81.8717L4.78417 81.6851L4.21394 81.4985C3.75635 82.8967 3.33424 84.3084 2.9485 85.7331L3.52765 85.8899ZM6.2556 77.5517L6.81552 77.7673C7.33764 76.4114 7.89415 75.0693 8.48418 73.7413L7.93586 73.4976L7.38754 73.254C6.78938 74.6004 6.22513 75.9612 5.69568 77.3361L6.2556 77.5517ZM9.81591 69.5344L10.3515 69.8048C11.0056 68.5094 11.6922 67.2285 12.4104 65.9624L11.8885 65.6663L11.3666 65.3703C10.639 66.6531 9.94324 67.9511 9.28032 69.2639L9.81591 69.5344ZM14.144 61.9008L14.6514 62.2211C15.4249 60.9959 16.2286 59.7858 17.0617 58.5911L16.5695 58.2479L16.0774 57.9047C15.2339 59.1143 14.4201 60.3396 13.6367 61.5804L14.144 61.9008ZM19.1651 54.6979L19.6415 55.0626C20.5207 53.9144 21.4278 52.7816 22.3618 51.6646L21.9016 51.2797L21.4413 50.8948C20.4963 52.0248 19.5785 53.171 18.6887 54.3331L19.1651 54.6979ZM24.7895 47.9696L25.2334 48.3734C26.2082 47.3018 27.2086 46.246 28.2338 45.2064L27.8066 44.7851L27.3794 44.3638C26.343 45.4147 25.3315 46.4822 24.3457 47.5659L24.7895 47.9696ZM30.9473 41.7227L31.3578 42.1603C32.4167 41.1671 33.4989 40.19 34.6038 39.2294L34.2102 38.7766L33.8165 38.3238C32.7004 39.2942 31.6069 40.2814 30.5368 41.2851L30.9473 41.7227ZM37.5674 35.9641L37.9444 36.4309C39.0757 35.5174 40.2284 34.6203 41.4015 33.7398L41.0414 33.2599L40.6812 32.78C39.4969 33.6689 38.333 34.5747 37.1905 35.4972L37.5674 35.9641ZM44.5855 30.6938L44.9291 31.1857C46.1201 30.3538 47.3303 29.5384 48.5589 28.7397L48.2318 28.2367L47.9048 27.7336C46.6652 28.5395 45.444 29.3623 44.242 30.2019L44.5855 30.6938ZM51.9443 25.9078L52.255 26.4211C53.4969 25.6695 54.756 24.9344 56.0316 24.2161L55.7372 23.6933L55.4428 23.1705C54.1564 23.8949 52.8864 24.6363 51.6337 25.3945L51.9443 25.9078ZM59.5934 21.5991L59.8717 22.1306C61.157 21.4577 62.4576 20.8013 63.773 20.1618L63.5107 19.6222L63.2483 19.0826C61.9223 19.7273 60.611 20.389 59.3151 21.0675L59.5934 21.5991ZM67.4886 17.7594L67.7352 18.3064C69.0573 17.7105 70.3932 17.1312 71.7421 16.5688L71.5112 16.015L71.2803 15.4612C69.921 16.028 68.5747 16.6118 67.2421 17.2124L67.4886 17.7594ZM75.5915 14.3804L75.8068 14.9404C77.1602 14.4199 78.5257 13.9161 79.9028 13.4292L79.7028 12.8635L79.5027 12.2978C78.1155 12.7883 76.7397 13.2959 75.3761 13.8203L75.5915 14.3804ZM83.868 11.4537L84.0527 12.0245C85.4323 11.5781 86.8225 11.1483 88.223 10.7356L88.0533 10.16L87.8837 9.58453C86.4732 10.0003 85.0729 10.4331 83.6832 10.8828L83.868 11.4537ZM92.2879 8.9718L92.4425 9.55154C93.8438 9.1779 95.2545 8.82104 96.674 8.48119L96.5343 7.89768L96.3946 7.31417C94.9651 7.65639 93.5445 8.01577 92.1333 8.39205L92.2879 8.9718ZM100.824 6.92814L100.949 7.515C102.368 7.21315 103.795 6.92814 105.23 6.66021L105.12 6.07041L105.01 5.4806C103.565 5.75036 102.128 6.03733 100.699 6.34127L100.824 6.92814ZM109.452 5.31702L109.548 5.90938C110.98 5.67848 112.42 5.46451 113.866 5.26769L113.786 4.67317L113.705 4.07865C112.249 4.27679 110.799 4.4922 109.357 4.72466L109.452 5.31702ZM118.149 4.13371L118.215 4.73003C119.658 4.56943 121.107 4.42585 122.561 4.29951L122.51 3.70176L122.458 3.10401C120.994 3.23119 119.535 3.37573 118.082 3.53739L118.149 4.13371ZM126.892 3.3743L126.929 3.97313C128.379 3.88232 129.834 3.80862 131.294 3.75225L131.27 3.15269L131.247 2.55314C129.778 2.60989 128.314 2.68407 126.854 2.77548L126.892 3.3743ZM135.661 3.03557L135.67 3.6355C137.124 3.61408 138.581 3.60986 140.042 3.62304L140.048 3.02307L140.053 2.42309C138.583 2.40982 137.116 2.41407 135.653 2.43563L135.661 3.03557ZM144.437 3.11477L144.417 3.71445C145.148 3.73839 145.88 3.7667 146.612 3.7994L146.639 3.2L146.666 2.6006C145.928 2.56768 145.192 2.53919 144.457 2.5151L144.437 3.11477Z" fill="var(--stroke-0, #4E4E4E)"/>
</svg>
