<svg preserveAspectRatio="none" width="100%" height="100%" overflow="visible" style="display: block;" viewBox="0 0 18 18" fill="none" xmlns="http://www.w3.org/2000/svg">
<g id="Vector">
<path d="M3 9C3 7.4087 3.63214 5.88258 4.75736 4.75736C5.88258 3.63214 7.4087 3 9 3C10.5913 3 12.1174 3.63214 13.2426 4.75736C14.3679 5.88258 15 7.4087 15 9C15 10.5913 14.3679 12.1174 13.2426 13.2426C12.1174 14.3679 10.5913 15 9 15C7.4087 15 5.88258 14.3679 4.75736 13.2426C3.63214 12.1174 3 10.5913 3 9Z" fill="var(--fill-0, #B4B4B4)"/>
<path d="M9 1.5C10.9891 1.5 12.8972 2.28977 14.3037 3.69629C15.7102 5.10281 16.5 7.01088 16.5 9C16.5 10.9891 15.7102 12.8972 14.3037 14.3037C12.8972 15.7102 10.9891 16.5 9 16.5C7.01088 16.5 5.10281 15.7102 3.69629 14.3037C2.28977 12.8972 1.5 10.9891 1.5 9C1.5 7.01088 2.28977 5.10281 3.69629 3.69629C5.10281 2.28977 7.01088 1.5 9 1.5Z" stroke="var(--stroke-0, white)" stroke-opacity="0.17" stroke-width="3"/>
</g>
</svg>
