<svg preserveAspectRatio="none" width="100%" height="100%" overflow="visible" style="display: block;" viewBox="0 0 18 18" fill="none" xmlns="http://www.w3.org/2000/svg">
<g id="Frame">
<path id="Vector" d="M6.50044 8.63355C5.96248 8.63355 5.53658 8.2074 5.53658 7.66912C5.53658 7.13088 5.96248 6.70476 6.50044 6.70476C7.03841 6.70476 7.46429 7.13088 7.46429 7.66912C7.46429 8.2074 7.03841 8.63355 6.50044 8.63355ZM11.5004 8.63355C10.9625 8.63355 10.5366 8.2074 10.5366 7.66912C10.5366 7.13088 10.9625 6.70476 11.5004 6.70476C12.0384 6.70476 12.4643 7.13088 12.4643 7.66912C12.4643 8.2074 12.0384 8.63355 11.5004 8.63355ZM5.11717 14.4115L5.65381 14.0842C6.26109 13.7138 6.98023 13.5712 7.68285 13.6819C7.84148 13.7069 7.9719 13.7261 8.07255 13.7394C8.3772 13.7796 8.6871 13.8 9.00045 13.8C12.316 13.8 14.9255 11.5332 14.9255 8.85C14.9255 6.16676 12.316 3.89996 9.00045 3.89996C5.6849 3.89996 3.07544 6.16676 3.07544 8.85C3.07544 9.87412 3.45018 10.8546 4.1492 11.6857C4.18542 11.7287 4.23958 11.7883 4.31 11.8616C4.90649 12.4828 5.20726 13.3304 5.13574 14.1886L5.11717 14.4115ZM4.64465 16.4567C4.50742 16.5425 4.34613 16.5815 4.18486 16.5681C3.77208 16.5337 3.46534 16.1712 3.49973 15.7584L3.64092 14.0641C3.67668 13.6349 3.5263 13.2112 3.22805 12.9006C3.13643 12.8051 3.06083 12.722 3.00127 12.6512C2.10466 11.5852 1.57544 10.2713 1.57544 8.85C1.57544 5.28772 4.89973 2.39996 9.00045 2.39996C13.1012 2.39996 16.4255 5.28772 16.4255 8.85C16.4255 12.4122 13.1012 15.3 9.00045 15.3C8.61833 15.3 8.24295 15.2749 7.87635 15.2265C7.76183 15.2114 7.61948 15.1905 7.44942 15.1637C7.09809 15.1083 6.73853 15.1796 6.43489 15.3648L4.64465 16.4567Z" fill="var(--fill-0, white)"/>
</g>
</svg>
