<svg preserveAspectRatio="none" width="100%" height="100%" overflow="visible" style="display: block;" viewBox="0 0 393.2 237.164" fill="none" xmlns="http://www.w3.org/2000/svg">
<path id="Vector 103" d="M0 233.964C0 235.731 1.43269 237.164 3.2 237.164C4.96731 237.164 6.4 235.731 6.4 233.964C6.4 232.197 4.96731 230.764 3.2 230.764C1.43269 230.764 0 232.197 0 233.964ZM393.2 3.4641L387.2 0V6.9282L393.2 3.4641ZM3.2 233.964H3.8V231.942H3.2H2.6V233.964H3.2ZM3.2 227.897H3.8V223.852H3.2H2.6V227.897H3.2ZM3.2 219.808H3.8V215.763H3.2H2.6V219.808H3.2ZM3.2 211.719H3.8V207.674H3.2H2.6V211.719H3.2ZM3.2 203.629H3.8V199.585H3.2H2.6V203.629H3.2ZM3.2 195.54H3.8V191.495H3.2H2.6V195.54H3.2ZM3.2 187.451H3.8V183.406H3.2H2.6V187.451H3.2ZM3.2 179.361H3.8V175.317H3.2H2.6V179.361H3.2ZM3.2 171.272H3.8V167.227H3.2H2.6V171.272H3.2ZM3.2 163.183H3.8V159.138H3.2H2.6V163.183H3.2ZM3.2 155.094H3.8V151.049H3.2H2.6V155.094H3.2ZM3.2 147.004H3.8V142.96H3.2H2.6V147.004H3.2ZM3.2 138.915H3.8V134.87H3.2H2.6V138.915H3.2ZM3.2 130.826H3.8V126.781H3.2H2.6V130.826H3.2ZM3.2 122.736H3.8V118.692H3.2H2.6V122.736H3.2ZM3.2 114.647H3.8V110.603H3.2H2.6V114.647H3.2ZM3.2 106.558H3.8V102.513H3.2H2.6V106.558H3.2ZM3.2 98.4686H3.8V94.424H3.2H2.6V98.4686H3.2ZM3.2 90.3793H3.8V86.3347H3.2H2.6V90.3793H3.2ZM3.2 82.29H3.8V78.2454H3.2H2.6V82.29H3.2ZM3.2 74.2007H3.8V70.1561H3.2H2.6V74.2007H3.2ZM3.2 66.1114H3.8V62.0668H3.2H2.6V66.1114H3.2ZM3.2 58.0221H3.8V53.9775H3.2H2.6V58.0221H3.2ZM3.2 49.9328H3.8V45.8882H3.2H2.6V49.9328H3.2ZM3.2 41.8435H3.8V37.7989H3.2H2.6V41.8435H3.2ZM3.2 33.7543H3.8V29.7096H3.2H2.6V33.7543H3.2ZM3.2 25.665H3.8V21.6203H3.2H2.6V25.665H3.2ZM3.2 17.5757H3.8V13.531H3.2H2.6V17.5757H3.2ZM3.2 9.48636H3.8V7.46411H3.2H2.6V9.48636H3.2ZM3.2 7.46411H3.8C3.8 7.00199 3.89186 6.56284 4.05776 6.16279L3.50352 5.93295L2.94929 5.70312C2.72403 6.24633 2.6 6.84149 2.6 7.46411H3.2ZM5.66885 3.76762L5.89868 4.32186C6.29873 4.15596 6.73788 4.0641 7.2 4.0641V3.4641V2.8641C6.57738 2.8641 5.98222 2.98813 5.43902 3.21339L5.66885 3.76762ZM7.2 3.4641V4.0641H9.21042V3.4641V2.8641H7.2V3.4641ZM13.2313 3.4641V4.0641H17.2521V3.4641V2.8641H13.2313V3.4641ZM21.2729 3.4641V4.0641H25.2938V3.4641V2.8641H21.2729V3.4641ZM29.3146 3.4641V4.0641H33.3354V3.4641V2.8641H29.3146V3.4641ZM37.3563 3.4641V4.0641H41.3771V3.4641V2.8641H37.3563V3.4641ZM45.3979 3.4641V4.0641H49.4188V3.4641V2.8641H45.3979V3.4641ZM53.4396 3.4641V4.0641H57.4604V3.4641V2.8641H53.4396V3.4641ZM61.4812 3.4641V4.0641H65.5021V3.4641V2.8641H61.4812V3.4641ZM69.5229 3.4641V4.0641H73.5437V3.4641V2.8641H69.5229V3.4641ZM77.5646 3.4641V4.0641H81.5854V3.4641V2.8641H77.5646V3.4641ZM85.6063 3.4641V4.0641H89.6271V3.4641V2.8641H85.6063V3.4641ZM93.6479 3.4641V4.0641H97.6688V3.4641V2.8641H93.6479V3.4641ZM101.69 3.4641V4.0641H105.71V3.4641V2.8641H101.69V3.4641ZM109.731 3.4641V4.0641H113.752V3.4641V2.8641H109.731V3.4641ZM117.773 3.4641V4.0641H121.794V3.4641V2.8641H117.773V3.4641ZM125.815 3.4641V4.0641H129.835V3.4641V2.8641H125.815V3.4641ZM133.856 3.4641V4.0641H137.877V3.4641V2.8641H133.856V3.4641ZM141.898 3.4641V4.0641H145.919V3.4641V2.8641H141.898V3.4641ZM149.94 3.4641V4.0641H153.96V3.4641V2.8641H149.94V3.4641ZM157.981 3.4641V4.0641H162.002V3.4641V2.8641H157.981V3.4641ZM166.023 3.4641V4.0641H170.044V3.4641V2.8641H166.023V3.4641ZM174.065 3.4641V4.0641H178.085V3.4641V2.8641H174.065V3.4641ZM182.106 3.4641V4.0641H186.127V3.4641V2.8641H182.106V3.4641ZM190.148 3.4641V4.0641H194.169V3.4641V2.8641H190.148V3.4641ZM198.19 3.4641V4.0641H202.21V3.4641V2.8641H198.19V3.4641ZM206.231 3.4641V4.0641H210.252V3.4641V2.8641H206.231V3.4641ZM214.273 3.4641V4.0641H218.294V3.4641V2.8641H214.273V3.4641ZM222.315 3.4641V4.0641H226.335V3.4641V2.8641H222.315V3.4641ZM230.356 3.4641V4.0641H234.377V3.4641V2.8641H230.356V3.4641ZM238.398 3.4641V4.0641H242.419V3.4641V2.8641H238.398V3.4641ZM246.439 3.4641V4.0641H250.46V3.4641V2.8641H246.439V3.4641ZM254.481 3.4641V4.0641H258.502V3.4641V2.8641H254.481V3.4641ZM262.523 3.4641V4.0641H266.544V3.4641V2.8641H262.523V3.4641ZM270.564 3.4641V4.0641H274.585V3.4641V2.8641H270.564V3.4641ZM278.606 3.4641V4.0641H282.627V3.4641V2.8641H278.606V3.4641ZM286.648 3.4641V4.0641H290.669V3.4641V2.8641H286.648V3.4641ZM294.69 3.4641V4.0641H298.71V3.4641V2.8641H294.69V3.4641ZM302.731 3.4641V4.0641H306.752V3.4641V2.8641H302.731V3.4641ZM310.773 3.4641V4.0641H314.794V3.4641V2.8641H310.773V3.4641ZM318.815 3.4641V4.0641H322.835V3.4641V2.8641H318.815V3.4641ZM326.856 3.4641V4.0641H330.877V3.4641V2.8641H326.856V3.4641ZM334.898 3.4641V4.0641H338.919V3.4641V2.8641H334.898V3.4641ZM342.94 3.4641V4.0641H346.96V3.4641V2.8641H342.94V3.4641ZM350.981 3.4641V4.0641H355.002V3.4641V2.8641H350.981V3.4641ZM359.023 3.4641V4.0641H363.044V3.4641V2.8641H359.023V3.4641ZM367.065 3.4641V4.0641H371.086V3.4641V2.8641H367.065V3.4641ZM375.106 3.4641V4.0641H379.127V3.4641V2.8641H375.106V3.4641ZM383.148 3.4641V4.0641H387.169V3.4641V2.8641H383.148V3.4641Z" fill="var(--stroke-0, #4E4E4E)"/>
</svg>
