<svg preserveAspectRatio="none" width="100%" height="100%" overflow="visible" style="display: block;" viewBox="0 0 38 38" fill="none" xmlns="http://www.w3.org/2000/svg">
<g id="Frame">
<path id="Vector" d="M7.46288 11.2862L7.07246 12.1818C6.78675 12.8375 5.87982 12.8375 5.59411 12.1818L5.20372 11.2862C4.50784 9.68916 3.25446 8.41765 1.69048 7.72204L0.487741 7.1871C-0.16258 6.89784 -0.16258 5.95145 0.487741 5.66219L1.62323 5.15714C3.22743 4.44364 4.50327 3.12507 5.18719 1.47381L5.58809 0.505928C5.86748 -0.168643 6.7991 -0.168643 7.0785 0.505928L7.47938 1.47381C8.1633 3.12507 9.43917 4.44364 11.0434 5.15714L12.1788 5.66219C12.8293 5.95145 12.8293 6.89784 12.1788 7.1871L10.9761 7.72204C9.41214 8.41765 8.15873 9.68916 7.46288 11.2862ZM28.8607 3.75456L21.0403 9.83708C14.7919 8.29545 8.80085 11.9486 7.125 18.203C6.96391 18.8041 6.91358 19.4148 6.86085 20.0545C6.67896 22.2615 6.46877 24.8119 1.58333 28.4946C5.54167 30.8696 12.6667 33.2475 18.2109 33.2475C23.4558 33.2475 28.2566 29.7502 29.6786 24.443C30.2157 22.4388 30.2065 20.4171 29.7424 18.5356L35.8234 10.7172C36.3136 10.0869 36.2579 9.19022 35.6931 8.62559L30.9523 3.88479C30.3877 3.32015 29.491 3.26433 28.8607 3.75456ZM26.7507 13.1182C26.6505 13.0142 26.5482 12.912 26.444 12.8115L24.6634 11.0308L29.7016 7.1123L32.4656 9.87642L28.547 14.9146L26.7507 13.1182Z" fill="var(--fill-0, white)"/>
</g>
</svg>
