<svg preserveAspectRatio="none" width="100%" height="100%" overflow="visible" style="display: block;" viewBox="0 0 1.14604 6.87627" fill="none" xmlns="http://www.w3.org/2000/svg">
<path id="Vector" d="M0.573022 0C0.25786 0 0 0.25786 0 0.573022C0 0.888185 0.25786 1.14604 0.573022 1.14604C0.888185 1.14604 1.14604 0.888185 1.14604 0.573022C1.14604 0.25786 0.888185 0 0.573022 0ZM0.573022 5.73022C0.25786 5.73022 0 5.98808 0 6.30325C0 6.61841 0.25786 6.87627 0.573022 6.87627C0.888185 6.87627 1.14604 6.61841 1.14604 6.30325C1.14604 5.98808 0.888185 5.73022 0.573022 5.73022ZM0.573022 2.86511C0.25786 2.86511 0 3.12297 0 3.43813C0 3.7533 0.25786 4.01116 0.573022 4.01116C0.888185 4.01116 1.14604 3.7533 1.14604 3.43813C1.14604 3.12297 0.888185 2.86511 0.573022 2.86511Z" fill="var(--fill-0, #4E5969)"/>
</svg>
