<svg preserveAspectRatio="none" width="100%" height="100%" overflow="visible" style="display: block;" viewBox="0 0 51.1206 371.435" fill="none" xmlns="http://www.w3.org/2000/svg">
<path id="Vector 93" d="M0 3.2C0 4.96731 1.43269 6.4 3.2 6.4C4.96731 6.4 6.4 4.96731 6.4 3.2C6.4 1.43269 4.96731 0 3.2 0C1.43269 0 0 1.43269 0 3.2ZM48.4135 371.435L51.1206 365.057L44.2441 365.901L48.4135 371.435ZM3.2 3.2L2.60447 3.27312C2.68335 3.91548 2.76659 4.59343 2.85409 5.30606L3.44962 5.23294L4.04515 5.15982C3.95764 4.44719 3.8744 3.76923 3.79553 3.12688L3.2 3.2ZM3.99768 9.69647L3.40215 9.76959C3.57013 11.1376 3.74878 12.5926 3.93762 14.1305L4.53314 14.0574L5.12867 13.9843C4.93983 12.4464 4.76119 10.9914 4.59321 9.62335L3.99768 9.69647ZM5.0675 18.4093L4.47197 18.4824C4.64805 19.9164 4.83119 21.408 5.02111 22.9548L5.61664 22.8816L6.21217 22.8085C6.02225 21.2618 5.8391 19.7702 5.66303 18.3362L5.0675 18.4093ZM6.14478 27.183L5.54925 27.2561C5.72673 28.7015 5.90923 30.1878 6.09655 31.7134L6.69208 31.6403L7.28761 31.5672C7.10028 30.0416 6.91778 28.5552 6.74031 27.1098L6.14478 27.183ZM7.22383 35.971L6.6283 36.0441C6.8048 37.4816 6.98505 38.9496 7.16892 40.4471L7.76444 40.3739L8.35997 40.3008C8.17611 38.8034 7.99585 37.3353 7.81936 35.8979L7.22383 35.971ZM8.30563 44.7815L7.7101 44.8546C7.88488 46.2781 8.06257 47.7252 8.24305 49.1951L8.83858 49.122L9.43411 49.0489C9.25362 47.5789 9.07594 46.1318 8.90116 44.7084L8.30563 44.7815ZM9.38831 53.5992L8.79279 53.6723C8.96683 55.0897 9.14322 56.5263 9.32187 57.9813L9.91739 57.9081L10.5129 57.835C10.3343 56.3801 10.1579 54.9435 9.98384 53.526L9.38831 53.5992ZM10.4566 62.2993L9.86104 62.3724C10.0408 63.8363 10.2226 65.3172 10.4064 66.8144L11.002 66.7413L11.5975 66.6681C11.4137 65.171 11.2318 63.6901 11.0521 62.2262L10.4566 62.2993ZM11.5326 71.0629L10.9371 71.136C11.1157 72.5909 11.2961 74.0599 11.4781 75.5424L12.0736 75.4693L12.6692 75.3962C12.4871 73.9136 12.3068 72.4446 12.1281 70.9897L11.5326 71.0629ZM12.616 79.8866L12.0205 79.9597C12.1966 81.3941 12.3742 82.8402 12.5531 84.2974L13.1486 84.2243L13.7442 84.1511C13.5652 82.6939 13.3877 81.2479 13.2116 79.8135L12.616 79.8866ZM13.6894 88.6287L13.0939 88.7018C13.2734 90.1638 13.4542 91.6362 13.6362 93.1183L14.2317 93.0452L14.8272 92.9721C14.6453 91.4899 14.4645 90.0176 14.285 88.5556L13.6894 88.6287ZM14.7649 97.3876L14.1694 97.4607C14.3482 98.9172 14.5281 100.382 14.709 101.856L15.3046 101.783L15.9001 101.71C15.7192 100.236 15.5393 98.7709 15.3604 97.3145L14.7649 97.3876ZM15.8482 106.21L15.2527 106.283C15.4295 107.724 15.6073 109.171 15.7859 110.626L16.3814 110.553L16.9769 110.48C16.7983 109.025 16.6206 107.577 16.4437 106.137L15.8482 106.21ZM16.9197 114.937L16.3242 115.01C16.5044 116.478 16.6855 117.953 16.8673 119.433L17.4628 119.36L18.0583 119.287C17.8765 117.806 17.6955 116.332 17.5152 114.864L16.9197 114.937ZM17.9982 123.72L17.4026 123.793C17.581 125.246 17.7601 126.705 17.9398 128.168L18.5353 128.095L19.1308 128.022C18.9512 126.558 18.7721 125.1 18.5937 123.647L17.9982 123.72ZM19.0761 132.499L18.4806 132.572C18.6597 134.031 18.8393 135.494 19.0195 136.961L19.615 136.888L20.2105 136.815C20.0304 135.348 19.8507 133.885 19.6716 132.426L19.0761 132.499ZM20.1514 141.257L19.5559 141.33C19.7352 142.79 19.9149 144.254 20.095 145.721L20.6905 145.648L21.286 145.574C21.1059 144.108 20.9262 142.644 20.747 141.184L20.1514 141.257ZM21.2315 150.054L20.636 150.127C20.8145 151.58 20.9932 153.036 21.1723 154.495L21.7678 154.422L22.3634 154.349C22.1843 152.89 22.0055 151.434 21.8271 149.981L21.2315 150.054ZM22.3059 158.804L21.7104 158.877C21.89 160.34 22.0699 161.805 22.25 163.272L22.8456 163.199L23.4411 163.126C23.261 161.659 23.0811 160.194 22.9015 158.731L22.3059 158.804ZM23.3841 167.585L22.7886 167.658C22.9677 169.117 23.147 170.577 23.3264 172.039L23.922 171.965L24.5175 171.892C24.3381 170.431 24.1588 168.971 23.9796 167.512L23.3841 167.585ZM24.4606 176.352L23.865 176.425C24.0446 177.888 24.2243 179.351 24.404 180.815L24.9996 180.742L25.5951 180.669C25.4154 179.205 25.2357 177.742 25.0561 176.279L24.4606 176.352ZM25.538 185.127L24.9425 185.2C25.122 186.662 25.3014 188.124 25.4809 189.585L26.0764 189.512L26.6719 189.439C26.4925 187.977 26.313 186.516 26.1335 185.054L25.538 185.127ZM26.6145 193.895L26.019 193.968C26.1987 195.432 26.3784 196.895 26.5579 198.357L27.1534 198.284L27.749 198.211C27.5695 196.749 27.3898 195.285 27.2101 193.821L26.6145 193.895ZM27.6925 202.674L27.097 202.747C27.2765 204.209 27.4558 205.67 27.6349 207.129L28.2305 207.055L28.826 206.982C28.6469 205.524 28.4675 204.063 28.288 202.601L27.6925 202.674ZM28.7677 211.431L28.1722 211.504C28.3526 212.973 28.5328 214.441 28.7127 215.906L29.3082 215.833L29.9037 215.76C29.7239 214.295 29.5437 212.827 29.3632 211.357L28.7677 211.431ZM29.8468 220.22L29.2513 220.293C29.4305 221.752 29.6094 223.209 29.7878 224.662L30.3833 224.589L30.9789 224.516C30.8004 223.063 30.6216 221.606 30.4424 220.147L29.8468 220.22ZM30.923 228.985L30.3275 229.058C30.508 230.528 30.688 231.994 30.8676 233.456L31.4631 233.383L32.0586 233.31C31.8791 231.848 31.6991 230.381 31.5186 228.911L30.923 228.985ZM32.0001 237.756L31.4045 237.829C31.584 239.291 31.7629 240.748 31.9412 242.2L32.5367 242.127L33.1323 242.054C32.954 240.602 32.7751 239.145 32.5956 237.683L32.0001 237.756ZM33.0788 246.542L32.4833 246.615C32.6633 248.081 32.8427 249.542 33.0213 250.997L33.6168 250.924L34.2124 250.851C34.0337 249.396 33.8544 247.935 33.6744 246.469L33.0788 246.542ZM34.1504 255.27L33.5549 255.343C33.737 256.825 33.9182 258.301 34.0985 259.77L34.694 259.697L35.2896 259.624C35.1092 258.155 34.928 256.679 34.746 255.196L34.1504 255.27ZM35.2334 264.09L34.6379 264.163C34.8168 265.62 34.9947 267.069 35.1716 268.51L35.7672 268.437L36.3627 268.364C36.1857 266.923 36.0078 265.473 35.8289 264.017L35.2334 264.09ZM36.3089 272.849L35.7134 272.922C35.8948 274.4 36.0751 275.868 36.2542 277.327L36.8497 277.254L37.4453 277.18C37.2662 275.722 37.0859 274.253 36.9044 272.776L36.3089 272.849ZM37.3834 281.6L36.7879 281.673C36.9694 283.152 37.1497 284.62 37.3285 286.076L37.924 286.003L38.5196 285.93C38.3407 284.473 38.1605 283.006 37.9789 281.527L37.3834 281.6ZM38.4659 290.416L37.8704 290.489C38.0495 291.948 38.2271 293.395 38.4031 294.828L38.9986 294.755L39.5942 294.682C39.4182 293.248 39.2405 291.802 39.0614 290.343L38.4659 290.416ZM39.5403 299.166L38.9447 299.239C39.1271 300.725 39.3077 302.195 39.4863 303.65L40.0818 303.577L40.6773 303.504C40.4987 302.049 40.3182 300.579 40.1358 299.093L39.5403 299.166ZM40.6118 307.893L40.0162 307.966C40.2006 309.468 40.3827 310.951 40.5625 312.415L41.1581 312.342L41.7536 312.269C41.5738 310.805 41.3917 309.322 41.2073 307.82L40.6118 307.893ZM41.6964 316.727L41.1009 316.8C41.2806 318.264 41.4577 319.706 41.6322 321.127L42.2277 321.054L42.8232 320.981C42.6488 319.56 42.4716 318.117 42.2919 316.654L41.6964 316.727ZM42.7761 325.52L42.1805 325.593C42.3602 327.056 42.5367 328.494 42.7099 329.904L43.3054 329.831L43.9009 329.758C43.7277 328.347 43.5513 326.91 43.3716 325.447L42.7761 325.52ZM43.8523 334.286L43.2568 334.359C43.4392 335.844 43.6175 337.296 43.7914 338.713L44.387 338.64L44.9825 338.567C44.8085 337.15 44.6303 335.698 44.4479 334.213L43.8523 334.286ZM44.9284 343.049L44.3328 343.122C44.5174 344.626 44.6963 346.082 44.8692 347.491L45.4648 347.418L46.0603 347.345C45.8873 345.936 45.7084 344.479 45.5239 342.976L44.9284 343.049ZM46.0076 351.839L45.4121 351.912C45.5963 353.413 45.7723 354.846 45.9397 356.209L46.5352 356.136L47.1307 356.063C46.9633 354.7 46.7873 353.266 46.6032 351.766L46.0076 351.839ZM47.0868 360.629L46.4913 360.702C46.6873 362.299 46.8674 363.765 47.0305 365.093L47.626 365.02L48.2215 364.947C48.0584 363.619 47.8784 362.153 47.6823 360.555L47.0868 360.629Z" fill="var(--stroke-0, #4E4E4E)"/>
</svg>
