<svg preserveAspectRatio="none" width="100%" height="100%" overflow="visible" style="display: block;" viewBox="0 0 502.2 56.0641" fill="none" xmlns="http://www.w3.org/2000/svg">
<path id="Vector 101" d="M0 45.8162C0 47.5836 1.43269 49.0162 3.2 49.0162C4.96731 49.0162 6.4 47.5836 6.4 45.8162C6.4 44.0489 4.96731 42.6162 3.2 42.6162C1.43269 42.6162 0 44.0489 0 45.8162ZM502.2 52.6L496.2 49.1359V56.0641L502.2 52.6ZM3.2 45.8162H3.8V43.7554H3.2H2.6V45.8162H3.2ZM3.2 39.6338H3.8V35.5122H3.2H2.6V39.6338H3.2ZM3.2 31.3906H3.8V27.2689H3.2H2.6V31.3906H3.2ZM3.2 23.1473H3.8V19.0257H3.2H2.6V23.1473H3.2ZM3.2 14.9041H3.8V10.7824H3.2H2.6V14.9041H3.2ZM3.2 6.66081H3.8V4.60001H3.2H2.6V6.66081H3.2ZM3.2 4.60001H3.8C3.8 4.13789 3.89186 3.69874 4.05776 3.29868L3.50352 3.06885L2.94929 2.83902C2.72403 3.38223 2.6 3.97739 2.6 4.60001H3.2ZM5.66885 0.903523L5.89868 1.45776C6.29874 1.29186 6.73788 1.2 7.2 1.2V0.6V0C6.57738 0 5.98222 0.124028 5.43902 0.349288L5.66885 0.903523ZM7.2 0.6V1.2H9.20232V0.6V0H7.2V0.6ZM13.2069 0.6V1.2H17.2116V0.6V0H13.2069V0.6ZM21.2162 0.6V1.2H25.2208V0.6V0H21.2162V0.6ZM29.2255 0.6V1.2H33.2301V0.6V0H29.2255V0.6ZM37.2347 0.6V1.2H41.2393V0.6V0H37.2347V0.6ZM45.244 0.6V1.2H49.2486V0.6V0H45.244V0.6ZM53.2532 0.6V1.2H57.2579V0.6V0H53.2532V0.6ZM61.2625 0.6V1.2H65.2671V0.6V0H61.2625V0.6ZM69.2718 0.6V1.2H73.2764V0.6V0H69.2718V0.6ZM77.281 0.6V1.2H81.2857V0.6V0H77.281V0.6ZM85.2903 0.6V1.2H89.2949V0.6V0H85.2903V0.6ZM93.2995 0.6V1.2H97.3042V0.6V0H93.2995V0.6ZM101.309 0.6V1.2H105.313V0.6V0H101.309V0.6ZM109.318 0.6V1.2H113.323V0.6V0H109.318V0.6ZM117.327 0.6V1.2H121.332V0.6V0H117.327V0.6ZM125.337 0.6V1.2H129.341V0.6V0H125.337V0.6ZM133.346 0.6V1.2H137.35V0.6V0H133.346V0.6ZM141.355 0.6V1.2H145.36V0.6V0H141.355V0.6ZM149.364 0.6V1.2H153.369V0.6V0H149.364V0.6ZM157.374 0.6V1.2H161.378V0.6V0H157.374V0.6ZM165.383 0.6V1.2H169.387V0.6V0H165.383V0.6ZM173.392 0.6V1.2H177.397V0.6V0H173.392V0.6ZM181.401 0.6V1.2H185.406V0.6V0H181.401V0.6ZM189.411 0.6V1.2H193.415V0.6V0H189.411V0.6ZM197.42 0.6V1.2H201.424V0.6V0H197.42V0.6ZM205.429 0.6V1.2H209.434V0.6V0H205.429V0.6ZM213.438 0.6V1.2H217.443V0.6V0H213.438V0.6ZM221.448 0.6V1.2H225.452V0.6V0H221.448V0.6ZM229.457 0.6V1.2H233.461V0.6V0H229.457V0.6ZM237.466 0.6V1.2H241.471V0.6V0H237.466V0.6ZM245.475 0.6V1.2H249.48V0.6V0H245.475V0.6ZM253.485 0.6V1.2H257.489V0.6V0H253.485V0.6ZM261.494 0.6V1.2H265.498V0.6V0H261.494V0.6ZM269.503 0.6V1.2H273.508V0.6V0H269.503V0.6ZM277.512 0.6V1.2H281.517V0.6V0H277.512V0.6ZM285.522 0.6V1.2H289.526V0.6V0H285.522V0.6ZM293.531 0.6V1.2H297.536V0.6V0H293.531V0.6ZM301.54 0.6V1.2H305.545V0.6V0H301.54V0.6ZM309.549 0.6V1.2H313.554V0.6V0H309.549V0.6ZM317.559 0.6V1.2H321.563V0.6V0H317.559V0.6ZM325.568 0.6V1.2H329.573V0.6V0H325.568V0.6ZM333.577 0.6V1.2H337.582V0.6V0H333.577V0.6ZM341.587 0.6V1.2H345.591V0.6V0H341.587V0.6ZM349.596 0.6V1.2H353.6V0.6V0H349.596V0.6ZM357.605 0.6V1.2H361.61V0.6V0H357.605V0.6ZM365.614 0.6V1.2H369.619V0.6V0H365.614V0.6ZM373.624 0.6V1.2H377.628V0.6V0H373.624V0.6ZM381.633 0.6V1.2H385.638V0.6V0H381.633V0.6ZM389.642 0.6V1.2H393.647V0.6V0H389.642V0.6ZM397.652 0.6V1.2H401.656V0.6V0H397.652V0.6ZM405.661 0.6V1.2H409.665V0.6V0H405.661V0.6ZM413.67 0.6V1.2H417.675V0.6V0H413.67V0.6ZM421.679 0.6V1.2H425.684V0.6V0H421.679V0.6ZM429.689 0.6V1.2H433.693V0.6V0H429.689V0.6ZM437.698 0.6V1.2H439.7V0.6V0H437.698V0.6ZM439.7 0.6V1.2C440.162 1.2 440.601 1.29186 441.001 1.45776L441.231 0.903522L441.461 0.349287C440.918 0.124027 440.323 0 439.7 0V0.6ZM443.396 3.06885L442.842 3.29868C443.008 3.69874 443.1 4.13788 443.1 4.6H443.7H444.3C444.3 3.97738 444.176 3.38222 443.951 2.83902L443.396 3.06885ZM443.7 4.6H443.1V6.43333H443.7H444.3V4.6H443.7ZM443.7 10.1H443.1V13.7667H443.7H444.3V10.1H443.7ZM443.7 17.4333H443.1V21.1H443.7H444.3V17.4333H443.7ZM443.7 24.7667H443.1V28.4333H443.7H444.3V24.7667H443.7ZM443.7 32.1H443.1V35.7667H443.7H444.3V32.1H443.7ZM443.7 39.4333H443.1V43.1H443.7H444.3V39.4333H443.7ZM443.7 46.7667H443.1V48.6H443.7H444.3V46.7667H443.7ZM443.7 48.6H443.1C443.1 49.2226 443.224 49.8178 443.449 50.361L444.004 50.1312L444.558 49.9013C444.392 49.5013 444.3 49.0621 444.3 48.6H443.7ZM446.169 52.2965L445.939 52.8507C446.482 53.076 447.077 53.2 447.7 53.2V52.6V52C447.238 52 446.799 51.9081 446.399 51.7422L446.169 52.2965ZM447.7 52.6V53.2H449.646V52.6V52H447.7V52.6ZM453.539 52.6V53.2H457.432V52.6V52H453.539V52.6ZM461.325 52.6V53.2H465.218V52.6V52H461.325V52.6ZM469.111 52.6V53.2H473.004V52.6V52H469.111V52.6ZM476.896 52.6V53.2H480.789V52.6V52H476.896V52.6ZM484.682 52.6V53.2H488.575V52.6V52H484.682V52.6ZM492.468 52.6V53.2H496.361V52.6V52H492.468V52.6Z" fill="var(--stroke-0, #4E4E4E)"/>
</svg>
