<svg preserveAspectRatio="none" width="100%" height="100%" overflow="visible" style="display: block;" viewBox="0 0 7.6403 7.6403" fill="none" xmlns="http://www.w3.org/2000/svg">
<path id="Vector" d="M1.32275 0.929297C1.99242 0.350262 2.86538 0 3.82015 0C5.92994 0 7.6403 1.71034 7.6403 3.82015C7.6403 4.63617 7.38442 5.39245 6.94855 6.01314L5.73022 3.82015H6.87627C6.87627 2.1323 5.50801 0.76403 3.82015 0.76403C2.99875 0.76403 2.25304 1.08808 1.70387 1.61532L1.32275 0.929297ZM6.31753 6.71101C5.64786 7.29003 4.77492 7.6403 3.82015 7.6403C1.71034 7.6403 0 5.92994 0 3.82015C0 3.00411 0.25587 2.24784 0.691753 1.62717L1.91007 3.82015H0.76403C0.76403 5.50801 2.1323 6.87627 3.82015 6.87627C4.64156 6.87627 5.38725 6.55221 5.93644 6.02499L6.31753 6.71101Z" fill="var(--fill-0, #4E5969)"/>
</svg>
