<svg preserveAspectRatio="none" width="100%" height="100%" overflow="visible" style="display: block;" viewBox="0 0 60 61" fill="none" xmlns="http://www.w3.org/2000/svg">
<g id="&#231;&#142;&#175;&#229;&#189;&#162;&#229;&#155;&#190;">
<path id="Ellipse 17" d="M30 4.60309e-10C36.3354 7.72681e-08 42.5081 2.03908 47.6336 5.82498C52.759 9.61089 56.574 14.9493 58.5317 21.075C60.4894 27.2007 60.4894 33.7993 58.5317 39.925C56.574 46.0507 52.759 51.3891 47.6336 55.175L38.8168 42.8375C41.3795 40.9446 43.287 38.2754 44.2659 35.2125C45.2447 32.1496 45.2447 28.8504 44.2659 25.7875C43.287 22.7246 41.3795 20.0554 38.8168 18.1625C36.2541 16.2695 33.1677 15.25 30 15.25L30 4.60309e-10Z" fill="var(--fill-0, #165DFF)"/>
<path id="Ellipse 18" d="M47.6295 55.178C43.7989 58.0065 39.3642 59.8731 34.6881 60.6253C30.012 61.3774 25.2271 60.9938 20.7247 59.5057C16.2224 58.0175 12.1304 55.4672 8.78327 52.0632C5.43616 48.6591 2.929 44.4981 1.46677 39.9202L15.7334 35.2101C16.4645 37.499 17.7181 39.5796 19.3916 41.2816C21.0652 42.9836 23.1112 44.2588 25.3624 45.0028C27.6135 45.7469 30.006 45.9387 32.3441 45.5626C34.6821 45.1866 36.8995 44.2532 38.8148 42.839L47.6295 55.178Z" fill="var(--fill-0, #14C9C9)"/>
<path id="Ellipse 19" d="M1.4646 39.9134C0.00341945 35.3352 -0.371246 30.4704 0.371233 25.7167C1.11371 20.963 2.95226 16.4555 5.73654 12.5627C8.52083 8.66985 12.1718 5.50222 16.391 3.31878C20.6101 1.13534 25.2777 -0.00191635 30.012 2.42399e-06L30.006 15.25C27.6388 15.249 25.3051 15.8177 23.1955 16.9094C21.0859 18.0011 19.2604 19.5849 17.8683 21.5313C16.4761 23.4778 15.5569 25.7315 15.1856 28.1083C14.8144 30.4852 15.0017 32.9176 15.7323 35.2067L1.4646 39.9134Z" fill="var(--fill-0, #F7BA1E)"/>
</g>
</svg>
