<svg preserveAspectRatio="none" width="100%" height="100%" overflow="visible" style="display: block;" viewBox="0 0 275.235 36.2368" fill="none" xmlns="http://www.w3.org/2000/svg">
<path id="Vector 91" d="M0 33.0368C0 34.8041 1.43269 36.2368 3.2 36.2368C4.96731 36.2368 6.4 34.8041 6.4 33.0368C6.4 31.2695 4.96731 29.8368 3.2 29.8368C1.43269 29.8368 0 31.2695 0 33.0368ZM275.235 34.5587L273.651 27.814L268.602 32.558L275.235 34.5587ZM3.2 33.0368L3.44823 33.583C4.1255 33.2752 4.80284 32.97 5.48022 32.6672L5.23538 32.1194L4.99054 31.5717C4.3109 31.8754 3.6313 32.1817 2.95177 32.4905L3.2 33.0368ZM9.30687 30.3297L9.54493 30.8804C10.8999 30.2947 12.255 29.7189 13.6099 29.1529L13.3786 28.5992L13.1474 28.0456C11.7879 28.6135 10.4283 29.1913 9.06881 29.7789L9.30687 30.3297ZM17.4926 26.9103L17.717 27.4667C19.0916 26.9123 20.466 26.3678 21.8399 25.8331L21.6224 25.274L21.4048 24.7148C20.0262 25.2512 18.6473 25.7975 17.2681 26.3538L17.4926 26.9103ZM25.7499 23.6968L25.9606 24.2586C27.3532 23.7362 28.7453 23.2238 30.1368 22.7213L29.933 22.157L29.7292 21.5927C28.3331 22.0968 26.9364 22.6109 25.5391 23.135L25.7499 23.6968ZM34.114 20.676L34.3109 21.2428C35.7069 20.7579 37.102 20.2829 38.4961 19.8177L38.3062 19.2485L38.1163 18.6794C36.7175 19.1461 35.3178 19.6227 33.9172 20.1092L34.114 20.676ZM42.5384 17.865L42.7213 18.4364C44.1286 17.9859 45.5347 17.5453 46.9395 17.1144L46.7636 16.5408L46.5876 15.9672C45.1782 16.3995 43.7674 16.8416 42.3555 17.2936L42.5384 17.865ZM51.0185 15.264L51.1874 15.8398C52.6106 15.4222 54.0323 15.0145 55.4522 14.6167L55.2903 14.0389L55.1285 13.4612C53.7038 13.8604 52.2774 14.2694 50.8496 14.6883L51.0185 15.264ZM59.5521 12.8727L59.7069 13.4524C61.1445 13.0683 62.5802 12.6943 64.0138 12.33L63.866 11.7485L63.7183 11.167C62.2799 11.5324 60.8395 11.9077 59.3972 12.293L59.5521 12.8727ZM68.1699 10.6829L68.3105 11.2661C69.7492 10.9192 71.1856 10.5821 72.6195 10.2547L72.4859 9.66973L72.3524 9.08478C70.9137 9.41326 69.4726 9.75148 68.0292 10.0996L68.1699 10.6829ZM76.8298 8.70576L76.9562 9.2923C78.3991 8.98131 79.8394 8.68009 81.2768 8.3885L81.1575 7.80048L81.0382 7.21245C79.5961 7.50501 78.1511 7.80722 76.7034 8.11923L76.8298 8.70576ZM85.5272 6.9418L85.6393 7.53124C87.0944 7.25452 88.5464 6.98761 89.995 6.73036L89.8901 6.1396L89.7852 5.54884C88.3318 5.80694 86.875 6.07473 85.4151 6.35237L85.5272 6.9418ZM94.2574 5.39149L94.3551 5.98348C95.8218 5.74142 97.2848 5.50921 98.744 5.28671L98.6535 4.69357L98.5631 4.10043C97.0991 4.32366 95.6312 4.55663 94.1597 4.79949L94.2574 5.39149ZM103.027 4.05399L103.11 4.64819C104.584 4.44178 106.054 4.24523 107.519 4.05838L107.443 3.46319L107.367 2.86801C105.897 3.05549 104.422 3.25269 102.943 3.45978L103.027 4.05399ZM111.844 2.92946L111.913 3.52553C113.385 3.35614 114.853 3.1965 116.316 3.04646L116.254 2.44959L116.193 1.85272C114.725 2.00327 113.253 2.16344 111.776 2.33339L111.844 2.92946ZM120.681 2.02321L120.735 2.62079C122.205 2.4884 123.67 2.36567 125.129 2.25242L125.083 1.65422L125.036 1.05602C123.572 1.16965 122.102 1.2928 120.627 1.42563L120.681 2.02321ZM129.533 1.33694L129.572 1.93568C131.047 1.83982 132.516 1.75364 133.979 1.67695L133.948 1.07777L133.916 0.478593C132.448 0.555547 130.974 0.642025 129.494 0.738204L129.533 1.33694ZM138.395 0.872887L138.419 1.47241C139.9 1.41359 141.375 1.36448 142.843 1.3249L142.827 0.725117L142.81 0.125335C141.337 0.165056 139.858 0.214334 138.371 0.273359L138.395 0.872887ZM147.263 0.633942L147.271 1.23388C148.758 1.21289 150.237 1.20166 151.709 1.2L151.708 0.6L151.707 0C150.231 0.00167042 148.746 0.0129368 147.254 0.0340015L147.263 0.633942ZM156.132 0.623832L156.125 1.22379C157.616 1.24158 159.098 1.26918 160.572 1.30639L160.587 0.706584L160.602 0.106775C159.123 0.0694318 157.635 0.041726 156.139 0.0238749L156.132 0.623832ZM164.998 0.847329L164.974 1.44688C166.468 1.50457 167.953 1.57214 169.428 1.64934L169.459 1.05016L169.49 0.450985C168.01 0.373489 166.52 0.305675 165.021 0.247776L164.998 0.847329ZM173.862 1.31097L173.822 1.90966C175.315 2.00845 176.797 2.11715 178.269 2.23551L178.317 1.63744L178.365 1.03937C176.888 0.920561 175.4 0.811445 173.901 0.71228L173.862 1.31097ZM182.713 2.0226L182.656 2.61992C184.146 2.7612 185.624 2.91242 187.089 3.07329L187.155 2.47687L187.22 1.88046C185.749 1.71893 184.265 1.56712 182.77 1.42528L182.713 2.0226ZM191.537 2.99109L191.463 3.58646C192.949 3.77217 194.421 3.96787 195.88 4.17325L195.964 3.57911L196.048 2.98497C194.583 2.77872 193.104 2.5822 191.611 2.39572L191.537 2.99109ZM200.323 4.22792L200.23 4.82067C201.713 5.05338 203.18 5.29616 204.631 5.54868L204.734 4.95756L204.837 4.36644C203.379 4.11278 201.905 3.86891 200.416 3.63518L200.323 4.22792ZM209.069 5.74946L208.957 6.33876C210.432 6.62122 211.889 6.91384 213.329 7.21623L213.452 6.62905L213.575 6.04186C212.129 5.73799 210.664 5.44397 209.182 5.16017L209.069 5.74946ZM217.77 7.57765L217.636 8.16246C219.095 8.49722 220.534 8.84213 221.952 9.19677L222.098 8.6147L222.243 8.03262C220.818 7.67606 219.371 7.32933 217.905 6.99285L217.77 7.57765ZM226.396 9.73618L226.238 10.3151C227.674 10.7056 229.086 11.1062 230.474 11.5164L230.644 10.941L230.814 10.3656C229.417 9.95287 227.997 9.54993 226.553 9.15722L226.396 9.73618ZM234.914 12.2567L234.73 12.8279C236.151 13.2843 237.544 13.751 238.909 14.2273L239.107 13.6608L239.304 13.0943C237.93 12.6146 236.527 12.1448 235.097 11.6854L234.914 12.2567ZM243.275 15.1788L243.062 15.7397C244.472 16.2757 245.849 16.8223 247.19 17.3787L247.42 16.8245L247.65 16.2703C246.297 15.7091 244.91 15.1581 243.488 14.618L243.275 15.1788ZM251.481 18.5877L251.233 19.1339C252.595 19.7527 253.914 20.3818 255.191 21.0205L255.459 20.4839L255.728 19.9473C254.437 19.3017 253.104 18.6661 251.729 18.0415L251.481 18.5877ZM259.412 22.5673L259.121 23.0917C260.447 23.8289 261.718 24.5766 262.931 25.3335L263.248 24.8245L263.566 24.3155C262.335 23.5472 261.047 22.7893 259.704 22.0428L259.412 22.5673ZM266.945 27.2846L266.597 27.7735C267.836 28.6554 268.999 29.5472 270.082 30.4467L270.465 29.9852L270.848 29.5236C269.741 28.6036 268.555 27.6937 267.293 26.7957L266.945 27.2846Z" fill="var(--stroke-0, #4E4E4E)"/>
</svg>
