<svg preserveAspectRatio="none" width="100%" height="100%" overflow="visible" style="display: block;" viewBox="0 0 76.7197 473.53" fill="none" xmlns="http://www.w3.org/2000/svg">
<path id="Vector 92" d="M0 470.33C0 472.098 1.43269 473.53 3.2 473.53C4.96731 473.53 6.4 472.098 6.4 470.33C6.4 468.563 4.96731 467.13 3.2 467.13C1.43269 467.13 0 468.563 0 470.33ZM76.7197 2.38257L70.214 0L71.4035 6.82534L76.7197 2.38257ZM3.2 470.33L3.46628 470.868C4.13626 470.536 4.7977 470.191 5.45069 469.832L5.16162 469.306L4.87256 468.78C4.23454 469.131 3.5883 469.468 2.93372 469.793L3.2 470.33ZM8.93537 467.018L9.26777 467.517C10.5068 466.693 11.7125 465.816 12.8859 464.888L12.5137 464.417L12.1416 463.947C10.9934 464.855 9.81417 465.712 8.60298 466.518L8.93537 467.018ZM15.8324 461.577L16.2395 462.018C17.3263 461.014 18.3826 459.963 19.4094 458.866L18.9713 458.456L18.5332 458.046C17.5258 459.122 16.49 460.153 15.4252 461.137L15.8324 461.577ZM21.8773 455.132L22.3418 455.512C23.2619 454.387 24.1559 453.222 25.0247 452.018L24.5381 451.667L24.0516 451.316C23.1965 452.501 22.3171 453.647 21.4128 454.752L21.8773 455.132ZM27.05 447.968L27.5555 448.292C28.337 447.07 29.096 445.813 29.8331 444.524L29.3122 444.226L28.7913 443.928C28.0637 445.201 27.3149 446.44 26.5446 447.645L27.05 447.968ZM31.401 440.37L31.9347 440.644C32.6147 439.32 33.2743 437.965 33.914 436.58L33.3693 436.328L32.8246 436.077C32.1916 437.447 31.5393 438.787 30.8672 440.096L31.401 440.37ZM35.121 432.343L35.6745 432.575C36.2347 431.235 36.7783 429.871 37.3056 428.482L36.7446 428.269L36.1837 428.056C35.661 429.433 35.1223 430.785 34.5674 432.112L35.121 432.343ZM38.2719 424.049L38.8392 424.244C39.312 422.872 39.7705 421.479 40.2149 420.065L39.6425 419.885L39.0701 419.705C38.6289 421.109 38.1738 422.492 37.7047 423.853L38.2719 424.049ZM40.8988 415.703L41.4755 415.868C41.8826 414.45 42.2767 413.012 42.6581 411.556L42.0777 411.404L41.4973 411.252C41.1181 412.7 40.7265 414.128 40.3221 415.537L40.8988 415.703ZM43.1608 407.078L43.7443 407.218C44.0785 405.82 44.402 404.407 44.7149 402.978L44.1287 402.85L43.5426 402.722C43.2313 404.143 42.9096 405.549 42.5772 406.938L43.1608 407.078ZM45.0339 398.529L45.6223 398.647C45.9144 397.188 46.1963 395.714 46.4682 394.226L45.878 394.118L45.2877 394.01C45.017 395.492 44.7364 396.959 44.4456 398.411L45.0339 398.529ZM46.6317 389.805L47.2235 389.904C47.4621 388.475 47.6922 387.033 47.9138 385.58L47.3207 385.49L46.7275 385.399C46.5067 386.847 46.2776 388.283 46.0399 389.706L46.6317 389.805ZM47.9595 381.102L48.5538 381.184C48.7589 379.707 48.9558 378.219 49.1449 376.719L48.5496 376.644L47.9543 376.569C47.7659 378.064 47.5696 379.547 47.3652 381.019L47.9595 381.102ZM49.0686 372.326L49.6647 372.394C49.8301 370.949 49.9886 369.494 50.1403 368.03L49.5435 367.968L48.9467 367.906C48.7954 369.366 48.6374 370.817 48.4725 372.258L49.0686 372.326ZM49.978 363.554L50.5754 363.61C50.7138 362.127 50.8457 360.636 50.9712 359.136L50.3732 359.086L49.7753 359.036C49.6502 360.532 49.5187 362.02 49.3806 363.498L49.978 363.554ZM50.7172 354.74L51.3156 354.785C51.4242 353.333 51.5272 351.873 51.6246 350.405L51.0259 350.366L50.4273 350.326C50.33 351.79 50.2273 353.247 50.1189 354.696L50.7172 354.74ZM51.3018 345.947L51.9008 345.982C51.9874 344.5 52.0688 343.011 52.145 341.516L51.5458 341.485L50.9465 341.455C50.8705 342.947 50.7893 344.433 50.7028 345.912L51.3018 345.947ZM51.7538 337.1L52.3532 337.127C52.4172 335.672 52.4766 334.21 52.5316 332.743L51.932 332.721L51.3324 332.698C51.2776 334.163 51.2183 335.621 51.1544 337.074L51.7538 337.1ZM52.0833 328.307L52.683 328.326C52.7292 326.847 52.771 325.364 52.8086 323.876L52.2088 323.86L51.609 323.845C51.5714 325.331 51.5297 326.813 51.4836 328.288L52.0833 328.307ZM52.3083 319.435L52.9081 319.447C52.9369 317.99 52.9618 316.529 52.9831 315.063L52.3832 315.055L51.7832 315.046C51.762 316.509 51.7371 317.968 51.7084 319.423L52.3083 319.435ZM52.4362 310.649L53.0362 310.654C53.0503 309.181 53.0609 307.703 53.0682 306.221L52.4682 306.218L51.8682 306.215C51.861 307.695 51.8503 309.171 51.8362 310.643L52.4362 310.649ZM52.4801 301.765L53.0801 301.765C53.0807 300.306 53.0783 298.844 53.0729 297.378L52.4729 297.381L51.8729 297.383C51.8783 298.847 51.8807 300.307 51.8801 301.765L52.4801 301.765ZM52.4481 292.981L53.0481 292.977C53.0369 291.506 53.023 290.033 53.0063 288.557L52.4064 288.564L51.8064 288.571C51.823 290.045 51.837 291.517 51.8481 292.986L52.4481 292.981ZM52.3485 284.131L52.9485 284.122C52.9267 282.65 52.9024 281.175 52.8758 279.698L52.2759 279.709L51.676 279.72C51.7026 281.196 51.7269 282.669 51.7486 284.14L52.3485 284.131ZM52.1897 275.312L52.7895 275.299C52.7585 273.831 52.7253 272.361 52.6899 270.889L52.0901 270.903L51.4903 270.918C51.5256 272.388 51.5588 273.857 51.5898 275.325L52.1897 275.312ZM51.978 266.485L52.5778 266.469C52.5384 264.994 52.4971 263.517 52.4539 262.04L51.8542 262.057L51.2544 262.075C51.2976 263.551 51.3389 265.027 51.3782 266.501L51.978 266.485ZM51.7201 257.649L52.3198 257.63C52.2734 256.162 52.2254 254.692 52.1758 253.222L51.5761 253.242L50.9765 253.263C51.0261 254.732 51.0741 256.201 51.1204 257.668L51.7201 257.649ZM51.4228 248.831L52.0225 248.81C51.9699 247.338 51.9158 245.866 51.8605 244.394L51.2609 244.417L50.6613 244.439C50.7167 245.911 50.7707 247.382 50.8232 248.853L51.4228 248.831ZM51.0912 240.001L51.6907 239.978C51.6329 238.507 51.574 237.035 51.514 235.564L50.9145 235.589L50.315 235.613C50.375 237.084 50.4339 238.554 50.4916 240.025L51.0912 240.001ZM50.7314 231.177L51.3309 231.152C51.2689 229.681 51.206 228.211 51.1422 226.742L50.5428 226.768L49.9434 226.794C50.0071 228.263 50.07 229.732 50.132 231.202L50.7314 231.177ZM50.3493 222.363L50.9487 222.336C50.8833 220.864 50.8172 219.392 50.7505 217.922L50.1511 217.949L49.5518 217.976C49.6184 219.446 49.6845 220.917 49.7499 222.389L50.3493 222.363ZM49.949 213.529L50.5484 213.501C50.4805 212.029 50.4122 210.558 50.3436 209.089L49.7443 209.117L49.1449 209.145C49.2135 210.614 49.2818 212.085 49.3496 213.557L49.949 213.529ZM49.5377 204.714L50.137 204.686C50.0679 203.22 49.9986 201.756 49.9293 200.294L49.33 200.322L48.7306 200.351C48.8 201.813 48.8692 203.277 48.9383 204.743L49.5377 204.714ZM49.1196 195.893L49.7189 195.864C49.6487 194.387 49.5785 192.913 49.5086 191.441L48.9093 191.47L48.3099 191.498C48.3799 192.97 48.45 194.444 48.5202 195.921L49.1196 195.893ZM48.7002 187.062L49.2996 187.034C49.2302 185.567 49.1612 184.104 49.0926 182.643L48.4933 182.671L47.8939 182.699C47.9625 184.16 48.0315 185.624 48.1009 187.09L48.7002 187.062ZM48.2878 178.271L48.8872 178.243C48.8183 176.759 48.7501 175.279 48.6826 173.802L48.0832 173.829L47.4839 173.857C47.5513 175.334 47.6196 176.814 47.6884 178.298L48.2878 178.271ZM47.8833 169.41L48.4827 169.383C48.4169 167.914 48.3521 166.449 48.2883 164.988L47.6889 165.014L47.0894 165.04C47.1533 166.501 47.2181 167.967 47.2839 169.437L47.8833 169.41ZM47.5007 160.643L48.1002 160.618C48.0372 159.131 47.9754 157.649 47.915 156.171L47.3155 156.196L46.716 156.22C46.7764 157.698 46.8382 159.181 46.9013 160.668L47.5007 160.643ZM47.138 151.759L47.7375 151.735C47.6798 150.262 47.6237 148.794 47.5694 147.331L46.9698 147.353L46.3702 147.376C46.4246 148.839 46.4807 150.308 46.5384 151.782L47.138 151.759ZM46.8119 142.981L47.4116 142.96C47.3599 141.482 47.3101 140.011 47.2624 138.546L46.6627 138.565L46.0631 138.585C46.1108 140.051 46.1606 141.523 46.2123 143.002L46.8119 142.981ZM46.5238 134.107L47.1235 134.089C47.0795 132.611 47.0379 131.139 46.9987 129.674L46.3989 129.69L45.7991 129.706C45.8383 131.172 45.88 132.645 45.9241 134.125L46.5238 134.107ZM46.2892 125.316L46.889 125.302C46.8546 123.832 46.823 122.37 46.7943 120.916L46.1944 120.928L45.5945 120.94C45.6232 122.396 45.6549 123.859 45.6893 125.33L46.2892 125.316ZM46.1151 116.45L46.715 116.44C46.6918 114.957 46.672 113.483 46.6557 112.018L46.0557 112.025L45.4558 112.031C45.4721 113.498 45.492 114.974 45.5151 116.459L46.1151 116.45ZM46.0175 107.655L46.6175 107.651C46.6083 106.181 46.6029 104.721 46.6015 103.272L46.0015 103.272L45.4015 103.273C45.4029 104.725 45.4083 106.187 45.4175 107.658L46.0175 107.655ZM46.0106 98.7816L46.6106 98.7847C46.6182 97.3003 46.6303 95.8276 46.6473 94.3668L46.0473 94.3598L45.4474 94.3528C45.4304 95.8163 45.4182 97.2917 45.4106 98.7786L46.0106 98.7816ZM46.113 90.0096L46.7129 90.0208C46.7407 88.5358 46.7738 87.0642 46.8127 85.6062L46.2129 85.5903L45.6131 85.5743C45.5742 87.0355 45.541 88.5104 45.5131 89.9983L46.113 90.0096ZM46.3518 81.1085L46.9514 81.1298C47.0039 79.6527 47.0627 78.1907 47.1281 76.7444L46.5287 76.7173L45.9293 76.6902C45.8637 78.1405 45.8048 79.6063 45.7522 81.0872L46.3518 81.1085ZM46.7453 72.4198L47.3443 72.4532C47.4293 70.9294 47.5222 69.4245 47.6235 67.939L47.0249 67.8982L46.4263 67.8574C46.3247 69.348 46.2314 70.8579 46.1462 72.3864L46.7453 72.4198ZM47.3562 63.4732L47.9542 63.5221C48.0731 62.0699 48.2007 60.6381 48.3374 59.2271L47.7402 59.1692L47.143 59.1114C47.0057 60.5285 46.8775 61.9664 46.7582 63.4243L47.3562 63.4732ZM48.2092 54.725L48.8053 54.7933C48.9771 53.2942 49.1602 51.8212 49.3553 50.3751L48.7606 50.2949L48.166 50.2147C47.9699 51.6691 47.7857 53.15 47.6131 54.6567L48.2092 54.725ZM49.3837 46.0254L49.9764 46.1188C50.2125 44.6201 50.4629 43.1538 50.7282 41.7209L50.1382 41.6117L49.5482 41.5024C49.2809 42.9465 49.0287 44.4234 48.791 45.9321L49.3837 46.0254ZM51.0141 37.2515L51.6004 37.3791C51.9074 35.9684 52.231 34.5949 52.5717 33.2596L51.9903 33.1113L51.4089 32.963C51.0645 34.3129 50.7377 35.7002 50.4278 37.1238L51.0141 37.2515ZM53.2214 28.6989L53.7953 28.8738C54.2262 27.4604 54.6798 26.0981 55.1571 24.7885L54.5934 24.583L54.0297 24.3776C53.5445 25.7088 53.0841 27.0916 52.6474 28.5239L53.2214 28.6989ZM56.2582 20.445L56.8065 20.6886C57.4145 19.3204 58.0545 18.0245 58.7278 16.8031L58.2023 16.5134L57.6768 16.2238C56.9856 17.4777 56.3305 18.8046 55.7099 20.2013L56.2582 20.445ZM60.54 12.7589L61.0302 13.1049C61.8845 11.8948 62.7834 10.7862 63.7287 9.78204L63.2918 9.37078L62.8549 8.95953C61.8678 10.0082 60.9337 11.1609 60.0499 12.4128L60.54 12.7589ZM66.5894 6.42187L66.9467 6.9039C68.0999 6.04915 69.3126 5.32379 70.5879 4.73185L70.3353 4.18762L70.0827 3.64339C68.7308 4.27089 67.4482 5.03851 66.2321 5.93985L66.5894 6.42187Z" fill="var(--stroke-0, #4E4E4E)"/>
</svg>
