<svg preserveAspectRatio="none" width="100%" height="100%" overflow="visible" style="display: block;" viewBox="0 0 124.95 93.1892" fill="none" xmlns="http://www.w3.org/2000/svg">
<path id="Vector 91" d="M0 3.2C0 4.96731 1.43269 6.4 3.2 6.4C4.96731 6.4 6.4 4.96731 6.4 3.2C6.4 1.43269 4.96731 0 3.2 0C1.43269 0 0 1.43269 0 3.2ZM116.838 93.1892L122.664 89.4402L116.504 86.269L116.838 93.1892ZM3.2 3.2L3.22735 3.79938C3.95699 3.76609 4.69031 3.73747 5.42706 3.71352L5.40757 3.11384L5.38808 2.51416C4.64614 2.53827 3.90758 2.56709 3.17265 2.60062L3.2 3.2ZM9.86426 3.02613L9.86851 3.62612C11.337 3.61572 12.8167 3.62329 14.3057 3.64884L14.316 3.04893L14.3263 2.44902C12.8277 2.4233 11.3383 2.41568 9.86001 2.42615L9.86426 3.02613ZM18.758 3.17733L18.7337 3.77684C20.2044 3.83645 21.6821 3.91324 23.1652 4.00723L23.2031 3.40843L23.2411 2.80963C21.749 2.71507 20.2621 2.63781 18.7823 2.57782L18.758 3.17733ZM27.6457 3.74L27.5943 4.3378C29.063 4.46392 30.5352 4.60671 32.009 4.76618L32.0736 4.16966L32.1381 3.57314C30.6555 3.41272 29.1745 3.26908 27.697 3.1422L27.6457 3.74ZM36.4913 4.697L36.4136 5.29194C37.8789 5.48328 39.3443 5.69106 40.808 5.91531L40.8989 5.32223L40.9898 4.72915C39.5172 4.50355 38.0431 4.29452 36.569 4.10205L36.4913 4.697ZM45.2898 6.04529L45.1857 6.63618C46.643 6.89304 48.0972 7.16634 49.5464 7.45607L49.664 6.86771L49.7816 6.27936C48.3234 5.98781 46.8602 5.71283 45.3939 5.4544L45.2898 6.04529ZM54.0189 7.79139L53.8875 8.37682C55.3328 8.70123 56.7715 9.04226 58.2019 9.39992L58.3474 8.81784L58.493 8.23576C57.0531 7.87572 55.6049 7.53245 54.1503 7.20595L54.0189 7.79139ZM62.6494 9.95087L62.4892 10.5291C63.9208 10.9256 65.3421 11.3392 66.7513 11.7699L66.9267 11.1961L67.102 10.6223C65.6825 10.1885 64.2511 9.77193 62.8096 9.37264L62.6494 9.95087ZM71.1648 12.5555L70.9736 13.1242C72.38 13.5972 73.7721 14.0878 75.1481 14.5961L75.356 14.0333L75.5639 13.4705C74.1766 12.958 72.7734 12.4635 71.3561 11.9868L71.1648 12.5555ZM79.5067 15.6405L79.2812 16.1965C80.6618 16.7565 82.0233 17.3352 83.3637 17.9325L83.6079 17.3845L83.8522 16.8365C82.499 16.2334 81.125 15.6494 79.7323 15.0845L79.5067 15.6405ZM87.64 19.2695L87.3758 19.8083C88.7113 20.4631 90.0221 21.1377 91.3061 21.8321L91.5915 21.3043L91.8769 20.7766C90.5784 20.0743 89.2534 19.3924 87.9042 18.7308L87.64 19.2695ZM95.4498 23.4994L95.1416 24.0142C96.4228 24.7812 97.6723 25.5697 98.8878 26.3797L99.2205 25.8804L99.5532 25.3811C98.3211 24.5599 97.0551 23.7611 95.758 22.9846L95.4498 23.4994ZM102.861 28.4478L102.502 28.9285C103.696 29.82 104.85 30.7349 105.96 31.6731L106.348 31.2146L106.735 30.7562C105.605 29.802 104.432 28.8723 103.22 27.967L102.861 28.4478ZM109.65 34.1941L109.233 34.6257C110.301 35.6575 111.32 36.7147 112.285 37.7972L112.733 37.3979L113.18 36.9986C112.195 35.8928 111.156 34.8142 110.067 33.7626L109.65 34.1941ZM115.553 40.834L115.073 41.1947C115.962 42.3753 116.789 43.5833 117.552 44.8187L118.062 44.5034L118.573 44.1882C117.79 42.9203 116.942 41.682 116.032 40.4733L115.553 40.834ZM120.209 48.397L119.67 48.6597C120.311 49.9765 120.882 51.3219 121.379 52.6962L121.943 52.4922L122.507 52.2882C121.996 50.873 121.408 49.4883 120.749 48.1342L120.209 48.397ZM123.223 56.7531L122.64 56.8936C122.98 58.3025 123.244 59.7397 123.429 61.2055L124.024 61.1303L124.62 61.055C124.429 59.5452 124.157 58.0643 123.807 56.6125L123.223 56.7531ZM124.342 65.5618L123.743 65.5728C123.769 67.0052 123.722 68.4635 123.599 69.9476L124.197 69.9973L124.795 70.0469C124.921 68.5231 124.969 67.0244 124.942 65.5508L124.342 65.5618ZM123.621 74.3951L123.031 74.2901C122.781 75.6964 122.464 77.1247 122.078 78.5752L122.658 78.7295L123.238 78.8837C123.632 77.4017 123.956 75.9405 124.212 74.5001L123.621 74.3951ZM121.347 82.9903L120.78 82.7927C120.305 84.1534 119.771 85.5325 119.176 86.9301L119.728 87.1653L120.28 87.4005C120.885 85.9791 121.429 84.5748 121.913 83.1878L121.347 82.9903Z" fill="var(--stroke-0, #4E4E4E)"/>
</svg>
