<svg preserveAspectRatio="none" width="100%" height="100%" overflow="visible" style="display: block;" viewBox="0 0 56.4829 415.107" fill="none" xmlns="http://www.w3.org/2000/svg">
<path id="Vector 92" d="M0 3.2C0 4.96731 1.43269 6.4 3.2 6.4C4.96731 6.4 6.4 4.96731 6.4 3.2C6.4 1.43269 4.96731 0 3.2 0C1.43269 0 0 1.43269 0 3.2ZM53.7758 415.107L56.4829 408.729L49.6063 409.573L53.7758 415.107ZM3.2 3.2L2.60447 3.27312C2.68158 3.90106 2.76363 4.56936 2.85052 5.27701L3.44605 5.20389L4.04158 5.13076C3.95469 4.42312 3.87263 3.75482 3.79553 3.12688L3.2 3.2ZM3.9972 9.6926L3.40168 9.76572C3.56718 11.1136 3.74412 12.5546 3.93199 14.0847L4.52752 14.0116L5.12305 13.9385C4.93517 12.4084 4.75824 10.9674 4.59273 9.61948L3.9972 9.6926ZM5.06604 18.3974L4.47051 18.4705C4.64378 19.8817 4.82438 21.3526 5.01203 22.8808L5.60755 22.8077L6.20308 22.7346C6.01544 21.2063 5.83483 19.7355 5.66156 18.3243L5.06604 18.3974ZM6.14426 27.1787L5.54873 27.2519C5.72268 28.6685 5.90174 30.1269 6.08573 31.6253L6.68125 31.5522L7.27678 31.479C7.0928 29.9806 6.91373 28.5223 6.73979 27.1056L6.14426 27.1787ZM7.22736 35.9998L6.63184 36.0729C6.80424 37.477 6.98041 38.9119 7.16023 40.3763L7.75576 40.3032L8.35129 40.2301C8.17147 38.7656 7.99529 37.3308 7.82289 35.9267L7.22736 35.9998ZM8.30601 44.7846L7.71048 44.8577C7.88429 46.2733 8.06113 47.7135 8.24089 49.1775L8.83642 49.1044L9.43195 49.0313C9.25218 47.5672 9.07534 46.127 8.90154 44.7115L8.30601 44.7846ZM9.37278 53.4727L8.77726 53.5458C8.95878 55.0242 9.14302 56.5247 9.32986 58.0464L9.92539 57.9733L10.5209 57.9002C10.3341 56.3785 10.1498 54.878 9.96831 53.3996L9.37278 53.4727ZM10.4508 62.2524L9.85528 62.3255C10.0325 63.7687 10.2118 65.2294 10.3933 66.707L10.9888 66.6339L11.5843 66.5607C11.4029 65.0832 11.2235 63.6225 11.0463 62.1793L10.4508 62.2524ZM11.5392 71.1166L10.9437 71.1898C11.1178 72.6081 11.2937 74.0407 11.4713 75.4872L12.0669 75.4141L12.6624 75.3409C12.4848 73.8945 12.3089 72.4618 12.1347 71.0435L11.5392 71.1166ZM12.6037 79.7862L12.0082 79.8593C12.1888 81.33 12.371 82.814 12.5547 84.3107L13.1503 84.2375L13.7458 84.1644C13.562 82.6678 13.3798 81.1838 13.1992 79.713L12.6037 79.7862ZM13.6841 88.5851L13.0886 88.6583C13.2655 90.099 13.4437 91.5507 13.6232 93.0129L14.2188 92.9398L14.8143 92.8666C14.6348 91.4045 14.4565 89.9528 14.2796 88.512L13.6841 88.5851ZM14.7612 97.3573L14.1656 97.4304C14.3449 98.8905 14.5254 100.36 14.707 101.839L15.3025 101.766L15.8981 101.693C15.7164 100.214 15.536 98.7442 15.3567 97.2842L14.7612 97.3573ZM15.835 106.103L15.2395 106.176C15.418 107.63 15.5976 109.092 15.7781 110.563L16.3736 110.49L16.9692 110.416C16.7886 108.946 16.609 107.484 16.4305 106.03L15.835 106.103ZM16.9181 114.924L16.3226 114.997C16.4999 116.442 16.6781 117.893 16.8572 119.351L17.4527 119.278L18.0482 119.205C17.8692 117.747 17.691 116.295 17.5137 114.851L16.9181 114.924ZM17.9883 123.64L17.3928 123.713C17.5721 125.174 17.7522 126.64 17.9331 128.113L18.5286 128.04L19.1241 127.967C18.9433 126.494 18.7632 125.027 18.5838 123.567L17.9883 123.64ZM19.0716 132.462L18.476 132.535C18.6532 133.978 18.8311 135.427 19.0095 136.88L19.605 136.807L20.2006 136.734C20.0221 135.281 19.8443 133.832 19.6671 132.389L19.0716 132.462ZM20.1422 141.182L19.5467 141.255C19.7263 142.718 19.9066 144.186 20.0873 145.658L20.6829 145.585L21.2784 145.512C21.0976 144.04 20.9174 142.572 20.7377 141.109L20.1422 141.182ZM21.223 149.984L20.6275 150.057C20.8054 151.507 20.9838 152.96 21.1627 154.417L21.7582 154.344L22.3538 154.27C22.1749 152.814 21.9965 151.36 21.8185 149.911L21.223 149.984ZM22.2961 158.724L21.7006 158.797C21.8803 160.261 22.0604 161.728 22.2409 163.198L22.8364 163.125L23.432 163.052C23.2515 161.582 23.0714 160.115 22.8917 158.651L22.2961 158.724ZM23.3753 167.514L22.7798 167.587C22.9583 169.041 23.1371 170.497 23.3163 171.956L23.9118 171.883L24.5073 171.81C24.3282 170.351 24.1494 168.894 23.9709 167.44L23.3753 167.514ZM24.4499 176.265L23.8544 176.339C24.034 177.802 24.2139 179.267 24.394 180.734L24.9896 180.66L25.5851 180.587C25.405 179.121 25.2251 177.655 25.0455 176.192L24.4499 176.265ZM25.5281 185.046L24.9325 185.119C25.1115 186.577 25.2906 188.036 25.4699 189.496L26.0654 189.423L26.661 189.35C26.4817 187.89 26.3026 186.431 26.1236 184.973L25.5281 185.046ZM26.6036 193.806L26.0081 193.879C26.1876 195.341 26.3672 196.804 26.5469 198.267L27.1425 198.194L27.738 198.121C27.5583 196.658 27.3787 195.195 27.1992 193.733L26.6036 193.806ZM27.681 202.58L27.0855 202.653C27.2648 204.114 27.4442 205.575 27.6236 207.036L28.2192 206.963L28.8147 206.89C28.6353 205.429 28.4559 203.968 28.2765 202.507L27.681 202.58ZM28.7573 211.346L28.1618 211.419C28.3411 212.88 28.5205 214.341 28.6997 215.801L29.2953 215.727L29.8908 215.654C29.7115 214.194 29.5322 212.734 29.3528 211.273L28.7573 211.346ZM29.834 220.115L29.2384 220.188C29.4182 221.652 29.5978 223.115 29.7774 224.577L30.3729 224.504L30.9684 224.431C30.7889 222.969 30.6093 221.506 30.4295 220.042L29.834 220.115ZM30.9109 228.886L30.3154 228.959C30.4946 230.419 30.6736 231.877 30.8524 233.333L31.448 233.26L32.0435 233.187C31.8647 231.73 31.6857 230.272 31.5065 228.813L30.9109 228.886ZM31.9871 237.65L31.3915 237.724C31.5717 239.191 31.7515 240.655 31.9311 242.118L32.5267 242.045L33.1222 241.972C32.9426 240.509 32.7627 239.044 32.5826 237.577L31.9871 237.65ZM33.0645 246.425L32.469 246.499C32.648 247.956 32.8266 249.411 33.0049 250.863L33.6004 250.79L34.196 250.717C34.0177 249.265 33.839 247.81 33.66 246.352L33.0645 246.425ZM34.1404 255.188L33.5449 255.261C33.7253 256.731 33.9054 258.197 34.085 259.66L34.6805 259.586L35.276 259.513C35.0964 258.051 34.9164 256.584 34.736 255.115L34.1404 255.188ZM35.2179 263.963L34.6223 264.036C34.801 265.491 34.9792 266.942 35.1568 268.389L35.7523 268.316L36.3479 268.243C36.1702 266.796 35.992 265.345 35.8134 263.89L35.2179 263.963ZM36.2942 272.729L35.6987 272.803C35.8794 274.274 36.0594 275.74 36.2388 277.201L36.8344 277.128L37.4299 277.055C37.2505 275.594 37.0704 274.128 36.8898 272.656L36.2942 272.729ZM37.3707 281.497L36.7752 281.57C36.9538 283.025 37.1318 284.474 37.309 285.917L37.9045 285.844L38.5001 285.771C38.3228 284.328 38.1449 282.878 37.9662 281.423L37.3707 281.497ZM38.4487 290.276L37.8531 290.349C38.0337 291.82 38.2135 293.284 38.3925 294.742L38.988 294.668L39.5835 294.595C39.4046 293.138 39.2248 291.674 39.0442 290.203L38.4487 290.276ZM39.5223 299.02L38.9268 299.093C39.107 300.561 39.2863 302.021 39.4646 303.473L40.0601 303.4L40.6557 303.327C40.4773 301.875 40.298 300.414 40.1178 298.947L39.5223 299.02ZM40.6035 307.826L40.008 307.899C40.1881 309.365 40.3671 310.823 40.545 312.273L41.1405 312.199L41.7361 312.126C41.5581 310.677 41.3791 309.219 41.199 307.752L40.6035 307.826ZM41.671 316.519L41.0754 316.592C41.2588 318.086 41.4408 319.569 41.6216 321.041L42.2171 320.968L42.8127 320.895C42.6319 319.422 42.4498 317.939 42.2665 316.446L41.671 316.519ZM42.7575 325.368L42.1619 325.441C42.3407 326.897 42.5181 328.342 42.694 329.775L43.2895 329.701L43.885 329.628C43.7091 328.195 43.5317 326.751 43.353 325.295L42.7575 325.368ZM43.8297 334.101L43.2342 334.174C43.4171 335.664 43.5983 337.14 43.7779 338.602L44.3734 338.529L44.9689 338.456C44.7894 336.994 44.6082 335.518 44.4252 334.028L43.8297 334.101ZM44.9066 342.872L44.3111 342.945C44.4918 344.416 44.6705 345.872 44.8473 347.312L45.4428 347.239L46.0384 347.166C45.8616 345.726 45.6828 344.27 45.5021 342.799L44.9066 342.872ZM45.989 351.687L45.3935 351.761C45.5734 353.225 45.751 354.672 45.9263 356.1L46.5218 356.027L47.1174 355.954C46.9421 354.526 46.7644 353.079 46.5846 351.614L45.989 351.687ZM47.0587 360.4L46.4632 360.473C46.6481 361.979 46.8302 363.461 47.0093 364.92L47.6049 364.847L48.2004 364.774C48.0212 363.315 47.8392 361.832 47.6543 360.326L47.0587 360.4ZM48.1333 369.152L47.5378 369.225C47.7232 370.734 47.905 372.215 48.0832 373.667L48.6788 373.594L49.2743 373.521C49.0961 372.069 48.9142 370.588 48.7289 369.078L48.1333 369.152ZM49.2184 377.989L48.6229 378.062C48.8033 379.531 48.9796 380.967 49.1515 382.367L49.747 382.294L50.3425 382.221C50.1706 380.821 49.9944 379.385 49.8139 377.916L49.2184 377.989ZM50.2981 386.783L49.7026 386.856C49.881 388.309 50.0539 389.717 50.2212 391.079L50.8167 391.006L51.4122 390.933C51.245 389.571 51.072 388.162 50.8937 386.709L50.2981 386.783ZM51.3759 395.56L50.7804 395.634C50.963 397.121 51.1374 398.541 51.303 399.89L51.8986 399.817L52.4941 399.744C52.3284 398.395 52.1541 396.975 51.9714 395.487L51.3759 395.56ZM52.4497 404.306L51.8542 404.379C52.0526 405.995 52.234 407.473 52.3975 408.804L52.993 408.731L53.5885 408.658C53.4251 407.327 53.2437 405.849 53.0452 404.233L52.4497 404.306Z" fill="var(--stroke-0, #4E4E4E)"/>
</svg>
