<svg preserveAspectRatio="none" width="100%" height="100%" overflow="visible" style="display: block;" viewBox="0 0 245.6 254.664" fill="none" xmlns="http://www.w3.org/2000/svg">
<path id="Vector 110" d="M132.8 3.2C132.8 4.96731 134.233 6.4 136 6.4C137.767 6.4 139.2 4.96731 139.2 3.2C139.2 1.43269 137.767 0 136 0C134.233 0 132.8 1.43269 132.8 3.2ZM0 251.2L6 254.664V247.736L0 251.2ZM6.69444 251.2V251.8H11.1574V251.2V250.6H6.69444V251.2ZM15.6204 251.2V251.8H20.0833V251.2V250.6H15.6204V251.2ZM24.5463 251.2V251.8H29.0093V251.2V250.6H24.5463V251.2ZM33.4722 251.2V251.8H37.9352V251.2V250.6H33.4722V251.2ZM42.3981 251.2V251.8H46.8611V251.2V250.6H42.3981V251.2ZM51.3241 251.2V251.8H55.787V251.2V250.6H51.3241V251.2ZM60.25 251.2V251.8H64.713V251.2V250.6H60.25V251.2ZM69.1759 251.2V251.8H73.6389V251.2V250.6H69.1759V251.2ZM78.1019 251.2V251.8H82.5648V251.2V250.6H78.1019V251.2ZM87.0278 251.2V251.8H91.4908V251.2V250.6H87.0278V251.2ZM95.9537 251.2V251.8H100.417V251.2V250.6H95.9537V251.2ZM104.88 251.2V251.8H109.343V251.2V250.6H104.88V251.2ZM113.806 251.2V251.8H118.269V251.2V250.6H113.806V251.2ZM122.732 251.2V251.8H127.195V251.2V250.6H122.732V251.2ZM131.657 251.2V251.8H136.12V251.2V250.6H131.657V251.2ZM140.583 251.2V251.8H145.046V251.2V250.6H140.583V251.2ZM149.509 251.2V251.8H153.972V251.2V250.6H149.509V251.2ZM158.435 251.2V251.8H162.898V251.2V250.6H158.435V251.2ZM167.361 251.2V251.8H171.824V251.2V250.6H167.361V251.2ZM176.287 251.2V251.8H180.75V251.2V250.6H176.287V251.2ZM185.213 251.2V251.8H189.676V251.2V250.6H185.213V251.2ZM194.139 251.2V251.8H198.602V251.2V250.6H194.139V251.2ZM203.065 251.2V251.8H207.528V251.2V250.6H203.065V251.2ZM211.991 251.2V251.8H216.454V251.2V250.6H211.991V251.2ZM220.917 251.2V251.8H225.38V251.2V250.6H220.917V251.2ZM229.843 251.2V251.8H234.306V251.2V250.6H229.843V251.2ZM238.769 251.2V251.8H241V251.2V250.6H238.769V251.2ZM241 251.2V251.8C241.623 251.8 242.218 251.676 242.761 251.451L242.531 250.896L242.301 250.342C241.901 250.508 241.462 250.6 241 250.6V251.2ZM244.696 248.731L245.251 248.961C245.476 248.418 245.6 247.823 245.6 247.2H245H244.4C244.4 247.662 244.308 248.101 244.142 248.501L244.696 248.731ZM245 247.2H245.6V244.978H245H244.4V247.2H245ZM245 240.533H245.6V236.089H245H244.4V240.533H245ZM245 231.644H245.6V227.2H245H244.4V231.644H245ZM245 222.756H245.6V218.311H245H244.4V222.756H245ZM245 213.867H245.6V209.422H245H244.4V213.867H245ZM245 204.978H245.6V200.533H245H244.4V204.978H245ZM245 196.089H245.6V191.644H245H244.4V196.089H245ZM245 187.2H245.6V182.756H245H244.4V187.2H245ZM245 178.311H245.6V173.867H245H244.4V178.311H245ZM245 169.422H245.6V164.978H245H244.4V169.422H245ZM245 160.533H245.6V156.089H245H244.4V160.533H245ZM245 151.644H245.6V147.2H245H244.4V151.644H245ZM245 142.756H245.6V138.311H245H244.4V142.756H245ZM245 133.867H245.6V129.422H245H244.4V133.867H245ZM245 124.978H245.6V120.533H245H244.4V124.978H245ZM245 116.089H245.6V111.644H245H244.4V116.089H245ZM245 107.2H245.6V102.756H245H244.4V107.2H245ZM245 98.3112H245.6V93.8667H245H244.4V98.3112H245ZM245 89.4223H245.6V84.9778H245H244.4V89.4223H245ZM245 80.5334H245.6V76.0889H245H244.4V80.5334H245ZM245 71.6445H245.6V67.2H245H244.4V71.6445H245ZM245 62.7556H245.6V58.3112H245H244.4V62.7556H245ZM245 53.8667H245.6V49.4223H245H244.4V53.8667H245ZM245 44.9778H245.6V40.5334H245H244.4V44.9778H245ZM245 36.089H245.6V31.6445H245H244.4V36.089H245ZM245 27.2001H245.6V22.7556H245H244.4V27.2001H245ZM245 18.3112H245.6V13.8667H245H244.4V18.3112H245ZM245 9.42229H245.6V7.2H245H244.4V9.42229H245ZM245 7.2H245.6C245.6 6.57738 245.476 5.98222 245.251 5.43902L244.696 5.66885L244.142 5.89868C244.308 6.29873 244.4 6.73788 244.4 7.2H245ZM242.531 3.50352L242.761 2.94929C242.218 2.72403 241.623 2.6 241 2.6V3.2V3.8C241.462 3.8 241.901 3.89186 242.301 4.05776L242.531 3.50352ZM241 3.2V2.6H238.812V3.2V3.8H241V3.2ZM234.438 3.2V2.6H230.062V3.2V3.8H234.438V3.2ZM225.688 3.2V2.6H221.312V3.2V3.8H225.688V3.2ZM216.938 3.2V2.6H212.562V3.2V3.8H216.938V3.2ZM208.188 3.2V2.6H203.812V3.2V3.8H208.188V3.2ZM199.438 3.2V2.6H195.062V3.2V3.8H199.438V3.2ZM190.688 3.2V2.6H186.312V3.2V3.8H190.688V3.2ZM181.938 3.2V2.6H177.562V3.2V3.8H181.938V3.2ZM173.188 3.2V2.6H168.812V3.2V3.8H173.188V3.2ZM164.438 3.2V2.6H160.062V3.2V3.8H164.438V3.2ZM155.688 3.2V2.6H151.312V3.2V3.8H155.688V3.2ZM146.938 3.2V2.6H142.562V3.2V3.8H146.938V3.2ZM138.188 3.2V2.6H136V3.2V3.8H138.188V3.2Z" fill="var(--stroke-0, #4E4E4E)"/>
</svg>
