<svg preserveAspectRatio="none" width="100%" height="100%" overflow="visible" style="display: block;" viewBox="0 0 371.657 144.451" fill="none" xmlns="http://www.w3.org/2000/svg">
<path id="Vector 96" d="M365.257 141.251C365.257 143.019 366.689 144.451 368.457 144.451C370.224 144.451 371.657 143.019 371.657 141.251C371.657 139.484 370.224 138.051 368.457 138.051C366.689 138.051 365.257 139.484 365.257 141.251ZM0 4.1329L6.35945 6.88198L5.5605 0L0 4.1329ZM6.69827 3.44512L6.74747 4.0431C8.21129 3.92268 9.66239 3.82327 11.1011 3.74441L11.0683 3.1453L11.0354 2.5462C9.58571 2.62567 8.12371 2.72583 6.64908 2.84714L6.69827 3.44512ZM15.4887 2.96587L15.5045 3.56566C16.9964 3.52653 18.4749 3.50974 19.9404 3.51474L19.9425 2.91474L19.9445 2.31475C18.4671 2.30971 16.9767 2.32663 15.473 2.36607L15.4887 2.96587ZM24.3185 2.99491L24.2985 3.59457C25.7858 3.64418 27.2596 3.71645 28.7205 3.81077L28.7592 3.21202L28.7978 2.61326C27.3245 2.51814 25.8382 2.44526 24.3385 2.39524L24.3185 2.99491ZM33.1778 3.56738L33.1202 4.16461C34.5749 4.30486 36.0168 4.46713 37.4463 4.65081L37.5228 4.0557L37.5992 3.4606C36.1572 3.27531 34.7027 3.11161 33.2354 2.97014L33.1778 3.56738ZM41.9432 4.69715L41.8473 5.28944C43.3015 5.52479 44.7429 5.78239 46.1723 6.06154L46.2873 5.47267L46.4023 4.88379C44.9603 4.60217 43.5061 4.34229 42.0391 4.10485L41.9432 4.69715ZM50.6046 6.38873L50.4706 6.97357C51.9125 7.30399 53.3422 7.65637 54.7602 8.02995L54.9131 7.44975L55.0659 6.86955C53.6355 6.4927 52.1933 6.13722 50.7386 5.80389L50.6046 6.38873ZM59.151 8.63855L58.9799 9.21362C60.3958 9.63504 61.8004 10.0776 63.1941 10.5404L63.3832 9.97094L63.5723 9.40152C62.1668 8.93481 60.7503 8.48853 59.3222 8.06348L59.151 8.63855ZM67.5573 11.4283L67.3509 11.9917C68.7307 12.497 70.1001 13.0221 71.4598 13.5661L71.6827 13.0091L71.9056 12.452C70.5351 11.9037 69.1547 11.3744 67.7636 10.8649L67.5573 11.4283ZM75.7694 14.7126L75.5307 15.2631C76.8782 15.8473 78.2165 16.4499 79.5462 17.0701L79.7998 16.5263L80.0534 15.9825C78.714 15.3579 77.3658 14.7508 76.008 14.1621L75.7694 14.7126ZM83.7838 18.4484L83.5161 18.9854C84.8313 19.641 86.1385 20.3134 87.4382 21.0018L87.7191 20.4715L87.9999 19.9413C86.6917 19.2485 85.3758 18.5715 84.0514 17.9114L83.7838 18.4484ZM91.6026 22.5871L91.3095 23.1106C92.5906 23.8277 93.8648 24.5598 95.1328 25.3062L95.4372 24.7891L95.7415 24.272C94.4663 23.5214 93.1845 22.7849 91.8956 22.0635L91.6026 22.5871ZM99.2336 27.0766L98.9188 27.5874C100.166 28.3562 101.408 29.1382 102.645 29.9327L102.969 29.4279L103.293 28.9231C102.051 28.1247 100.802 27.3387 99.5484 26.5659L99.2336 27.0766ZM106.674 31.8537L106.341 32.3529C107.563 33.1677 108.78 33.9942 109.994 34.8315L110.334 34.3377L110.675 33.8438C109.457 33.0031 108.234 32.1731 107.007 31.3546L106.674 31.8537ZM113.954 36.8739L113.606 37.3629C114.807 38.2169 116.005 39.0809 117.2 39.9541L117.554 39.4696L117.908 38.9852C116.709 38.1091 115.507 37.2421 114.302 36.385L113.954 36.8739ZM121.1 42.0919L120.741 42.5724C121.919 43.4535 123.094 44.3428 124.269 45.2397L124.633 44.7629L124.997 44.286C123.82 43.3869 122.641 42.4951 121.46 41.6115L121.1 42.0919ZM128.139 47.4651L127.771 47.9388C128.929 48.8396 130.087 49.7471 131.245 50.6606L131.617 50.1896L131.988 49.7186C130.829 48.8035 129.668 47.8942 128.507 46.9914L128.139 47.4651ZM135.091 52.9491L134.717 53.4179C135.863 54.3335 137.009 55.2542 138.156 56.1793L138.533 55.7123L138.91 55.2452C137.762 54.3191 136.614 53.3973 135.466 52.4804L135.091 52.9491ZM141.973 58.4971L141.595 58.9628C142.739 59.8919 143.884 60.8247 145.03 61.7604L145.41 61.2956L145.789 60.8307C144.642 59.8945 143.496 58.9612 142.351 58.0314L141.973 58.4971ZM148.829 64.0889L148.449 64.5533C149.59 65.4866 150.734 66.4227 151.88 67.3598L152.26 66.8953L152.639 66.4309C151.493 65.4935 150.35 64.5582 149.208 63.6244L148.829 64.0889ZM155.684 69.6924L155.304 70.1573C156.444 71.0873 157.587 72.0183 158.734 72.9495L159.112 72.4837L159.491 72.0179C158.345 71.0874 157.202 70.1571 156.063 69.2275L155.684 69.6924ZM162.562 75.2761L162.185 75.7431C163.329 76.6651 164.476 77.5867 165.627 78.5072L166.002 78.0386L166.376 77.5699C165.226 76.6506 164.081 75.7301 162.939 74.8091L162.562 75.2761ZM169.467 80.7938L169.095 81.2644C170.252 82.1794 171.414 83.0927 172.581 84.0038L172.951 83.5307L173.32 83.0577C172.154 82.1484 170.994 81.2366 169.839 80.3231L169.467 80.7938ZM176.441 86.2347L176.076 86.7105C177.246 87.61 178.422 88.5067 179.604 89.3999L179.966 88.9212L180.328 88.4424C179.148 87.5514 177.975 86.6567 176.807 85.759L176.441 86.2347ZM183.506 91.5708L183.149 92.0529C184.332 92.9296 185.521 93.8024 186.718 94.6705L187.07 94.1848L187.423 93.6992C186.23 92.8336 185.043 91.9633 183.864 91.0888L183.506 91.5708ZM190.675 96.7708L190.328 97.2603C191.528 98.1108 192.735 98.9561 193.95 99.7957L194.291 99.3022L194.632 98.8086C193.421 97.9718 192.218 97.1292 191.022 96.2814L190.675 96.7708ZM197.946 101.795L197.611 102.293C198.838 103.118 200.073 103.937 201.317 104.75L201.645 104.247L201.973 103.745C200.734 102.936 199.503 102.119 198.28 101.297L197.946 101.795ZM205.352 106.632L205.031 107.139C206.278 107.928 207.533 108.71 208.798 109.484L209.111 108.972L209.424 108.461C208.165 107.69 206.915 106.911 205.673 106.125L205.352 106.632ZM212.909 111.257L212.604 111.774C213.869 112.521 215.143 113.26 216.426 113.991L216.723 113.469L217.02 112.948C215.742 112.221 214.474 111.485 213.214 110.741L212.909 111.257ZM220.594 115.629L220.307 116.156C221.6 116.863 222.904 117.562 224.218 118.25L224.496 117.719L224.775 117.187C223.467 116.502 222.17 115.807 220.882 115.103L220.594 115.629ZM228.42 119.731L228.151 120.267C229.473 120.93 230.805 121.583 232.148 122.225L232.407 121.684L232.665 121.142C231.329 120.503 230.004 119.854 228.689 119.195L228.42 119.731ZM236.412 123.553L236.163 124.099C237.499 124.707 238.846 125.305 240.204 125.892L240.442 125.341L240.68 124.79C239.329 124.207 237.99 123.612 236.66 123.007L236.412 123.553ZM244.539 127.063L244.312 127.619C245.672 128.175 247.044 128.72 248.427 129.254L248.643 128.694L248.859 128.134C247.483 127.603 246.119 127.061 244.766 126.508L244.539 127.063ZM252.77 130.239L252.566 130.803C253.956 131.307 255.359 131.8 256.773 132.281L256.966 131.713L257.16 131.145C255.753 130.667 254.358 130.177 252.975 129.675L252.77 130.239ZM261.162 133.092L260.981 133.664C262.376 134.107 263.783 134.537 265.201 134.956L265.371 134.38L265.54 133.805C264.13 133.389 262.731 132.96 261.344 132.52L261.162 133.092ZM269.649 135.595L269.491 136.174C270.911 136.562 272.343 136.937 273.787 137.299L273.933 136.717L274.079 136.136C272.643 135.775 271.219 135.402 269.807 135.016L269.649 135.595ZM278.201 137.743L278.067 138.328C279.505 138.658 280.954 138.976 282.416 139.281L282.539 138.694L282.661 138.106C281.207 137.803 279.765 137.487 278.335 137.159L278.201 137.743ZM286.913 139.56L286.803 140.15C288.229 140.418 289.667 140.673 291.116 140.916L291.215 140.324L291.314 139.733C289.873 139.491 288.443 139.237 287.024 138.971L286.913 139.56ZM295.586 141.013L295.498 141.607C296.971 141.824 298.455 142.028 299.951 142.22L300.027 141.624L300.104 141.029C298.615 140.839 297.138 140.636 295.674 140.419L295.586 141.013ZM304.372 142.139L304.307 142.735C305.758 142.893 307.22 143.039 308.694 143.172L308.748 142.574L308.802 141.977C307.335 141.844 305.88 141.699 304.437 141.542L304.372 142.139ZM313.192 142.934L313.149 143.533C314.623 143.639 316.109 143.732 317.606 143.813L317.638 143.214L317.67 142.615C316.18 142.535 314.702 142.441 313.235 142.336L313.192 142.934ZM321.992 143.411L321.97 144.011C323.435 144.064 324.912 144.106 326.399 144.135L326.411 143.535L326.422 142.936C324.942 142.906 323.473 142.865 322.014 142.811L321.992 143.411ZM330.895 143.586L330.893 144.186C332.355 144.19 333.827 144.182 335.31 144.163L335.302 143.563L335.294 142.963C333.818 142.982 332.352 142.99 330.897 142.986L330.895 143.586ZM339.67 143.471L339.687 144.07C341.156 144.028 342.635 143.974 344.125 143.908L344.099 143.308L344.072 142.709C342.588 142.775 341.115 142.828 339.652 142.871L339.67 143.471ZM348.59 143.075L348.626 143.674C350.08 143.587 351.543 143.489 353.016 143.38L352.972 142.781L352.928 142.183C351.46 142.292 350.002 142.389 348.555 142.476L348.59 143.075ZM357.323 142.428L357.376 143.026C358.839 142.897 360.311 142.756 361.794 142.605L361.733 142.008L361.672 141.411C360.195 141.562 358.728 141.702 357.271 141.83L357.323 142.428ZM366.201 141.521L366.27 142.117C367.021 142.03 367.774 141.94 368.53 141.847L368.457 141.251L368.383 140.656C367.63 140.748 366.88 140.838 366.131 140.925L366.201 141.521Z" fill="var(--stroke-0, #4E4E4E)"/>
</svg>
