<svg preserveAspectRatio="none" width="100%" height="100%" overflow="visible" style="display: block;" viewBox="0 0 32.1662 59.4688" fill="none" xmlns="http://www.w3.org/2000/svg">
<g id="Ellipse">
<mask id="path-1-inside-1_0_17" fill="white">
<path d="M22.2734 59.4688C17.1789 56.753 12.6981 53.0174 9.10993 48.4946C5.52179 43.9719 2.90317 38.7589 1.41716 33.1802C-0.0688543 27.6015 -0.390448 21.7766 0.472404 16.0682C1.33526 10.3599 3.36408 4.89025 6.43253 -4.87415e-07L24.2458 11.1771C22.7115 13.6223 21.6971 16.3571 21.2657 19.2113C20.8343 22.0654 20.9951 24.9779 21.7381 27.7672C22.4811 30.5566 23.7904 33.1631 25.5845 35.4245C27.3785 37.6858 29.619 39.5536 32.1662 40.9116L22.2734 59.4688Z"/>
</mask>
<path d="M22.2734 59.4688C17.1789 56.753 12.6981 53.0174 9.10993 48.4946C5.52179 43.9719 2.90317 38.7589 1.41716 33.1802C-0.0688543 27.6015 -0.390448 21.7766 0.472404 16.0682C1.33526 10.3599 3.36408 4.89025 6.43253 -4.87415e-07L24.2458 11.1771C22.7115 13.6223 21.6971 16.3571 21.2657 19.2113C20.8343 22.0654 20.9951 24.9779 21.7381 27.7672C22.4811 30.5566 23.7904 33.1631 25.5845 35.4245C27.3785 37.6858 29.619 39.5536 32.1662 40.9116L22.2734 59.4688Z" fill="var(--fill-0, #4C6AFF)" stroke="var(--stroke-0, white)" stroke-width="1.29213" mask="url(#path-1-inside-1_0_17)"/>
</g>
</svg>
