<svg preserveAspectRatio="none" width="100%" height="100%" overflow="visible" style="display: block;" viewBox="0 0 320.664 96.2" fill="none" xmlns="http://www.w3.org/2000/svg">
<path id="Vector 103" d="M0 93C0 94.7673 1.43269 96.2 3.2 96.2C4.96731 96.2 6.4 94.7673 6.4 93C6.4 91.2327 4.96731 89.8 3.2 89.8C1.43269 89.8 0 91.2327 0 93ZM317.2 0L313.736 6H320.664L317.2 0ZM3.2 93V93.6H5.18718V93V92.4H3.2V93ZM9.16154 93V93.6H13.1359V93V92.4H9.16154V93ZM17.1103 93V93.6H21.0846V93V92.4H17.1103V93ZM25.059 93V93.6H29.0333V93V92.4H25.059V93ZM33.0077 93V93.6H36.9821V93V92.4H33.0077V93ZM40.9564 93V93.6H44.9308V93V92.4H40.9564V93ZM48.9051 93V93.6H52.8795V93V92.4H48.9051V93ZM56.8538 93V93.6H60.8282V93V92.4H56.8538V93ZM64.8026 93V93.6H68.7769V93V92.4H64.8026V93ZM72.7513 93V93.6H76.7256V93V92.4H72.7513V93ZM80.7 93V93.6H84.6744V93V92.4H80.7V93ZM88.6487 93V93.6H92.6231V93V92.4H88.6487V93ZM96.5974 93V93.6H100.572V93V92.4H96.5974V93ZM104.546 93V93.6H108.52V93V92.4H104.546V93ZM112.495 93V93.6H116.469V93V92.4H112.495V93ZM120.444 93V93.6H124.418V93V92.4H120.444V93ZM128.392 93V93.6H132.367V93V92.4H128.392V93ZM136.341 93V93.6H140.315V93V92.4H136.341V93ZM144.29 93V93.6H148.264V93V92.4H144.29V93ZM152.238 93V93.6H156.213V93V92.4H152.238V93ZM160.187 93V93.6H164.162V93V92.4H160.187V93ZM168.136 93V93.6H172.11V93V92.4H168.136V93ZM176.085 93V93.6H180.059V93V92.4H176.085V93ZM184.033 93V93.6H188.008V93V92.4H184.033V93ZM191.982 93V93.6H195.957V93V92.4H191.982V93ZM199.931 93V93.6H203.905V93V92.4H199.931V93ZM207.88 93V93.6H211.854V93V92.4H207.88V93ZM215.828 93V93.6H219.803V93V92.4H215.828V93ZM223.777 93V93.6H227.751V93V92.4H223.777V93ZM231.726 93V93.6H235.7V93V92.4H231.726V93ZM239.675 93V93.6H243.649V93V92.4H239.675V93ZM247.623 93V93.6H251.598V93V92.4H247.623V93ZM255.572 93V93.6H259.546V93V92.4H255.572V93ZM263.521 93V93.6H267.495V93V92.4H263.521V93ZM271.469 93V93.6H275.444V93V92.4H271.469V93ZM279.418 93V93.6H283.393V93V92.4H279.418V93ZM287.367 93V93.6H291.341V93V92.4H287.367V93ZM295.316 93V93.6H299.29V93V92.4H295.316V93ZM303.264 93V93.6H307.239V93V92.4H303.264V93ZM311.213 93V93.6H313.2V93V92.4H311.213V93ZM313.2 93V93.6C313.823 93.6 314.418 93.476 314.961 93.2507L314.731 92.6965L314.501 92.1422C314.101 92.3081 313.662 92.4 313.2 92.4V93ZM316.896 90.5312L317.451 90.761C317.676 90.2178 317.8 89.6226 317.8 89H317.2H316.6C316.6 89.4621 316.508 89.9013 316.342 90.3013L316.896 90.5312ZM317.2 89H317.8V87.028H317.2H316.6V89H317.2ZM317.2 83.084H317.8V79.14H317.2H316.6V83.084H317.2ZM317.2 75.196H317.8V71.252H317.2H316.6V75.196H317.2ZM317.2 67.308H317.8V63.364H317.2H316.6V67.308H317.2ZM317.2 59.42H317.8V55.476H317.2H316.6V59.42H317.2ZM317.2 51.532H317.8V47.588H317.2H316.6V51.532H317.2ZM317.2 43.6439H317.8V39.6999H317.2H316.6V43.6439H317.2ZM317.2 35.7559H317.8V31.8119H317.2H316.6V35.7559H317.2ZM317.2 27.8679H317.8V23.9239H317.2H316.6V27.8679H317.2ZM317.2 19.9799H317.8V18.0079H317.2H316.6V19.9799H317.2ZM317.2 18.0079H317.8V15.7569H317.2H316.6V18.0079H317.2ZM317.2 11.2549H317.8V6.75297H317.2H316.6V11.2549H317.2Z" fill="var(--stroke-0, #4E4E4E)"/>
</svg>
