<svg preserveAspectRatio="none" width="100%" height="100%" overflow="visible" style="display: block;" viewBox="0 0 193.707 69.6972" fill="none" xmlns="http://www.w3.org/2000/svg">
<path id="Vector 91" d="M0 3.2C0 4.96731 1.43269 6.4 3.2 6.4C4.96731 6.4 6.4 4.96731 6.4 3.2C6.4 1.43269 4.96731 0 3.2 0C1.43269 0 0 1.43269 0 3.2ZM193.707 65.4467L187.29 62.8338L188.236 69.6972L193.707 65.4467ZM3.2 3.2L3.27312 3.79553C4.01175 3.70483 4.74836 3.62597 5.48302 3.55866L5.42828 2.96116L5.37353 2.36366C4.62664 2.4321 3.87777 2.51227 3.12688 2.60447L3.2 3.2ZM9.86091 2.69114L9.87915 3.29086C11.3582 3.24589 12.83 3.24641 14.2949 3.29009L14.3128 2.69035L14.3307 2.09062C12.8421 2.04624 11.3463 2.0457 9.84268 2.09141L9.86091 2.69114ZM18.7562 2.95355L18.7034 3.55122C20.171 3.68091 21.6323 3.85232 23.088 4.06305L23.1739 3.46924L23.2599 2.87543C21.7829 2.6616 20.2994 2.48758 18.809 2.35588L18.7562 2.95355ZM27.5595 4.22318L27.4426 4.81168C28.8858 5.09842 30.3239 5.42202 31.7576 5.78012L31.903 5.198L32.0484 4.61588C30.5966 4.25326 29.1394 3.92536 27.6765 3.63468L27.5595 4.22318ZM36.1921 6.37299L36.0209 6.94805C37.4293 7.36732 38.8339 7.81794 40.2352 8.29764L40.4295 7.72997L40.6239 7.16231C39.2079 6.67762 37.7879 6.22203 36.3633 5.79793L36.1921 6.37299ZM44.6165 9.25053L44.4017 9.81074C45.7748 10.3373 47.1452 10.8899 48.5135 11.4661L48.7464 10.9132L48.9793 10.3602C47.5997 9.7792 46.2172 9.22182 44.8314 8.69032L44.6165 9.25053ZM52.8182 12.6982L52.5696 13.2443C53.9092 13.854 55.2473 14.4844 56.5842 15.1335L56.8462 14.5937L57.1083 14.054C55.763 13.4009 54.416 12.7662 53.0667 12.1521L52.8182 12.6982ZM60.8348 16.5848L60.5613 17.1188C61.8713 17.79 63.1806 18.4771 64.4899 19.1781L64.7731 18.6492L65.0563 18.1202C63.7412 17.416 62.4254 16.7256 61.1084 16.0508L60.8348 16.5848ZM68.6789 20.7801L68.3877 21.3047C69.679 22.0215 70.9706 22.75 72.2629 23.4882L72.5605 22.9672L72.8581 22.4462C71.562 21.7058 70.2662 20.9749 68.9701 20.2555L68.6789 20.7801ZM76.4153 25.1948L76.1127 25.7129C77.388 26.4576 78.6643 27.2098 79.9422 27.9679L80.2483 27.4519L80.5545 26.9359C79.2746 26.1766 77.9959 25.4229 76.7178 24.6766L76.4153 25.1948ZM84.0732 29.7334L83.7648 30.2481C85.0349 31.0092 86.3069 31.7741 87.5813 32.5412L87.8908 32.0272L88.2002 31.5131C86.9255 30.7459 85.6528 29.9804 84.3815 29.2187L84.0732 29.7334ZM91.7023 34.3216L91.3931 34.8357C92.6634 35.5998 93.9365 36.3642 95.2126 37.1272L95.5205 36.6122L95.8284 36.0972C94.5535 35.335 93.2814 34.5712 92.0116 33.8074L91.7023 34.3216ZM99.3477 38.8886L99.0423 39.4051C100.319 40.1601 101.6 40.9121 102.885 41.6591L103.186 41.1404L103.488 40.6218C102.206 39.8764 100.928 39.1259 99.653 38.3721L99.3477 38.8886ZM107.045 43.3613L106.748 43.8827C108.039 44.6176 109.335 45.3459 110.635 46.0658L110.926 45.5409L111.217 45.016C109.921 44.2985 108.629 43.5726 107.342 42.8398L107.045 43.3613ZM114.835 47.6707L114.552 48.1996C115.863 48.9019 117.18 49.5941 118.502 50.2745L118.776 49.741L119.051 49.2075C117.735 48.5303 116.425 47.8411 115.119 47.1418L114.835 47.6707ZM122.752 51.7413L122.487 52.2798C123.824 52.9364 125.166 53.5794 126.515 54.207L126.768 53.663L127.021 53.1191C125.68 52.4952 124.346 51.8558 123.016 51.2028L122.752 51.7413ZM130.825 55.4943L130.585 56.0441C131.949 56.6404 133.321 57.2196 134.7 57.7799L134.925 57.2241L135.151 56.6682C133.783 56.112 132.421 55.5369 131.065 54.9445L130.825 55.4943ZM139.073 58.8422L138.863 59.4042C140.258 59.9256 141.661 60.4262 143.072 60.9044L143.265 60.3361L143.457 59.7678C142.058 59.2938 140.667 58.7973 139.283 58.2801L139.073 58.8422ZM147.503 61.6949L147.33 62.2693C148.756 62.7 150.19 63.1065 151.633 63.487L151.786 62.9068L151.939 62.3266C150.51 61.9499 149.089 61.5473 147.677 61.1205L147.503 61.6949ZM156.108 63.9605L155.977 64.546C157.43 64.8711 158.892 65.1687 160.364 65.4371L160.471 64.8468L160.579 64.2566C159.123 63.9911 157.677 63.6966 156.239 63.3749L156.108 63.9605ZM164.864 65.5551L164.781 66.1493C166.251 66.355 167.731 66.5307 169.221 66.6745L169.279 66.0773L169.336 65.4801C167.864 65.3379 166.401 65.1643 164.947 64.9609L164.864 65.5551ZM173.722 66.4085L173.691 67.0077C175.172 67.0853 176.662 67.1308 178.163 67.1426L178.168 66.5426L178.173 65.9426C176.69 65.931 175.217 65.886 173.754 65.8093L173.722 66.4085ZM182.61 66.4782L182.632 67.0778C184.117 67.023 185.611 66.9347 187.117 66.8114L187.068 66.2134L187.019 65.6154C185.531 65.7372 184.054 65.8245 182.587 65.8786L182.61 66.4782Z" fill="var(--stroke-0, #4E4E4E)"/>
</svg>
