<svg preserveAspectRatio="none" width="100%" height="100%" overflow="visible" style="display: block;" viewBox="0 0 203.694 30.525" fill="none" xmlns="http://www.w3.org/2000/svg">
<path id="Vector 93" d="M0 27.325C0 29.0923 1.43269 30.525 3.2 30.525C4.96731 30.525 6.4 29.0923 6.4 27.325C6.4 25.5577 4.96731 24.125 3.2 24.125C1.43269 24.125 0 25.5577 0 27.325ZM203.694 2.70706L197.317 0L198.161 6.87656L203.694 2.70706ZM3.2 27.325L3.27312 27.9206C4.00173 27.8311 4.72952 27.7417 5.45652 27.6525L5.38339 27.0569L5.31027 26.4614C4.58327 26.5507 3.85548 26.64 3.12688 26.7295L3.2 27.325ZM9.73907 26.5221L9.81219 27.1176C11.2682 26.9389 12.7213 26.7604 14.1719 26.5823L14.0987 25.9868L14.0256 25.3913C12.575 25.5694 11.1219 25.7478 9.66594 25.9266L9.73907 26.5221ZM18.4582 25.4515L18.5313 26.047C19.986 25.8684 21.4384 25.6901 22.8888 25.512L22.8157 24.9165L22.7426 24.3209C21.2921 24.499 19.8397 24.6774 18.3851 24.856L18.4582 25.4515ZM27.1722 24.3815L27.2453 24.9771C28.7002 24.7984 30.1535 24.62 31.6053 24.4417L31.5322 23.8462L31.4591 23.2506C30.0072 23.4289 28.554 23.6074 27.0991 23.786L27.1722 24.3815ZM35.8907 23.311L35.9638 23.9065C37.4173 23.7281 38.8698 23.5497 40.3216 23.3715L40.2484 22.7759L40.1753 22.1804C38.7236 22.3587 37.2711 22.537 35.8176 22.7155L35.8907 23.311ZM44.6066 22.2408L44.6797 22.8363C46.1328 22.6579 47.5856 22.4795 49.0383 22.3011L48.9651 21.7056L48.892 21.1101C47.4393 21.2885 45.9866 21.4668 44.5334 21.6453L44.6066 22.2408ZM53.3232 21.1705L53.3963 21.766C54.8488 21.5877 56.3015 21.4093 57.7547 21.2309L57.6816 20.6353L57.6085 20.0398C56.1552 20.2183 54.7025 20.3966 53.2501 20.575L53.3232 21.1705ZM62.0403 20.1002L62.1135 20.6957C63.5649 20.5175 65.0173 20.3391 66.4709 20.1606L66.3978 19.5651L66.3247 18.9696C64.8711 19.1481 63.4187 19.3264 61.9672 19.5046L62.0403 20.1002ZM70.7558 19.03L70.8289 19.6255C72.2805 19.4473 73.7335 19.2689 75.1884 19.0902L75.1153 18.4947L75.0422 17.8992C73.5873 18.0778 72.1342 18.2562 70.6827 18.4345L70.7558 19.03ZM79.4735 17.9596L79.5466 18.5551C80.9966 18.3771 82.4487 18.1988 83.9033 18.0202L83.8302 17.4246L83.7571 16.8291C82.3025 17.0077 80.8504 17.186 79.4004 17.3641L79.4735 17.9596ZM88.1888 16.8895L88.2619 17.485C89.7129 17.3068 91.1666 17.1283 92.6233 16.9495L92.5502 16.3539L92.4771 15.7584C91.0203 15.9373 89.5666 16.1158 88.1156 16.2939L88.1888 16.8895ZM96.9058 15.8191L96.9789 16.4147C98.4278 16.2368 99.88 16.0584 101.336 15.8797L101.263 15.2842L101.19 14.6886C99.7338 14.8674 98.2816 15.0457 96.8326 15.2236L96.9058 15.8191ZM105.623 14.7488L105.696 15.3443C107.145 15.1663 108.599 14.9879 110.056 14.809L109.983 14.2135L109.91 13.6179C108.452 13.7969 106.999 13.9753 105.55 14.1533L105.623 14.7488ZM114.337 13.6788L114.411 14.2743C115.859 14.0964 117.312 13.918 118.769 13.7391L118.696 13.1436L118.623 12.548C117.166 12.727 115.713 12.9054 114.264 13.0832L114.337 13.6788ZM123.061 12.6077L123.134 13.2032C124.58 13.0257 126.03 12.8476 127.486 12.6688L127.413 12.0733L127.34 11.4778C125.884 11.6565 124.433 11.8346 122.987 12.0122L123.061 12.6077ZM131.77 11.5383L131.843 12.1338C133.293 11.9558 134.747 11.7772 136.207 11.598L136.134 11.0025L136.061 10.4069C134.601 10.5862 133.146 10.7648 131.697 10.9428L131.77 11.5383ZM140.488 10.4678L140.562 11.0633C142.008 10.8857 143.46 10.7075 144.917 10.5285L144.844 9.93295L144.771 9.33743C143.314 9.5164 141.862 9.69467 140.415 9.87227L140.488 10.4678ZM149.209 9.39708L149.282 9.99261C150.728 9.81509 152.179 9.63687 153.637 9.45791L153.563 8.86238L153.49 8.26685C152.033 8.44581 150.581 8.62404 149.136 8.80156L149.209 9.39708ZM157.919 8.32758L157.992 8.92311C159.441 8.74518 160.896 8.5665 162.358 8.38705L162.285 7.79152L162.212 7.19599C160.75 7.37544 159.295 7.55412 157.846 7.73206L157.919 8.32758ZM166.637 7.25709L166.711 7.85262C168.156 7.67508 169.609 7.49677 171.067 7.31768L170.994 6.72215L170.921 6.12662C169.462 6.30572 168.01 6.48402 166.564 6.66156L166.637 7.25709ZM175.364 6.18565L175.437 6.78118C176.879 6.60405 178.328 6.42615 179.784 6.24743L179.711 5.6519L179.637 5.05637C178.182 5.23509 176.733 5.413 175.29 5.59012L175.364 6.18565ZM184.071 5.11652L184.144 5.71205C185.592 5.53431 187.046 5.35575 188.507 5.17637L188.434 4.58084L188.361 3.98531C186.9 4.1647 185.445 4.34325 183.998 4.52099L184.071 5.11652ZM192.784 4.04664L192.857 4.64217C194.306 4.46427 195.762 4.28553 197.225 4.10595L197.152 3.51042L197.078 2.91489C195.616 3.09448 194.16 3.27321 192.711 3.45112L192.784 4.04664Z" fill="var(--stroke-0, #4E4E4E)"/>
</svg>
