<svg preserveAspectRatio="none" width="100%" height="100%" overflow="visible" style="display: block;" viewBox="0 0 140.722 61.6525" fill="none" xmlns="http://www.w3.org/2000/svg">
<g id="&#230;&#138;&#152;&#231;&#186;&#191;">
<path id="Vector 14" d="M0.453588 43.4511C3.94896 39.491 8.17915 35.3674 13.164 35.8026C18.1489 36.2379 20.4924 40.8892 25.8745 42.2799C31.2565 43.6705 33.2426 43.0955 38.5849 43.6705C43.9273 44.2456 46.2112 43.4885 51.2953 45.2434C56.3795 46.9982 58.3059 58.2025 64.0058 54.6023C69.7056 51.0021 72.1087 29.2312 76.7162 25.9269C81.3238 22.6226 85.554 25.3392 89.4267 27.035C93.2994 28.7307 97.2118 34.1281 102.137 32.9308C107.062 31.7336 109.525 16.0348 114.848 19.3798C120.17 22.7249 121.62 46.9982 127.558 46.9982C133.496 46.9982 138.302 13.7163 140.268 0.453533" stroke="var(--stroke-0, #14C9C9)" stroke-width="0.906944" stroke-linecap="round" stroke-linejoin="round"/>
<path id="Vector 15" d="M0.453588 61.1989C3.94896 48.77 7.96069 38.1625 13.164 35.984C18.3674 33.8055 20.0555 51.5908 25.8745 48.77C31.6935 45.9493 34.1164 13.7629 38.5849 11.3644C43.0534 8.96593 45.9927 25.2214 51.2953 24.2695C56.598 23.3177 58.7429 1.68087 64.0058 6.52265C69.2687 11.3644 71.2746 33.5121 76.7162 36.1428C82.1579 38.7734 84.6801 23.9906 89.4267 25.5861C94.1732 27.1816 96.7749 45.1507 102.137 43.6181C107.499 42.0854 109.525 8.74565 114.848 16.5076C120.17 24.2695 121.183 63.061 127.558 60.3011C133.933 57.5411 137.647 24.2695 140.268 5.10199" stroke="var(--stroke-0, #165DFF)" stroke-width="0.906944" stroke-linecap="round" stroke-linejoin="round"/>
</g>
</svg>
