<svg preserveAspectRatio="none" width="100%" height="100%" overflow="visible" style="display: block;" viewBox="0 0 634.5 308.436" fill="none" xmlns="http://www.w3.org/2000/svg">
<path id="Vector 113" d="M0 0L1.20824 4.13465L4.18483 1.02096L0 0ZM315.195 301.316L314.937 301.586V301.586L315.195 301.316ZM349.31 300.853L349.575 301.116V301.116L349.31 300.853ZM634.5 13L630.344 14.1342L633.404 17.1659L634.5 13ZM2.42688 2.32002L2.1691 2.58968L314.937 301.586L315.195 301.316L315.453 301.047L2.68466 2.05037L2.42688 2.32002ZM349.31 300.853L349.575 301.116L632.402 15.6476L632.137 15.3851L631.872 15.1225L349.045 300.591L349.31 300.853ZM315.195 301.316L314.937 301.586C324.68 310.9 340.089 310.691 349.575 301.116L349.31 300.853L349.045 300.591C339.845 309.877 324.901 310.079 315.453 301.047L315.195 301.316Z" fill="url(#paint0_linear_0_9)"/>
<defs>
<linearGradient id="paint0_linear_0_9" x1="341.211" y1="15.9803" x2="322.547" y2="317.84" gradientUnits="userSpaceOnUse">
<stop stop-color="white" stop-opacity="0"/>
<stop offset="1" stop-color="white" stop-opacity="0.4"/>
</linearGradient>
</defs>
</svg>
