<svg preserveAspectRatio="none" width="100%" height="100%" overflow="visible" style="display: block;" viewBox="0 0 101.2 145.664" fill="none" xmlns="http://www.w3.org/2000/svg">
<path id="Vector 100" d="M0 142.464C0 144.231 1.43269 145.664 3.2 145.664C4.96731 145.664 6.4 144.231 6.4 142.464C6.4 140.697 4.96731 139.264 3.2 139.264C1.43269 139.264 0 140.697 0 142.464ZM101.2 3.4641L95.2 0V6.9282L101.2 3.4641ZM61.5005 142.464V141.864V142.464ZM3.2 142.464L3.2 143.064H5.28216L5.28216 142.464L5.28216 141.864H3.2L3.2 142.464ZM9.44648 142.464V143.064L13.6108 143.064V142.464V141.864H9.44648L9.44648 142.464ZM17.7751 142.464V143.064H21.9395V142.464V141.864H17.7751V142.464ZM26.1038 142.464V143.064H30.2681V142.464V141.864H26.1038V142.464ZM34.4324 142.464V143.064H38.5967V142.464V141.864H34.4324L34.4324 142.464ZM42.7611 142.464V143.064H46.9254V142.464V141.864H42.7611V142.464ZM51.0897 142.464V143.064H55.254V142.464V141.864H51.0897V142.464ZM59.4183 142.464V143.064H61.5005V142.464V141.864H59.4183V142.464ZM61.5005 142.464V143.064C62.1231 143.064 62.7183 142.94 63.2615 142.715L63.0317 142.161L62.8018 141.606C62.4018 141.772 61.9626 141.864 61.5005 141.864V142.464ZM65.197 139.995L65.7512 140.225C65.9765 139.682 66.1005 139.087 66.1005 138.464H65.5005H64.9005C64.9005 138.926 64.8087 139.365 64.6428 139.765L65.197 139.995ZM65.5005 138.464H66.1005V136.417H65.5005H64.9005V138.464H65.5005ZM65.5005 132.323H66.1005V128.23H65.5005H64.9005V132.323H65.5005ZM65.5005 124.136H66.1005V120.042H65.5005H64.9005V124.136H65.5005ZM65.5005 115.948H66.1005V111.855H65.5005H64.9005V115.948H65.5005ZM65.5005 107.761H66.1005V103.667H65.5005H64.9005V107.761H65.5005ZM65.5005 99.5735H66.1005V95.4797H65.5005H64.9005V99.5735H65.5005ZM65.5005 91.386H66.1005V87.2922H65.5005H64.9005V91.386H65.5005ZM65.5005 83.1985H66.1005V79.1047H65.5005H64.9005V83.1985H65.5005ZM65.5005 75.011H66.1005V70.9172H65.5005H64.9005V75.011H65.5005ZM65.5005 66.8235H66.1005V62.7297H65.5005H64.9005V66.8235H65.5005ZM65.5005 58.636H66.1005V54.5422H65.5005H64.9005V58.636H65.5005ZM65.5005 50.4485H66.1005V46.3547H65.5005H64.9005V50.4485H65.5005ZM65.5005 42.261H66.1005V38.1672H65.5005H64.9005V42.261H65.5005ZM65.5005 34.0735H66.1005V29.9797H65.5005H64.9005V34.0735H65.5005ZM65.5005 25.886H66.1005V21.7922H65.5005H64.9005V25.886H65.5005ZM65.5005 17.6985H66.1005V13.6047H65.5005H64.9005V17.6985H65.5005ZM65.5005 9.51098H66.1005V7.4641H65.5005H64.9005V9.51098H65.5005ZM65.5005 7.4641H66.1005C66.1005 7.00199 66.1924 6.56284 66.3583 6.16278L65.804 5.93295L65.2498 5.70312C65.0245 6.24633 64.9005 6.84149 64.9005 7.4641H65.5005ZM67.9694 3.76762L68.1992 4.32186C68.5993 4.15596 69.0384 4.0641 69.5005 4.0641V3.4641V2.8641C68.8779 2.8641 68.2827 2.98813 67.7395 3.21339L67.9694 3.76762ZM69.5005 3.4641V4.0641H71.4817V3.4641V2.8641H69.5005V3.4641ZM75.4442 3.4641V4.0641H79.4066V3.4641V2.8641H75.4442V3.4641ZM83.369 3.4641V4.0641H87.3315V3.4641V2.8641H83.369V3.4641ZM91.2939 3.4641V4.0641H95.2563V3.4641V2.8641H91.2939V3.4641Z" fill="var(--stroke-0, #4E4E4E)"/>
</svg>
