<svg preserveAspectRatio="none" width="100%" height="100%" overflow="visible" style="display: block;" viewBox="0 0 242.043 93.9894" fill="none" xmlns="http://www.w3.org/2000/svg">
<path id="Vector 94" d="M235.643 90.7894C235.643 92.5567 237.076 93.9894 238.843 93.9894C240.611 93.9894 242.043 92.5567 242.043 90.7894C242.043 89.0221 240.611 87.5894 238.843 87.5894C237.076 87.5894 235.643 89.0221 235.643 90.7894ZM0 4.11411L6.35013 6.88464L5.57441 0L0 4.11411ZM6.49753 3.51247L6.53487 4.11131C7.97848 4.02129 9.41343 3.96111 10.84 3.92975L10.8268 3.32989L10.8136 2.73004C9.371 2.76175 7.91995 2.82261 6.46018 2.91363L6.49753 3.51247ZM15.1571 3.32214L15.146 3.92204C16.5907 3.94862 18.027 4.00437 19.4551 4.08822L19.4903 3.48925L19.5255 2.89028C18.0814 2.8055 16.629 2.74912 15.1681 2.72225L15.1571 3.32214ZM23.8046 3.8288L23.7457 4.4259C25.1819 4.5676 26.6102 4.73723 28.0308 4.93364L28.113 4.3393L28.1952 3.74495C26.7593 3.54643 25.3155 3.37495 23.8635 3.2317L23.8046 3.8288ZM32.3876 5.0136L32.2829 5.6044C33.7021 5.85583 35.1138 6.1334 36.5185 6.43596L36.6448 5.84941L36.7712 5.26286C35.3524 4.95727 33.9262 4.67684 32.4922 4.4228L32.3876 5.0136ZM40.8619 6.83652L40.7149 7.41824C42.11 7.7707 43.4983 8.14711 44.8802 8.54631L45.0467 7.96988L45.2132 7.39345C43.8187 6.9906 42.4174 6.61065 41.0089 6.2548L40.8619 6.83652ZM49.1904 9.23981L49.0055 9.81061C50.3732 10.2536 51.7347 10.7181 53.0906 11.203L53.2926 10.6381L53.4947 10.0731C52.1278 9.58428 50.7548 9.11583 49.3753 8.66901L49.1904 9.23981ZM57.3526 12.156L57.1346 12.715C58.474 13.2374 59.8082 13.7787 61.1373 14.3379L61.37 13.7849L61.6027 13.2318C60.2641 12.6687 58.9202 12.1233 57.5706 11.597L57.3526 12.156ZM65.343 15.515L65.0969 16.0621C66.4088 16.6524 67.7162 17.2593 69.0193 17.8815L69.2778 17.34L69.5363 16.7986C68.2254 16.1726 66.9098 15.562 65.5892 14.9678L65.343 15.515ZM73.1669 19.2476L72.8972 19.7835C74.1835 20.4309 75.4659 21.0922 76.7448 21.7665L77.0246 21.2358L77.3045 20.705C76.0192 20.0274 74.73 19.3625 73.4366 18.7116L73.1669 19.2476ZM80.8371 23.2886L80.5482 23.8145C81.8116 24.5085 83.0717 25.2142 84.329 25.9304L84.626 25.409L84.9229 24.8877C83.6606 24.1686 82.3951 23.4599 81.126 22.7627L80.8371 23.2886ZM88.3723 27.5779L88.0682 28.0951C89.3111 28.8259 90.5515 29.566 91.7896 30.3142L92.1 29.8007L92.4103 29.2872C91.1683 28.5366 89.9237 27.7941 88.6764 27.0607L88.3723 27.5779ZM95.7946 32.0607L95.479 32.5709C96.7056 33.3298 97.9303 34.0957 99.1534 34.8676L99.4736 34.3602L99.7938 33.8528C98.5679 33.0792 97.3402 32.3113 96.1103 31.5504L95.7946 32.0607ZM103.129 36.6867L102.805 37.1917C104.02 37.9708 105.233 38.7549 106.446 39.5427L106.773 39.0396L107.099 38.5364C105.885 37.7475 104.67 36.9622 103.453 36.1816L103.129 36.6867ZM110.401 41.4096L110.072 41.9112C111.28 42.7034 112.486 43.4982 113.693 44.2947L114.023 43.794L114.354 43.2933C113.147 42.4963 111.939 41.7008 110.731 40.9079L110.401 41.4096ZM117.639 46.1858L117.308 46.686C118.513 47.4843 119.717 48.2827 120.922 49.0812L121.253 48.581L121.585 48.0808C120.38 47.2828 119.175 46.4837 117.97 45.6856L117.639 46.1858ZM124.869 50.9733L124.538 51.474C125.745 52.2712 126.952 53.067 128.161 53.8603L128.49 53.3587L128.819 52.8571C127.612 52.0646 126.406 51.2695 125.199 50.4727L124.869 50.9733ZM132.118 55.7303L131.791 56.2333C133.005 57.0227 134.22 57.8086 135.436 58.5899L135.76 58.0851L136.084 57.5802C134.87 56.8004 133.657 56.0157 132.445 55.2273L132.118 55.7303ZM139.414 60.4141L139.094 60.9213C140.319 61.6958 141.546 62.4645 142.775 63.2264L143.091 62.7165L143.407 62.2065C142.182 61.4466 140.958 60.6797 139.735 59.907L139.414 60.4141ZM146.784 64.9801L146.473 65.4933C147.715 66.245 148.958 66.9888 150.205 67.7235L150.509 67.2066L150.814 66.6897C149.572 65.9576 148.332 65.2163 147.095 64.4669L146.784 64.9801ZM154.253 69.3801L153.956 69.901C155.217 70.6217 156.482 71.3319 157.75 72.0307L158.039 71.5053L158.329 70.9798C157.066 70.2841 155.807 69.5768 154.551 68.8591L154.253 69.3801ZM161.848 73.5631L161.568 74.0934C162.852 74.7731 164.141 75.44 165.433 76.093L165.704 75.5575L165.974 75.0219C164.689 74.3725 163.407 73.7091 162.129 73.0328L161.848 73.5631ZM169.589 77.4709L169.33 78.012C170.64 78.6402 171.955 79.2531 173.274 79.8496L173.521 79.3028L173.769 78.7561C172.458 78.1635 171.151 77.5544 169.849 76.9299L169.589 77.4709ZM177.491 81.0397L177.257 81.5923C178.595 82.1579 179.938 82.7057 181.287 83.2345L181.506 82.6759L181.725 82.1173C180.386 81.5925 179.053 81.0487 177.725 80.487L177.491 81.0397ZM185.563 84.2011L185.36 84.7657C186.726 85.2571 188.098 85.7281 189.477 86.1774L189.663 85.607L189.849 85.0365C188.482 84.591 187.121 84.124 185.766 83.6365L185.563 84.2011ZM193.804 86.8844L193.637 87.4605C195.03 87.8659 196.431 88.2483 197.839 88.6066L197.987 88.0252L198.135 87.4437C196.74 87.0888 195.353 86.71 193.972 86.3083L193.804 86.8844ZM202.202 89.0195L202.075 89.6059C203.493 89.9139 204.919 90.1966 206.353 90.4529L206.458 89.8622L206.564 89.2716C205.145 89.018 203.734 88.7381 202.33 88.4332L202.202 89.0195ZM210.732 90.5429L210.649 91.1371C212.085 91.3377 213.528 91.5111 214.98 91.6562L215.04 91.0591L215.099 90.4621C213.663 90.3186 212.235 90.1471 210.815 89.9486L210.732 90.5429ZM219.353 91.4036L219.317 92.0026C220.762 92.0889 222.214 92.1466 223.675 92.1747L223.687 91.5749L223.698 90.975C222.254 90.9472 220.817 90.8901 219.389 90.8047L219.353 91.4036ZM228.017 91.5703L228.029 92.1701C229.472 92.1393 230.923 92.0792 232.383 91.9887L232.346 91.3898L232.309 90.791C230.865 90.8804 229.43 90.9399 228.004 90.9704L228.017 91.5703ZM236.665 91.0348L236.726 91.6316C237.454 91.5571 238.184 91.4749 238.917 91.3849L238.843 90.7894L238.77 90.1939C238.046 90.2828 237.324 90.3641 236.604 90.4379L236.665 91.0348Z" fill="var(--stroke-0, #4E4E4E)"/>
</svg>
