<svg preserveAspectRatio="none" width="100%" height="100%" overflow="visible" style="display: block;" viewBox="0 0 36 36" fill="none" xmlns="http://www.w3.org/2000/svg">
<g id="Frame" opacity="0.9">
<rect x="1" y="1" width="34" height="34" rx="17" fill="var(--fill-0, #101012)"/>
<rect x="1" y="1" width="34" height="34" rx="17" stroke="var(--stroke-0, white)" stroke-width="2"/>
<path id="Vector" fill-rule="evenodd" clip-rule="evenodd" d="M26.7414 31.4965C26.8644 31.4966 26.9826 31.4487 27.0708 31.363C27.1591 31.2773 27.2104 31.1605 27.2139 31.0375C27.3013 29.7251 27.2013 28.4068 26.9169 27.1225C26.796 26.5667 26.6336 26.0206 26.4309 25.489C26.2292 24.9575 25.9854 24.4428 25.7019 23.95C25.0605 22.86 24.1728 21.9354 23.1099 21.25C23.7768 20.6598 24.3071 19.9314 24.6638 19.1153C25.0205 18.2993 25.1951 17.4154 25.1754 16.525C25.2694 15.3638 25.1644 14.195 24.8649 13.069C24.6095 12.3087 24.2057 11.6067 23.6769 11.0035C23.6341 10.959 23.5827 10.9236 23.5259 10.8994C23.4691 10.8753 23.4079 10.8628 23.3462 10.8628C23.2844 10.8628 23.2233 10.8753 23.1664 10.8994C23.1096 10.9236 23.0582 10.959 23.0154 11.0035C22.9193 11.0827 22.8582 11.1965 22.8456 11.3204C22.833 11.4443 22.8697 11.5681 22.9479 11.665C23.4875 12.3115 23.8462 13.0894 23.9874 13.9195C24.0963 14.7937 24.0963 15.6779 23.9874 16.552C23.9751 17.6259 23.6104 18.6659 22.9495 19.5123C22.2885 20.3586 21.3678 20.9644 20.3289 21.2365C19.2773 21.5199 18.1753 21.5627 17.1049 21.3617C16.0345 21.1607 15.0231 20.7211 14.1459 20.0755C13.5444 19.5853 13.1104 18.92 12.9039 18.172C12.6424 17.3904 12.5549 16.5611 12.6474 15.742C12.7654 14.5586 13.1633 13.4202 13.8084 12.421C14.442 11.4493 15.3981 10.7322 16.5084 10.396C17.3585 10.1387 18.2395 9.9979 19.1274 9.97755C20.0012 9.95952 20.8695 10.1203 21.6789 10.45C21.7774 10.4948 21.8896 10.4986 21.9909 10.4606C22.0921 10.4227 22.1742 10.346 22.2189 10.2475C22.2637 10.1491 22.2675 10.0369 22.2295 9.93561C22.1915 9.83434 22.1149 9.7523 22.0164 9.70755C21.1178 9.27611 20.1375 9.04138 19.1409 9.01905C18.1597 8.99785 17.1797 9.1022 16.2249 9.32955C14.849 9.68638 13.638 10.5064 12.7959 11.6515C11.9665 12.7942 11.4205 14.1175 11.2029 15.5125C11.0449 16.5614 11.128 17.6326 11.4459 18.6445C11.7448 19.7148 12.3788 20.6611 13.2549 21.3445L13.5519 21.5335C12.3078 22.1094 11.2233 22.9807 10.3929 24.0715C9.83492 24.8036 9.40578 25.6253 9.12392 26.5015C8.8531 27.377 8.70321 28.2855 8.67841 29.2015C8.60152 29.8647 8.56545 30.532 8.57041 31.1995C8.57199 31.5541 8.65028 31.9041 8.79991 32.2256C8.85412 32.3217 8.94306 32.3935 9.0485 32.4261C9.15394 32.4587 9.26787 32.4498 9.36691 32.401C9.41578 32.3755 9.45911 32.3405 9.4944 32.2981C9.52969 32.2557 9.55626 32.2067 9.57257 32.154C9.58888 32.1014 9.59461 32.046 9.58944 31.991C9.58426 31.9361 9.56828 31.8828 9.54242 31.834C9.46744 31.5509 9.46744 31.2532 9.54242 30.97C9.63692 30.3625 9.83941 29.7145 9.92041 29.35C10.0636 28.5677 10.2899 27.8029 10.5954 27.0685C10.87 26.3437 11.2231 25.6511 11.6484 25.003C12.4202 23.8328 13.462 22.8651 14.6859 22.1815C16.6084 23.0536 18.7834 23.1929 20.8014 22.573C21.3775 22.3838 21.9266 22.1206 22.4349 21.79C23.3984 22.7366 24.1326 23.8911 24.5814 25.165C24.9054 25.9075 25.2024 26.677 25.4589 27.4465C25.8805 28.6104 26.1615 29.8205 26.2959 31.051C26.3024 31.1671 26.3514 31.2767 26.4336 31.3589C26.5158 31.4411 26.6254 31.4901 26.7414 31.4965Z" fill="var(--fill-0, white)" fill-opacity="0.8"/>
</g>
</svg>
