<svg preserveAspectRatio="none" width="100%" height="100%" overflow="visible" style="display: block;" viewBox="0 0 351.123 317.674" fill="none" xmlns="http://www.w3.org/2000/svg">
<path id="Vector 93" d="M344.723 314.474C344.723 316.242 346.156 317.674 347.923 317.674C349.69 317.674 351.123 316.242 351.123 314.474C351.123 312.707 349.69 311.274 347.923 311.274C346.156 311.274 344.723 312.707 344.723 314.474ZM0 4.06297L6.32453 6.89145L5.6118 0L0 4.06297ZM6.61518 3.63199L6.62005 4.23197C8.07285 4.22017 9.52473 4.26293 10.9758 4.35884L11.0153 3.76014L11.0549 3.16145C9.57471 3.06361 8.09317 3.01996 6.6103 3.03201L6.61518 3.63199ZM15.3788 4.20612L15.2967 4.80049C16.7364 4.99922 18.1754 5.24901 19.6138 5.54851L19.7361 4.96111L19.8584 4.3737C18.3939 4.06879 16.9281 3.81431 15.4608 3.61176L15.3788 4.20612ZM24.0036 5.99333L23.8444 6.57181C25.2333 6.95415 26.6218 7.38167 28.01 7.85315L28.203 7.28502L28.3959 6.71689C26.9862 6.23809 25.5752 5.80362 24.1628 5.41485L24.0036 5.99333ZM32.3948 8.84052L32.1709 9.39717C33.4888 9.92732 34.8065 10.496 36.1239 11.1022L36.3747 10.5572L36.6255 10.0121C35.291 9.39802 33.9554 8.82155 32.6187 8.28387L32.3948 8.84052ZM40.3506 12.4992L40.0753 13.0323C41.368 13.6999 42.6605 14.4027 43.9528 15.1396L44.25 14.6183L44.5472 14.0971C43.241 13.3523 41.934 12.6416 40.626 11.9661L40.3506 12.4992ZM47.9898 16.845L47.6735 17.3549C48.9135 18.1241 50.1533 18.9239 51.393 19.7533L51.7266 19.2546L52.0602 18.7559C50.8096 17.9192 49.5582 17.1119 48.3061 16.3352L47.9898 16.845ZM55.3594 21.769L55.0104 22.2571C56.1763 23.0908 57.3421 23.9498 58.5077 24.8336L58.8702 24.3555L59.2327 23.8774C58.0585 22.9871 56.8837 22.1214 55.7083 21.2809L55.3594 21.769ZM62.3788 27.0895L62.004 27.558C63.1414 28.4681 64.2788 29.4009 65.416 30.3557L65.8018 29.8962L66.1876 29.4367C65.0434 28.476 63.8988 27.5372 62.7536 26.621L62.3788 27.0895ZM69.1073 32.7333L68.7117 33.1845C69.8102 34.1475 70.9085 35.1305 72.0068 36.1328L72.4112 35.6896L72.8157 35.2464C71.7118 34.239 70.6075 33.2507 69.5028 32.2822L69.1073 32.7333ZM75.6796 38.729L75.267 39.1646C76.3074 40.1498 77.3476 41.1518 78.3878 42.17L78.8075 41.7412L79.2272 41.3124C78.1825 40.2898 77.1375 39.2832 76.0922 38.2933L75.6796 38.729ZM81.9344 44.8502L81.5081 45.2725C82.5482 46.3224 83.5881 47.3881 84.628 48.4688L85.0604 48.0528L85.4927 47.6367C84.449 46.552 83.405 45.4822 82.3607 44.428L81.9344 44.8502ZM88.0684 51.2205L87.6306 51.6309C88.6215 52.6879 89.6123 53.7581 90.603 54.8411L91.0457 54.4361L91.4884 54.0311C90.4945 52.9447 89.5004 51.8709 88.5061 50.8102L88.0684 51.2205ZM94.0225 57.7279L93.5752 58.1278C94.5566 59.2254 95.538 60.3351 96.5194 61.4563L96.9709 61.0612L97.4224 60.666C96.4383 59.5417 95.4541 58.4288 94.4697 57.3279L94.0225 57.7279ZM99.8242 64.3532L99.3689 64.744C100.319 65.8504 101.269 66.9673 102.218 68.0941L102.677 67.7074L103.136 67.3207C102.184 66.1912 101.232 65.0716 100.279 63.9623L99.8242 64.3532ZM105.53 71.1215L105.068 71.5043C106.001 72.6304 106.934 73.7657 107.867 74.9099L108.332 74.5307L108.797 74.1515C107.862 73.005 106.927 71.8673 105.992 70.7387L105.53 71.1215ZM111.085 77.9309L110.617 78.3067C111.533 79.4473 112.45 80.596 113.367 81.7525L113.837 81.3798L114.307 81.0071C113.389 79.8485 112.471 78.6977 111.552 77.555L111.085 77.9309ZM116.589 84.8751L116.117 85.2449C117.016 86.3944 117.916 87.5511 118.816 88.7145L119.29 88.3475L119.765 87.9805C118.864 86.8153 117.963 85.6568 117.062 84.5054L116.589 84.8751ZM121.963 91.8232L121.486 92.1877C122.377 93.3518 123.267 94.5221 124.157 95.6984L124.636 95.3363L125.114 94.9742C124.223 93.7963 123.331 92.6244 122.439 91.4587L121.963 91.8232ZM127.309 98.8849L126.829 99.2448C127.706 100.414 128.583 101.589 129.46 102.768L129.941 102.411L130.423 102.053C129.545 100.872 128.667 99.6956 127.789 98.5249L127.309 98.8849ZM132.553 105.939L132.07 106.295C132.941 107.475 133.811 108.66 134.682 109.849L135.166 109.495L135.65 109.141C134.779 107.95 133.907 106.764 133.036 105.583L132.553 105.939ZM137.779 113.077L137.294 113.43C138.155 114.615 139.017 115.804 139.879 116.997L140.365 116.645L140.852 116.294C139.989 115.1 139.127 113.911 138.264 112.724L137.779 113.077ZM142.934 120.21L142.447 120.56C143.303 121.751 144.16 122.946 145.016 124.143L145.504 123.794L145.992 123.445C145.135 122.247 144.278 121.052 143.421 119.86L142.934 120.21ZM148.075 127.396L147.586 127.744C148.438 128.941 149.29 130.14 150.143 131.342L150.632 130.995L151.121 130.647C150.268 129.445 149.416 128.245 148.563 127.048L148.075 127.396ZM153.174 134.584L152.684 134.93C153.531 136.128 154.379 137.328 155.227 138.53L155.717 138.185L156.207 137.839C155.359 136.636 154.511 135.436 153.664 134.237L153.174 134.584ZM158.261 141.796L157.77 142.141C158.617 143.344 159.464 144.549 160.311 145.754L160.802 145.41L161.293 145.065C160.446 143.859 159.599 142.654 158.752 141.451L158.261 141.796ZM163.332 149.013L162.841 149.358C163.685 150.56 164.529 151.763 165.373 152.967L165.864 152.622L166.355 152.278C165.511 151.074 164.667 149.871 163.824 148.669L163.332 149.013ZM168.397 156.235L167.906 156.579C168.751 157.783 169.595 158.988 170.44 160.193L170.932 159.848L171.423 159.503C170.578 158.299 169.733 157.094 168.889 155.89L168.397 156.235ZM173.466 163.459L172.975 163.804C173.82 165.007 174.665 166.211 175.511 167.413L176.001 167.068L176.492 166.723C175.647 165.521 174.802 164.318 173.957 163.114L173.466 163.459ZM178.539 170.673L178.048 171.019C178.894 172.22 179.74 173.42 180.587 174.619L181.077 174.273L181.567 173.927C180.721 172.729 179.875 171.529 179.029 170.328L178.539 170.673ZM183.628 177.881L183.138 178.228C183.99 179.43 184.842 180.631 185.694 181.83L186.183 181.482L186.672 181.135C185.82 179.936 184.969 178.736 184.118 177.534L183.628 177.881ZM188.739 185.073L188.251 185.422C189.103 186.617 189.956 187.81 190.809 189.001L191.297 188.651L191.785 188.302C190.932 187.112 190.08 185.919 189.227 184.725L188.739 185.073ZM193.874 192.239L193.387 192.59C194.25 193.788 195.114 194.984 195.977 196.176L196.463 195.824L196.949 195.473C196.086 194.281 195.224 193.086 194.361 191.889L193.874 192.239ZM199.054 199.392L198.57 199.745C199.434 200.931 200.299 202.114 201.164 203.294L201.648 202.939L202.131 202.584C201.267 201.406 200.403 200.224 199.539 199.038L199.054 199.392ZM204.263 206.492L203.781 206.848C204.661 208.039 205.541 209.226 206.422 210.408L206.903 210.05L207.384 209.692C206.504 208.51 205.625 207.325 204.746 206.135L204.263 206.492ZM209.545 213.582L209.066 213.943C209.947 215.116 210.829 216.285 211.712 217.449L212.19 217.086L212.668 216.724C211.787 215.561 210.906 214.394 210.025 213.222L209.545 213.582ZM214.86 220.59L214.383 220.955C215.286 222.133 216.19 223.307 217.094 224.474L217.568 224.107L218.042 223.74C217.14 222.574 216.238 221.402 215.336 220.225L214.86 220.59ZM220.279 227.589L219.806 227.959C220.711 229.114 221.617 230.263 222.522 231.406L222.992 231.033L223.463 230.66C222.558 229.52 221.655 228.372 220.751 227.219L220.279 227.589ZM225.739 234.475L225.271 234.851C226.203 236.011 227.136 237.164 228.069 238.31L228.534 237.931L228.999 237.552C228.068 236.409 227.137 235.258 226.206 234.099L225.739 234.475ZM231.333 241.341L230.871 241.724C231.805 242.854 232.74 243.976 233.676 245.089L234.135 244.703L234.594 244.317C233.661 243.206 232.728 242.087 231.795 240.959L231.333 241.341ZM236.988 248.07L236.532 248.46C237.5 249.593 238.47 250.717 239.439 251.831L239.892 251.437L240.345 251.044C239.377 249.932 238.41 248.811 237.444 247.68L236.988 248.07ZM242.8 254.746L242.351 255.144C243.322 256.238 244.294 257.323 245.267 258.396L245.711 257.993L246.156 257.59C245.186 256.52 244.217 255.439 243.249 254.348L242.8 254.746ZM248.712 261.269L248.272 261.677C249.285 262.77 250.299 263.851 251.313 264.92L251.748 264.507L252.184 264.094C251.173 263.029 250.162 261.951 249.153 260.861L248.712 261.269ZM254.789 267.671L254.359 268.089C255.38 269.139 256.402 270.175 257.425 271.198L257.85 270.774L258.274 270.349C257.255 269.33 256.236 268.298 255.219 267.252L254.789 267.671ZM261.038 273.915L260.62 274.346C261.686 275.38 262.753 276.399 263.82 277.403L264.231 276.966L264.642 276.529C263.579 275.53 262.517 274.515 261.456 273.485L261.038 273.915ZM267.43 279.923L267.026 280.367C268.131 281.372 269.237 282.359 270.344 283.329L270.74 282.877L271.135 282.426C270.034 281.461 268.933 280.479 267.833 279.479L267.43 279.923ZM274.111 285.771L273.725 286.231C274.853 287.179 275.982 288.109 277.113 289.019L277.489 288.552L277.865 288.084C276.742 287.18 275.619 286.255 274.497 285.312L274.111 285.771ZM280.939 291.265L280.573 291.741C281.768 292.658 282.963 293.552 284.16 294.423L284.513 293.938L284.866 293.453C283.678 292.588 282.491 291.7 281.304 290.789L280.939 291.265ZM288.094 296.472L287.754 296.967C288.969 297.802 290.186 298.612 291.404 299.397L291.729 298.893L292.054 298.389C290.846 297.61 289.64 296.806 288.434 295.978L288.094 296.472ZM295.524 301.254L295.216 301.768C296.488 302.531 297.761 303.265 299.037 303.97L299.327 303.445L299.618 302.92C298.355 302.222 297.093 301.495 295.832 300.739L295.524 301.254ZM303.194 305.49L302.923 306.026C304.269 306.705 305.617 307.351 306.966 307.962L307.214 307.416L307.462 306.869C306.128 306.265 304.795 305.626 303.464 304.954L303.194 305.49ZM311.244 309.137L311.021 309.694C312.401 310.247 313.783 310.764 315.168 311.243L315.364 310.676L315.56 310.109C314.194 309.636 312.83 309.127 311.467 308.58L311.244 309.137ZM319.589 312.017L319.422 312.593C320.842 313.004 322.265 313.373 323.69 313.701L323.824 313.116L323.959 312.532C322.556 312.209 321.155 311.845 319.755 311.441L319.589 312.017ZM328.155 313.981L328.055 314.573C329.521 314.821 330.989 315.024 332.46 315.18L332.524 314.584L332.587 313.987C331.141 313.833 329.697 313.633 328.255 313.39L328.155 313.981ZM336.906 314.91L336.88 315.51C338.357 315.573 339.835 315.588 341.316 315.554L341.303 314.955L341.289 314.355C339.834 314.388 338.382 314.373 336.931 314.311L336.906 314.91ZM345.713 314.708L345.766 315.306C346.509 315.24 347.252 315.161 347.996 315.07L347.923 314.474L347.85 313.879C347.119 313.968 346.389 314.046 345.659 314.111L345.713 314.708Z" fill="var(--stroke-0, #4E4E4E)"/>
</svg>
