<svg preserveAspectRatio="none" width="100%" height="100%" overflow="visible" style="display: block;" viewBox="0 0 158.664 321.2" fill="none" xmlns="http://www.w3.org/2000/svg">
<path id="Vector 102" d="M0 318C0 319.767 1.43269 321.2 3.2 321.2C4.96731 321.2 6.4 319.767 6.4 318C6.4 316.233 4.96731 314.8 3.2 314.8C1.43269 314.8 0 316.233 0 318ZM155.2 0L151.736 6H158.664L155.2 0ZM3.2 318V318.6H5.25556V318V317.4H3.2V318ZM9.36667 318V318.6H13.4778V318V317.4H9.36667V318ZM17.5889 318V318.6H21.7V318V317.4H17.5889V318ZM25.8111 318V318.6H29.9222V318V317.4H25.8111V318ZM34.0333 318V318.6H38.1444V318V317.4H34.0333V318ZM42.2556 318V318.6H46.3667V318V317.4H42.2556V318ZM50.4778 318V318.6H54.5889V318V317.4H50.4778V318ZM58.7 318V318.6H62.8111V318V317.4H58.7V318ZM66.9222 318V318.6H71.0333V318V317.4H66.9222V318ZM75.1445 318V318.6H79.2556V318V317.4H75.1445V318ZM83.3667 318V318.6H87.4778V318V317.4H83.3667V318ZM91.5889 318V318.6H95.7V318V317.4H91.5889V318ZM99.8111 318V318.6H103.922V318V317.4H99.8111V318ZM108.033 318V318.6H112.144V318V317.4H108.033V318ZM116.256 318V318.6H120.367V318V317.4H116.256V318ZM124.478 318V318.6H128.589V318V317.4H124.478V318ZM132.7 318V318.6H136.811V318V317.4H132.7V318ZM140.922 318V318.6H145.033V318V317.4H140.922V318ZM149.145 318V318.6H151.2V318V317.4H149.145V318ZM151.2 318V318.6C151.823 318.6 152.418 318.476 152.961 318.251L152.731 317.696L152.501 317.142C152.101 317.308 151.662 317.4 151.2 317.4V318ZM154.896 315.531L155.451 315.761C155.676 315.218 155.8 314.623 155.8 314H155.2H154.6C154.6 314.462 154.508 314.901 154.342 315.301L154.896 315.531ZM155.2 314H155.8V312.028H155.2H154.6V314H155.2ZM155.2 308.084H155.8V304.14H155.2H154.6V308.084H155.2ZM155.2 300.196H155.8V296.251H155.2H154.6V300.196H155.2ZM155.2 292.307H155.8V288.363H155.2H154.6V292.307H155.2ZM155.2 284.419H155.8V280.475H155.2H154.6V284.419H155.2ZM155.2 276.531H155.8V272.587H155.2H154.6V276.531H155.2ZM155.2 268.642H155.8V264.698H155.2H154.6V268.642H155.2ZM155.2 260.754H155.8V256.81H155.2H154.6V260.754H155.2ZM155.2 252.866H155.8V248.922H155.2H154.6V252.866H155.2ZM155.2 244.978H155.8V241.034H155.2H154.6V244.978H155.2ZM155.2 237.089H155.8V233.145H155.2H154.6V237.089H155.2ZM155.2 229.201H155.8V225.257H155.2H154.6V229.201H155.2ZM155.2 221.313H155.8V217.369H155.2H154.6V221.313H155.2ZM155.2 213.425H155.8V209.48H155.2H154.6V213.425H155.2ZM155.2 205.536H155.8V201.592H155.2H154.6V205.536H155.2ZM155.2 197.648H155.8V193.704H155.2H154.6V197.648H155.2ZM155.2 189.76H155.8V185.816H155.2H154.6V189.76H155.2ZM155.2 181.871H155.8V177.927H155.2H154.6V181.871H155.2ZM155.2 173.983H155.8V170.039H155.2H154.6V173.983H155.2ZM155.2 166.095H155.8V162.151H155.2H154.6V166.095H155.2ZM155.2 158.207H155.8V154.262H155.2H154.6V158.207H155.2ZM155.2 150.318H155.8V146.374H155.2H154.6V150.318H155.2ZM155.2 142.43H155.8V138.486H155.2H154.6V142.43H155.2ZM155.2 134.542H155.8V130.598H155.2H154.6V134.542H155.2ZM155.2 126.654H155.8V122.709H155.2H154.6V126.654H155.2ZM155.2 118.765H155.8V114.821H155.2H154.6V118.765H155.2ZM155.2 110.877H155.8V106.933H155.2H154.6V110.877H155.2ZM155.2 102.989H155.8V99.0446H155.2H154.6V102.989H155.2ZM155.2 95.1004H155.8V91.1563H155.2H154.6V95.1004H155.2ZM155.2 87.2122H155.8V83.268H155.2H154.6V87.2122H155.2ZM155.2 79.3239H155.8V75.3797H155.2H154.6V79.3239H155.2ZM155.2 71.4356H155.8V67.4915H155.2H154.6V71.4356H155.2ZM155.2 63.5473H155.8V61.5754H155.2H154.6V63.5473H155.2ZM155.2 61.5754H155.8V59.6512H155.2H154.6V61.5754H155.2ZM155.2 55.8027H155.8V51.9543H155.2H154.6V55.8027H155.2ZM155.2 48.1058H155.8V44.2574H155.2H154.6V48.1058H155.2ZM155.2 40.4089H155.8V36.5604H155.2H154.6V40.4089H155.2ZM155.2 32.712H155.8V28.8635H155.2H154.6V32.712H155.2ZM155.2 25.015H155.8V21.1666H155.2H154.6V25.015H155.2ZM155.2 17.3181H155.8V13.4696H155.2H154.6V17.3181H155.2ZM155.2 9.62116H155.8V5.7727H155.2H154.6V9.62116H155.2Z" fill="var(--stroke-0, #4E4E4E)"/>
</svg>
