<svg preserveAspectRatio="none" width="100%" height="100%" overflow="visible" style="display: block;" viewBox="0 0 320.664 165.8" fill="none" xmlns="http://www.w3.org/2000/svg">
<path id="Vector 104" d="M0 3.2C0 4.96731 1.43269 6.4 3.2 6.4C4.96731 6.4 6.4 4.96731 6.4 3.2C6.4 1.43269 4.96731 0 3.2 0C1.43269 0 0 1.43269 0 3.2ZM317.2 147.2L313.736 153.2H320.664L317.2 147.2ZM3.2 3.2V3.8H5.1V3.2V2.6H3.2V3.2ZM8.9 3.2V3.8H12.7V3.2V2.6H8.9V3.2ZM16.5 3.2V3.8H20.3V3.2V2.6H16.5V3.2ZM24.1 3.2V3.8H27.9V3.2V2.6H24.1V3.2ZM31.7 3.2V3.8H35.5V3.2V2.6H31.7V3.2ZM39.3 3.2V3.8H41.2V3.2V2.6H39.3V3.2ZM41.2 3.2V3.8C41.6621 3.8 42.1013 3.89186 42.5013 4.05776L42.7312 3.50352L42.961 2.94929C42.4178 2.72403 41.8226 2.6 41.2 2.6V3.2ZM44.8965 5.66885L44.3422 5.89868C44.5081 6.29874 44.6 6.73788 44.6 7.2H45.2H45.8C45.8 6.57738 45.676 5.98222 45.4507 5.43902L44.8965 5.66885ZM45.2 7.2H44.6V9.22632H45.2H45.8V7.2H45.2ZM45.2 13.2789H44.6V17.3316H45.2H45.8V13.2789H45.2ZM45.2 21.3842H44.6V25.4368H45.2H45.8V21.3842H45.2ZM45.2 29.4895H44.6V33.5421H45.2H45.8V29.4895H45.2ZM45.2 37.5947H44.6V41.6474H45.2H45.8V37.5947H45.2ZM45.2 45.7H44.6V49.7526H45.2H45.8V45.7H45.2ZM45.2 53.8053H44.6V57.8579H45.2H45.8V53.8053H45.2ZM45.2 61.9105H44.6V65.9632H45.2H45.8V61.9105H45.2ZM45.2 70.0158H44.6V74.0684H45.2H45.8V70.0158H45.2ZM45.2 78.1211H44.6V82.1737H45.2H45.8V78.1211H45.2ZM45.2 86.2263H44.6V90.2789H45.2H45.8V86.2263H45.2ZM45.2 94.3316H44.6V98.3842H45.2H45.8V94.3316H45.2ZM45.2 102.437H44.6V106.489H45.2H45.8V102.437H45.2ZM45.2 110.542H44.6V114.595H45.2H45.8V110.542H45.2ZM45.2 118.647H44.6V122.7H45.2H45.8V118.647H45.2ZM45.2 126.753H44.6V130.805H45.2H45.8V126.753H45.2ZM45.2 134.858H44.6V138.91H45.2H45.8V134.858H45.2ZM45.2 142.963H44.6V147.016H45.2H45.8V142.963H45.2ZM45.2 151.068H44.6V155.121H45.2H45.8V151.068H45.2ZM45.2 159.174H44.6V161.2H45.2H45.8V159.174H45.2ZM45.2 161.2H44.6C44.6 161.823 44.724 162.418 44.9493 162.961L45.5035 162.731L46.0578 162.501C45.8919 162.101 45.8 161.662 45.8 161.2H45.2ZM47.6688 164.896L47.439 165.451C47.9822 165.676 48.5774 165.8 49.2 165.8V165.2V164.6C48.7379 164.6 48.2987 164.508 47.8987 164.342L47.6688 164.896ZM49.2 165.2V165.8H51.2302V165.2V164.6H49.2V165.2ZM55.2907 165.2V165.8H59.3512V165.2V164.6H55.2907V165.2ZM63.4117 165.2V165.8H67.4722V165.2V164.6H63.4117V165.2ZM71.5327 165.2V165.8H75.5932V165.2V164.6H71.5327V165.2ZM79.6536 165.2V165.8H83.7141V165.2V164.6H79.6536V165.2ZM87.7746 165.2V165.8H91.8351V165.2V164.6H87.7746V165.2ZM95.8956 165.2V165.8H99.9561V165.2V164.6H95.8956V165.2ZM104.017 165.2V165.8H108.077V165.2V164.6H104.017V165.2ZM112.138 165.2V165.8H116.198V165.2V164.6H112.138V165.2ZM120.259 165.2V165.8H124.319V165.2V164.6H120.259V165.2ZM128.379 165.2V165.8H132.44V165.2V164.6H128.379V165.2ZM136.5 165.2V165.8H140.561V165.2V164.6H136.5V165.2ZM144.621 165.2V165.8H148.682V165.2V164.6H144.621V165.2ZM152.742 165.2V165.8H156.803V165.2V164.6H152.742V165.2ZM160.863 165.2V165.8H164.924V165.2V164.6H160.863V165.2ZM168.984 165.2V165.8H173.045V165.2V164.6H168.984V165.2ZM177.105 165.2V165.8H181.166V165.2V164.6H177.105V165.2ZM185.226 165.2V165.8H189.287V165.2V164.6H185.226V165.2ZM193.347 165.2V165.8H197.408V165.2V164.6H193.347V165.2ZM201.468 165.2V165.8H205.529V165.2V164.6H201.468V165.2ZM209.589 165.2V165.8H213.65V165.2V164.6H209.589V165.2ZM217.71 165.2V165.8H221.771V165.2V164.6H217.71V165.2ZM225.831 165.2V165.8H229.892V165.2V164.6H225.831V165.2ZM233.952 165.2V165.8H238.013V165.2V164.6H233.952V165.2ZM242.073 165.2V165.8H246.134V165.2V164.6H242.073V165.2ZM250.194 165.2V165.8H254.255V165.2V164.6H250.194V165.2ZM258.315 165.2V165.8H262.376V165.2V164.6H258.315V165.2ZM266.436 165.2V165.8H270.497V165.2V164.6H266.436V165.2ZM274.557 165.2V165.8H278.617V165.2V164.6H274.557V165.2ZM282.678 165.2V165.8H286.738V165.2V164.6H282.678V165.2ZM290.799 165.2V165.8H294.859V165.2V164.6H290.799V165.2ZM298.92 165.2V165.8H302.98V165.2V164.6H298.92V165.2ZM307.041 165.2V165.8H311.101V165.2V164.6H307.041V165.2ZM315.162 165.2V165.8H317.192V165.2V164.6H315.162V165.2ZM317.192 165.2V165.8C316.866 165.8 316.6 165.536 316.6 165.208H317.2H317.8C317.8 164.871 317.527 164.6 317.192 164.6V165.2ZM317.2 165.208H317.8V162.957H317.2H316.6V165.208H317.2ZM317.2 158.455H317.8V153.953H317.2H316.6V158.455H317.2Z" fill="var(--stroke-0, #4E4E4E)"/>
</svg>
