<svg preserveAspectRatio="none" width="100%" height="100%" overflow="visible" style="display: block;" viewBox="0 0 559.2 104.664" fill="none" xmlns="http://www.w3.org/2000/svg">
<path id="Vector 100" d="M0 101.464C0 103.231 1.43269 104.664 3.2 104.664C4.96731 104.664 6.4 103.231 6.4 101.464C6.4 99.6968 4.96731 98.2641 3.2 98.2641C1.43269 98.2641 0 99.6968 0 101.464ZM559.2 3.4641L553.2 0V6.9282L559.2 3.4641ZM3.2 101.464H3.8V99.5058H3.2H2.6V101.464H3.2ZM3.2 95.5891H3.8V91.6724H3.2H2.6V95.5891H3.2ZM3.2 87.7558H3.8V83.8391H3.2H2.6V87.7558H3.2ZM3.2 79.9224H3.8V76.0058H3.2H2.6V79.9224H3.2ZM3.2 72.0891H3.8V68.1724H3.2H2.6V72.0891H3.2ZM3.2 64.2558H3.8V60.3391H3.2H2.6V64.2558H3.2ZM3.2 56.4224H3.8V52.5058H3.2H2.6V56.4224H3.2ZM3.2 48.5891H3.8V44.6724H3.2H2.6V48.5891H3.2ZM3.2 40.7558H3.8V36.8391H3.2H2.6V40.7558H3.2ZM3.2 32.9224H3.8V29.0058H3.2H2.6V32.9224H3.2ZM3.2 25.0891H3.8V21.1724H3.2H2.6V25.0891H3.2ZM3.2 17.2558H3.8V13.3391H3.2H2.6V17.2558H3.2ZM3.2 9.42244H3.8V7.4641H3.2H2.6V9.42244H3.2ZM3.2 7.4641H3.8C3.8 7.00198 3.89186 6.56283 4.05776 6.16278L3.50352 5.93295L2.94929 5.70312C2.72403 6.24632 2.6 6.84148 2.6 7.4641H3.2ZM5.66885 3.76762L5.89868 4.32186C6.29873 4.15596 6.73788 4.0641 7.2 4.0641V3.4641V2.8641C6.57738 2.8641 5.98222 2.98813 5.43902 3.21339L5.66885 3.76762ZM7.2 3.4641V4.0641H9.2V3.4641V2.8641H7.2V3.4641ZM13.2 3.4641V4.0641H17.2V3.4641V2.8641H13.2V3.4641ZM21.2 3.4641V4.0641H25.2V3.4641V2.8641H21.2V3.4641ZM29.2 3.4641V4.0641H33.2V3.4641V2.8641H29.2V3.4641ZM37.2 3.4641V4.0641H41.2V3.4641V2.8641H37.2V3.4641ZM45.2 3.4641V4.0641H49.2V3.4641V2.8641H45.2V3.4641ZM53.2 3.4641V4.0641H57.2V3.4641V2.8641H53.2V3.4641ZM61.2 3.4641V4.0641H65.2V3.4641V2.8641H61.2V3.4641ZM69.2 3.4641V4.0641H73.2V3.4641V2.8641H69.2V3.4641ZM77.2 3.4641V4.0641H81.2V3.4641V2.8641H77.2V3.4641ZM85.2 3.4641V4.0641H89.2V3.4641V2.8641H85.2V3.4641ZM93.2 3.4641V4.0641H97.2V3.4641V2.8641H93.2V3.4641ZM101.2 3.4641V4.0641H105.2V3.4641V2.8641H101.2V3.4641ZM109.2 3.4641V4.0641H113.2V3.4641V2.8641H109.2V3.4641ZM117.2 3.4641V4.0641H121.2V3.4641V2.8641H117.2V3.4641ZM125.2 3.4641V4.0641H129.2V3.4641V2.8641H125.2V3.4641ZM133.2 3.4641V4.0641H137.2V3.4641V2.8641H133.2V3.4641ZM141.2 3.4641V4.0641H145.2V3.4641V2.8641H141.2V3.4641ZM149.2 3.4641V4.0641H153.2V3.4641V2.8641H149.2V3.4641ZM157.2 3.4641V4.0641H161.2V3.4641V2.8641H157.2V3.4641ZM165.2 3.4641V4.0641H169.2V3.4641V2.8641H165.2V3.4641ZM173.2 3.4641V4.0641H177.2V3.4641V2.8641H173.2V3.4641ZM181.2 3.4641V4.0641H185.2V3.4641V2.8641H181.2V3.4641ZM189.2 3.4641V4.0641H193.2V3.4641V2.8641H189.2V3.4641ZM197.2 3.4641V4.0641H201.2V3.4641V2.8641H197.2V3.4641ZM205.2 3.4641V4.0641H209.2V3.4641V2.8641H205.2V3.4641ZM213.2 3.4641V4.0641H217.2V3.4641V2.8641H213.2V3.4641ZM221.2 3.4641V4.0641H225.2V3.4641V2.8641H221.2V3.4641ZM229.2 3.4641V4.0641H233.2V3.4641V2.8641H229.2V3.4641ZM237.2 3.4641V4.0641H241.2V3.4641V2.8641H237.2V3.4641ZM245.2 3.4641V4.0641H249.2V3.4641V2.8641H245.2V3.4641ZM253.2 3.4641V4.0641H257.2V3.4641V2.8641H253.2V3.4641ZM261.2 3.4641V4.0641H265.2V3.4641V2.8641H261.2V3.4641ZM269.2 3.4641V4.0641H273.2V3.4641V2.8641H269.2V3.4641ZM277.2 3.4641V4.0641H281.2V3.4641V2.8641H277.2V3.4641ZM285.2 3.4641V4.0641H289.2V3.4641V2.8641H285.2V3.4641ZM293.2 3.4641V4.0641H297.2V3.4641V2.8641H293.2V3.4641ZM301.2 3.4641V4.0641H305.2V3.4641V2.8641H301.2V3.4641ZM309.2 3.4641V4.0641H313.2V3.4641V2.8641H309.2V3.4641ZM317.2 3.4641V4.0641H321.2V3.4641V2.8641H317.2V3.4641ZM325.2 3.4641V4.0641H329.2V3.4641V2.8641H325.2V3.4641ZM333.2 3.4641V4.0641H337.2V3.4641V2.8641H333.2V3.4641ZM341.2 3.4641V4.0641H345.2V3.4641V2.8641H341.2V3.4641ZM349.2 3.4641V4.0641H353.2V3.4641V2.8641H349.2V3.4641ZM357.2 3.4641V4.0641H361.2V3.4641V2.8641H357.2V3.4641ZM365.2 3.4641V4.0641H369.2V3.4641V2.8641H365.2V3.4641ZM373.2 3.4641V4.0641H377.2V3.4641V2.8641H373.2V3.4641ZM381.2 3.4641V4.0641H385.2V3.4641V2.8641H381.2V3.4641ZM389.2 3.4641V4.0641H393.2V3.4641V2.8641H389.2V3.4641ZM397.2 3.4641V4.0641H401.2V3.4641V2.8641H397.2V3.4641ZM405.2 3.4641V4.0641H409.2V3.4641V2.8641H405.2V3.4641ZM413.2 3.4641V4.0641H417.2V3.4641V2.8641H413.2V3.4641ZM421.2 3.4641V4.0641H425.2V3.4641V2.8641H421.2V3.4641ZM429.2 3.4641V4.0641H433.2V3.4641V2.8641H429.2V3.4641ZM437.2 3.4641V4.0641H441.2V3.4641V2.8641H437.2V3.4641ZM445.2 3.4641V4.0641H449.2V3.4641V2.8641H445.2V3.4641ZM453.2 3.4641V4.0641H457.2V3.4641V2.8641H453.2V3.4641ZM461.2 3.4641V4.0641H465.2V3.4641V2.8641H461.2V3.4641ZM469.2 3.4641V4.0641H473.2V3.4641V2.8641H469.2V3.4641ZM477.2 3.4641V4.0641H481.2V3.4641V2.8641H477.2V3.4641ZM485.2 3.4641V4.0641H489.2V3.4641V2.8641H485.2V3.4641ZM493.2 3.4641V4.0641H497.2V3.4641V2.8641H493.2V3.4641ZM501.2 3.4641V4.0641H505.2V3.4641V2.8641H501.2V3.4641ZM509.2 3.4641V4.0641H513.2V3.4641V2.8641H509.2V3.4641ZM517.2 3.4641V4.0641H521.2V3.4641V2.8641H517.2V3.4641ZM525.2 3.4641V4.0641H529.2V3.4641V2.8641H525.2V3.4641ZM533.2 3.4641V4.0641H537.2V3.4641V2.8641H533.2V3.4641ZM541.2 3.4641V4.0641H545.2V3.4641V2.8641H541.2V3.4641ZM549.2 3.4641V4.0641H553.2V3.4641V2.8641H549.2V3.4641Z" fill="var(--stroke-0, #4E4E4E)"/>
</svg>
