<svg preserveAspectRatio="none" width="100%" height="100%" overflow="visible" style="display: block;" viewBox="0 0 662.6 246.027" fill="none" xmlns="http://www.w3.org/2000/svg">
<path id="Vector 109" d="M41.4 119.6C41.4 121.367 42.8327 122.8 44.6 122.8C46.3673 122.8 47.8 121.367 47.8 119.6C47.8 117.833 46.3673 116.4 44.6 116.4C42.8327 116.4 41.4 117.833 41.4 119.6ZM662.6 242.563L656.6 239.099V246.027L662.6 242.563ZM44.6 119.6V119H42.6V119.6V120.2H44.6V119.6ZM38.6 119.6V119H34.6V119.6V120.2H38.6V119.6ZM30.6 119.6V119H26.6V119.6V120.2H30.6V119.6ZM22.6 119.6V119H18.6V119.6V120.2H22.6V119.6ZM14.6 119.6V119H10.6V119.6V120.2H14.6V119.6ZM6.6 119.6V119H4.6V119.6V120.2H6.6V119.6ZM4.6 119.6V119C4.13788 119 3.69873 118.908 3.29868 118.742L3.06885 119.296L2.83902 119.851C3.38222 120.076 3.97738 120.2 4.6 120.2V119.6ZM0.903522 117.131L1.45776 116.901C1.29186 116.501 1.2 116.062 1.2 115.6H0.6H0C0 116.223 0.124027 116.818 0.349286 117.361L0.903522 117.131ZM0.6 115.6H1.2V113.618H0.6H0V115.6H0.6ZM0.6 109.654H1.2V105.689H0.6H0V109.654H0.6ZM0.6 101.725H1.2V97.7607H0.6H0V101.725H0.6ZM0.6 93.7964H1.2V89.8321H0.6H0V93.7964H0.6ZM0.6 85.8679H1.2V81.9036H0.6H0V85.8679H0.6ZM0.6 77.9393H1.2V73.975H0.6H0V77.9393H0.6ZM0.6 70.0107H1.2V66.0464H0.6H0V70.0107H0.6ZM0.6 62.0821H1.2V58.1179H0.6H0V62.0821H0.6ZM0.6 54.1536H1.2V50.1893H0.6H0V54.1536H0.6ZM0.6 46.225H1.2V42.2607H0.6H0V46.225H0.6ZM0.6 38.2964H1.2V34.3321H0.6H0V38.2964H0.6ZM0.6 30.3678H1.2V26.4036H0.6H0V30.3678H0.6ZM0.6 22.4393H1.2V18.475H0.6H0V22.4393H0.6ZM0.6 14.5107H1.2V10.5464H0.6H0V14.5107H0.6ZM0.6 6.58212H1.2V4.6H0.6H0V6.58212H0.6ZM0.6 4.6H1.2C1.2 4.13788 1.29186 3.69873 1.45776 3.29868L0.903522 3.06885L0.349287 2.83902C0.124027 3.38222 0 3.97738 0 4.6H0.6ZM3.06885 0.903522L3.29868 1.45776C3.69873 1.29186 4.13788 1.2 4.6 1.2V0.6V0C3.97738 0 3.38222 0.124027 2.83902 0.349286L3.06885 0.903522ZM4.6 0.6V1.2H6.61102V0.6V0H4.6V0.6ZM10.6331 0.6V1.2H14.6551V0.6V0H10.6331V0.6ZM18.6771 0.6V1.2H22.6992V0.6V0H18.6771V0.6ZM26.7212 0.6V1.2H30.7432V0.6V0H26.7212V0.6ZM34.7653 0.6V1.2H38.7873V0.6V0H34.7653V0.6ZM42.8094 0.6V1.2H46.8314V0.6V0H42.8094V0.6ZM50.8534 0.6V1.2H54.8755V0.6V0H50.8534V0.6ZM58.8975 0.6V1.2H62.9195V0.6V0H58.8975V0.6ZM66.9416 0.6V1.2H70.9636V0.6V0H66.9416V0.6ZM74.9857 0.6V1.2H79.0077V0.6V0H74.9857V0.6ZM83.0297 0.6V1.2H87.0518V0.6V0H83.0297V0.6ZM91.0738 0.6V1.2H95.0959V0.6V0H91.0738V0.6ZM99.1179 0.6V1.2H103.14V0.6V0H99.1179V0.6ZM107.162 0.6V1.2H111.184V0.6V0H107.162V0.6ZM115.206 0.6V1.2H119.228V0.6V0H115.206V0.6ZM123.25 0.6V1.2H127.272V0.6V0H123.25V0.6ZM131.294 0.6V1.2H135.316V0.6V0H131.294V0.6ZM139.338 0.6V1.2H143.36V0.6V0H139.338V0.6ZM147.382 0.6V1.2H151.404V0.6V0H147.382V0.6ZM155.426 0.6V1.2H159.448V0.6V0H155.426V0.6ZM163.471 0.6V1.2H167.493V0.6V0H163.471V0.6ZM171.515 0.6V1.2H175.537V0.6V0H171.515V0.6ZM179.559 0.6V1.2H183.581V0.6V0H179.559V0.6ZM187.603 0.6V1.2H191.625V0.6V0H187.603V0.6ZM195.647 0.6V1.2H199.669V0.6V0H195.647V0.6ZM203.691 0.6V1.2H207.713V0.6V0H203.691V0.6ZM211.735 0.6V1.2H215.757V0.6V0H211.735V0.6ZM219.779 0.6V1.2H223.801V0.6V0H219.779V0.6ZM227.823 0.6V1.2H231.845V0.6V0H227.823V0.6ZM235.867 0.6V1.2H239.889V0.6V0H235.867V0.6ZM243.911 0.6V1.2H247.933V0.6V0H243.911V0.6ZM251.955 0.6V1.2H255.977V0.6V0H251.955V0.6ZM259.999 0.6V1.2H264.021V0.6V0H259.999V0.6ZM268.043 0.6V1.2H272.065V0.6V0H268.043V0.6ZM276.087 0.6V1.2H280.109V0.6V0H276.087V0.6ZM284.132 0.6V1.2H288.154V0.6V0H284.132V0.6ZM292.176 0.6V1.2H296.198V0.6V0H292.176V0.6ZM300.22 0.6V1.2H304.242V0.6V0H300.22V0.6ZM308.264 0.6V1.2H312.286V0.6V0H308.264V0.6ZM316.308 0.6V1.2H320.33V0.6V0H316.308V0.6ZM324.352 0.6V1.2H328.374V0.6V0H324.352V0.6ZM332.396 0.6V1.2H336.418V0.6V0H332.396V0.6ZM340.44 0.6V1.2H344.462V0.6V0H340.44V0.6ZM348.484 0.6V1.2H352.506V0.6V0H348.484V0.6ZM356.528 0.6V1.2H360.55V0.6V0H356.528V0.6ZM364.572 0.6V1.2H368.594V0.6V0H364.572V0.6ZM372.616 0.6V1.2H376.638V0.6V0H372.616V0.6ZM380.66 0.6V1.2H384.682V0.6V0H380.66V0.6ZM388.704 0.6V1.2H392.726V0.6V0H388.704V0.6ZM396.748 0.6V1.2H400.77V0.6V0H396.748V0.6ZM404.793 0.6V1.2H408.815V0.6V0H404.793V0.6ZM412.837 0.6V1.2H416.859V0.6V0H412.837V0.6ZM420.881 0.6V1.2H424.903V0.6V0H420.881V0.6ZM428.925 0.6V1.2H432.947V0.6V0H428.925V0.6ZM436.969 0.6V1.2H440.991V0.6V0H436.969V0.6ZM445.013 0.6V1.2H449.035V0.6V0H445.013V0.6ZM453.057 0.6V1.2H457.079V0.6V0H453.057V0.6ZM461.101 0.6V1.2H465.123V0.6V0H461.101V0.6ZM469.145 0.6V1.2H473.167V0.6V0H469.145V0.6ZM477.189 0.6V1.2H481.211V0.6V0H477.189V0.6ZM485.233 0.6V1.2H489.255V0.6V0H485.233V0.6ZM493.277 0.6V1.2H497.299V0.6V0H493.277V0.6ZM501.321 0.6V1.2H505.343V0.6V0H501.321V0.6ZM509.365 0.6V1.2H513.387V0.6V0H509.365V0.6ZM517.41 0.6V1.2H521.432V0.6V0H517.41V0.6ZM525.454 0.6V1.2H529.476V0.6V0H525.454V0.6ZM533.498 0.6V1.2H537.52V0.6V0H533.498V0.6ZM541.542 0.6V1.2H545.564V0.6V0H541.542V0.6ZM549.586 0.6V1.2H553.608V0.6V0H549.586V0.6ZM557.63 0.6V1.2H561.652V0.6V0H557.63V0.6ZM565.674 0.6V1.2H569.696V0.6V0H565.674V0.6ZM573.718 0.6V1.2H577.74V0.6V0H573.718V0.6ZM581.762 0.6V1.2H585.784V0.6V0H581.762V0.6ZM589.806 0.6V1.2H593.828V0.6V0H589.806V0.6ZM597.85 0.6V1.2H601.872V0.6V0H597.85V0.6ZM605.894 0.6V1.2H607.906V0.6V0H605.894V0.6ZM607.906 0.6V1.2C608.368 1.2 608.807 1.29186 609.207 1.45776L609.437 0.903522L609.667 0.349286C609.123 0.124027 608.528 0 607.906 0V0.6ZM611.602 3.06885L611.048 3.29868C611.214 3.69874 611.306 4.13788 611.306 4.6H611.906H612.506C612.506 3.97738 612.382 3.38222 612.156 2.83901L611.602 3.06885ZM611.906 4.6H611.306V6.61692H611.906H612.506V4.6H611.906ZM611.906 10.6508H611.306V14.6846H611.906H612.506V10.6508H611.906ZM611.906 18.7185H611.306V22.7523H611.906H612.506V18.7185H611.906ZM611.906 26.7861H611.306V30.82H611.906H612.506V26.7861H611.906ZM611.906 34.8538H611.306V38.8877H611.906H612.506V34.8538H611.906ZM611.906 42.9215H611.306V46.9554H611.906H612.506V42.9215H611.906ZM611.906 50.9892H611.306V55.0231H611.906H612.506V50.9892H611.906ZM611.906 59.0569H611.306V63.0907H611.906H612.506V59.0569H611.906ZM611.906 67.1246H611.306V71.1584H611.906H612.506V67.1246H611.906ZM611.906 75.1923H611.306V79.2261H611.906H612.506V75.1923H611.906ZM611.906 83.26H611.306V87.2938H611.906H612.506V83.26H611.906ZM611.906 91.3277H611.306V95.3615H611.906H612.506V91.3277H611.906ZM611.906 99.3953H611.306V103.429H611.906H612.506V99.3953H611.906ZM611.906 107.463H611.306V111.497H611.906H612.506V107.463H611.906ZM611.906 115.531H611.306V119.565H611.906H612.506V115.531H611.906ZM611.906 123.598H611.306V127.632H611.906H612.506V123.598H611.906ZM611.906 131.666H611.306V135.7H611.906H612.506V131.666H611.906ZM611.906 139.734H611.306V143.768H611.906H612.506V139.734H611.906ZM611.906 147.801H611.306V151.835H611.906H612.506V147.801H611.906ZM611.906 155.869H611.306V159.903H611.906H612.506V155.869H611.906ZM611.906 163.937H611.306V167.971H611.906H612.506V163.937H611.906ZM611.906 172.005H611.306V176.038H611.906H612.506V172.005H611.906ZM611.906 180.072H611.306V184.106H611.906H612.506V180.072H611.906ZM611.906 188.14H611.306V192.174H611.906H612.506V188.14H611.906ZM611.906 196.208H611.306V200.241H611.906H612.506V196.208H611.906ZM611.906 204.275H611.306V208.309H611.906H612.506V204.275H611.906ZM611.906 212.343H611.306V216.377H611.906H612.506V212.343H611.906ZM611.906 220.411H611.306V224.445H611.906H612.506V220.411H611.906ZM611.906 228.478H611.306V232.512H611.906H612.506V228.478H611.906ZM611.906 236.546H611.306V238.563H611.906H612.506V236.546H611.906ZM611.906 238.563H611.306C611.306 239.186 611.43 239.781 611.655 240.324L612.209 240.094L612.763 239.864C612.597 239.464 612.506 239.025 612.506 238.563H611.906ZM614.375 242.259L614.145 242.814C614.688 243.039 615.283 243.163 615.906 243.163V242.563V241.963C615.444 241.963 615.004 241.871 614.604 241.705L614.375 242.259ZM615.906 242.563V243.163H617.851V242.563V241.963H615.906V242.563ZM621.742 242.563V243.163H625.634V242.563V241.963H621.742V242.563ZM629.525 242.563V243.163H633.416V242.563V241.963H629.525V242.563ZM637.307 242.563V243.163H641.198V242.563V241.963H637.307V242.563ZM645.09 242.563V243.163H648.981V242.563V241.963H645.09V242.563ZM652.872 242.563V243.163H656.763V242.563V241.963H652.872V242.563Z" fill="var(--stroke-0, #4E4E4E)"/>
</svg>
