<svg preserveAspectRatio="none" width="100%" height="100%" overflow="visible" style="display: block;" viewBox="0 0 662.6 243.8" fill="none" xmlns="http://www.w3.org/2000/svg">
<path id="Vector 108" d="M8.4 240.6C8.4 242.367 9.83269 243.8 11.6 243.8C13.3673 243.8 14.8 242.367 14.8 240.6C14.8 238.833 13.3673 237.4 11.6 237.4C9.83269 237.4 8.4 238.833 8.4 240.6ZM662.6 169.563L656.6 166.099V173.027L662.6 169.563ZM11.6 240.6V240H9.85V240.6V241.2H11.6V240.6ZM6.35 240.6V240H4.6V240.6V241.2H6.35V240.6ZM4.6 240.6V240C4.13788 240 3.69873 239.908 3.29868 239.742L3.06885 240.296L2.83902 240.851C3.38222 241.076 3.97738 241.2 4.6 241.2V240.6ZM0.903522 238.131L1.45776 237.901C1.29186 237.501 1.2 237.062 1.2 236.6H0.6H0C0 237.223 0.124027 237.818 0.349286 238.361L0.903522 238.131ZM0.6 236.6H1.2V234.6H0.6H0V236.6H0.6ZM0.6 230.6H1.2V226.6H0.6H0V230.6H0.6ZM0.6 222.6H1.2V218.6H0.6H0V222.6H0.6ZM0.6 214.6H1.2V210.6H0.6H0V214.6H0.6ZM0.6 206.6H1.2V202.6H0.6H0V206.6H0.6ZM0.6 198.6H1.2V194.6H0.6H0V198.6H0.6ZM0.6 190.6H1.2V186.6H0.6H0V190.6H0.6ZM0.6 182.6H1.2V178.6H0.6H0V182.6H0.6ZM0.6 174.6H1.2V170.6H0.6H0V174.6H0.6ZM0.6 166.6H1.2V162.6H0.6H0V166.6H0.6ZM0.6 158.6H1.2V154.6H0.6H0V158.6H0.6ZM0.6 150.6H1.2V146.6H0.6H0V150.6H0.6ZM0.6 142.6H1.2V138.6H0.6H0V142.6H0.6ZM0.6 134.6H1.2V130.6H0.6H0V134.6H0.6ZM0.6 126.6H1.2V122.6H0.6H0V126.6H0.6ZM0.6 118.6H1.2V114.6H0.6H0V118.6H0.6ZM0.6 110.6H1.2V106.6H0.6H0V110.6H0.6ZM0.6 102.6H1.2V98.6H0.6H0V102.6H0.6ZM0.6 94.6H1.2V90.6H0.6H0V94.6H0.6ZM0.6 86.6H1.2V82.6H0.6H0V86.6H0.6ZM0.6 78.6H1.2V74.6H0.6H0V78.6H0.6ZM0.6 70.6H1.2V66.6H0.6H0V70.6H0.6ZM0.6 62.6H1.2V58.6H0.6H0V62.6H0.6ZM0.6 54.6H1.2V50.6H0.6H0V54.6H0.6ZM0.6 46.6H1.2V42.6H0.6H0V46.6H0.6ZM0.6 38.6H1.2V34.6H0.6H0V38.6H0.6ZM0.6 30.6H1.2V26.6H0.6H0V30.6H0.6ZM0.6 22.6H1.2V18.6H0.6H0V22.6H0.6ZM0.6 14.6H1.2V10.6H0.6H0V14.6H0.6ZM0.6 6.59999H1.2V4.6H0.6H0V6.59999H0.6ZM0.6 4.6H1.2C1.2 4.13788 1.29186 3.69873 1.45776 3.29868L0.903522 3.06885L0.349287 2.83901C0.124027 3.38222 0 3.97738 0 4.6H0.6ZM3.06885 0.903521L3.29868 1.45776C3.69873 1.29186 4.13788 1.2 4.6 1.2V0.6V0C3.97739 0 3.38222 0.124027 2.83902 0.349286L3.06885 0.903521ZM4.6 0.6V1.2H6.61102V0.6V0H4.6V0.6ZM10.6331 0.6V1.2H14.6551V0.6V0H10.6331V0.6ZM18.6771 0.6V1.2H22.6992V0.6V0H18.6771V0.6ZM26.7212 0.6V1.2H30.7432V0.6V0H26.7212V0.6ZM34.7653 0.6V1.2H38.7873V0.6V0H34.7653V0.6ZM42.8094 0.6V1.2H46.8314V0.6V0H42.8094V0.6ZM50.8534 0.6V1.2H54.8755V0.6V0H50.8534V0.6ZM58.8975 0.6V1.2H62.9195V0.6V0H58.8975V0.6ZM66.9416 0.6V1.2H70.9636V0.6V0H66.9416V0.6ZM74.9857 0.6V1.2H79.0077V0.6V0H74.9857V0.6ZM83.0297 0.6V1.2H87.0518V0.6V0H83.0297V0.6ZM91.0738 0.6V1.2H95.0959V0.6V0H91.0738V0.6ZM99.1179 0.6V1.2H103.14V0.6V0H99.1179V0.6ZM107.162 0.6V1.2H111.184V0.6V0H107.162V0.6ZM115.206 0.6V1.2H119.228V0.6V0H115.206V0.6ZM123.25 0.6V1.2H127.272V0.6V0H123.25V0.6ZM131.294 0.6V1.2H135.316V0.6V0H131.294V0.6ZM139.338 0.6V1.2H143.36V0.6V0H139.338V0.6ZM147.382 0.6V1.2H151.404V0.6V0H147.382V0.6ZM155.426 0.6V1.2H159.448V0.6V0H155.426V0.6ZM163.471 0.6V1.2H167.493V0.6V0H163.471V0.6ZM171.515 0.6V1.2H175.537V0.6V0H171.515V0.6ZM179.559 0.6V1.2H183.581V0.6V0H179.559V0.6ZM187.603 0.6V1.2H191.625V0.6V0H187.603V0.6ZM195.647 0.6V1.2H199.669V0.6V0H195.647V0.6ZM203.691 0.6V1.2H207.713V0.6V0H203.691V0.6ZM211.735 0.6V1.2H215.757V0.6V0H211.735V0.6ZM219.779 0.6V1.2H223.801V0.6V0H219.779V0.6ZM227.823 0.6V1.2H231.845V0.6V0H227.823V0.6ZM235.867 0.6V1.2H239.889V0.6V0H235.867V0.6ZM243.911 0.6V1.2H247.933V0.6V0H243.911V0.6ZM251.955 0.6V1.2H255.977V0.6V0H251.955V0.6ZM259.999 0.6V1.2H264.021V0.6V0H259.999V0.6ZM268.043 0.6V1.2H272.065V0.6V0H268.043V0.6ZM276.087 0.6V1.2H280.109V0.6V0H276.087V0.6ZM284.132 0.6V1.2H288.154V0.6V0H284.132V0.6ZM292.176 0.6V1.2H296.198V0.6V0H292.176V0.6ZM300.22 0.6V1.2H304.242V0.6V0H300.22V0.6ZM308.264 0.6V1.2H312.286V0.6V0H308.264V0.6ZM316.308 0.6V1.2H320.33V0.6V0H316.308V0.6ZM324.352 0.6V1.2H328.374V0.6V0H324.352V0.6ZM332.396 0.6V1.2H336.418V0.6V0H332.396V0.6ZM340.44 0.6V1.2H344.462V0.6V0H340.44V0.6ZM348.484 0.6V1.2H352.506V0.6V0H348.484V0.6ZM356.528 0.6V1.2H360.55V0.6V0H356.528V0.6ZM364.572 0.6V1.2H368.594V0.6V0H364.572V0.6ZM372.616 0.6V1.2H376.638V0.6V0H372.616V0.6ZM380.66 0.6V1.2H384.682V0.6V0H380.66V0.6ZM388.704 0.6V1.2H392.726V0.6V0H388.704V0.6ZM396.748 0.6V1.2H400.77V0.6V0H396.748V0.6ZM404.793 0.6V1.2H408.815V0.6V0H404.793V0.6ZM412.837 0.6V1.2H416.859V0.6V0H412.837V0.6ZM420.881 0.6V1.2H424.903V0.6V0H420.881V0.6ZM428.925 0.6V1.2H432.947V0.6V0H428.925V0.6ZM436.969 0.6V1.2H440.991V0.6V0H436.969V0.6ZM445.013 0.6V1.2H449.035V0.6V0H445.013V0.6ZM453.057 0.6V1.2H457.079V0.6V0H453.057V0.6ZM461.101 0.6V1.2H465.123V0.6V0H461.101V0.6ZM469.145 0.6V1.2H473.167V0.6V0H469.145V0.6ZM477.189 0.6V1.2H481.211V0.6V0H477.189V0.6ZM485.233 0.6V1.2H489.255V0.6V0H485.233V0.6ZM493.277 0.6V1.2H497.299V0.6V0H493.277V0.6ZM501.321 0.6V1.2H505.343V0.6V0H501.321V0.6ZM509.365 0.6V1.2H513.387V0.6V0H509.365V0.6ZM517.41 0.6V1.2H521.432V0.6V0H517.41V0.6ZM525.454 0.6V1.2H529.476V0.6V0H525.454V0.6ZM533.498 0.6V1.2H537.52V0.6V0H533.498V0.6ZM541.542 0.6V1.2H545.564V0.6V0H541.542V0.6ZM549.586 0.6V1.2H553.608V0.6V0H549.586V0.6ZM557.63 0.6V1.2H561.652V0.6V0H557.63V0.6ZM565.674 0.6V1.2H569.696V0.6V0H565.674V0.6ZM573.718 0.6V1.2H577.74V0.6V0H573.718V0.6ZM581.762 0.6V1.2H585.784V0.6V0H581.762V0.6ZM589.806 0.6V1.2H593.828V0.6V0H589.806V0.6ZM597.85 0.6V1.2H601.872V0.6V0H597.85V0.6ZM605.894 0.6V1.2H607.906V0.6V0H605.894V0.6ZM607.906 0.6V1.2C608.368 1.2 608.807 1.29186 609.207 1.45776L609.437 0.903522L609.667 0.349286C609.123 0.124027 608.528 0 607.906 0V0.6ZM611.602 3.06885L611.048 3.29868C611.214 3.69874 611.306 4.13788 611.306 4.6H611.906H612.506C612.506 3.97738 612.382 3.38222 612.156 2.83901L611.602 3.06885ZM611.906 4.6H611.306V6.61204H611.906H612.506V4.6H611.906ZM611.906 10.6361H611.306V14.6602H611.906H612.506V10.6361H611.906ZM611.906 18.6843H611.306V22.7083H611.906H612.506V18.6843H611.906ZM611.906 26.7324H611.306V30.7565H611.906H612.506V26.7324H611.906ZM611.906 34.7806H611.306V38.8046H611.906H612.506V34.7806H611.906ZM611.906 42.8287H611.306V46.8528H611.906H612.506V42.8287H611.906ZM611.906 50.8769H611.306V54.9009H611.906H612.506V50.8769H611.906ZM611.906 58.925H611.306V62.9491H611.906H612.506V58.925H611.906ZM611.906 66.9732H611.306V70.9972H611.906H612.506V66.9732H611.906ZM611.906 75.0213H611.306V79.0454H611.906H612.506V75.0213H611.906ZM611.906 83.0694H611.306V87.0935H611.906H612.506V83.0694H611.906ZM611.906 91.1176H611.306V95.1416H611.906H612.506V91.1176H611.906ZM611.906 99.1657H611.306V103.19H611.906H612.506V99.1657H611.906ZM611.906 107.214H611.306V111.238H611.906H612.506V107.214H611.906ZM611.906 115.262H611.306V119.286H611.906H612.506V115.262H611.906ZM611.906 123.31H611.306V127.334H611.906H612.506V123.31H611.906ZM611.906 131.358H611.306V135.382H611.906H612.506V131.358H611.906ZM611.906 139.406H611.306V143.431H611.906H612.506V139.406H611.906ZM611.906 147.455H611.306V151.479H611.906H612.506V147.455H611.906ZM611.906 155.503H611.306V159.527H611.906H612.506V155.503H611.906ZM611.906 163.551H611.306V165.563H611.906H612.506V163.551H611.906ZM611.906 165.563H611.306C611.306 166.186 611.43 166.781 611.655 167.324L612.209 167.094L612.763 166.864C612.597 166.464 612.506 166.025 612.506 165.563H611.906ZM614.375 169.259L614.145 169.814C614.688 170.039 615.283 170.163 615.906 170.163V169.563V168.963C615.444 168.963 615.004 168.871 614.604 168.705L614.375 169.259ZM615.906 169.563V170.163H617.851V169.563V168.963H615.906V169.563ZM621.742 169.563V170.163H625.634V169.563V168.963H621.742V169.563ZM629.525 169.563V170.163H633.416V169.563V168.963H629.525V169.563ZM637.307 169.563V170.163H641.198V169.563V168.963H637.307V169.563ZM645.09 169.563V170.163H648.981V169.563V168.963H645.09V169.563ZM652.872 169.563V170.163H656.763V169.563V168.963H652.872V169.563Z" fill="var(--stroke-0, #4E4E4E)"/>
</svg>
