<svg preserveAspectRatio="none" width="100%" height="100%" overflow="visible" style="display: block;" viewBox="0 0 42.059 53.6005" fill="none" xmlns="http://www.w3.org/2000/svg">
<g id="Ellipse">
<mask id="path-1-inside-1_0_21" fill="white">
<path d="M-1.83846e-06 0C6.50879 -2.84508e-07 12.9288 1.51062 18.7546 4.41298C24.5805 7.31533 29.6533 11.5302 33.5737 16.7259C37.4941 21.9215 40.1551 27.9561 41.3474 34.3548C42.5396 40.7535 42.2305 47.3415 40.4444 53.6005L20.2222 47.8297C21.1153 44.7003 21.2698 41.4062 20.6737 38.2069C20.0776 35.0076 18.747 31.9902 16.7868 29.3924C14.8266 26.7946 12.2902 24.6872 9.37732 23.236C6.46438 21.7848 3.25439 21.0295 -9.19228e-07 21.0295L-1.83846e-06 0Z"/>
</mask>
<path d="M-1.83846e-06 0C6.50879 -2.84508e-07 12.9288 1.51062 18.7546 4.41298C24.5805 7.31533 29.6533 11.5302 33.5737 16.7259C37.4941 21.9215 40.1551 27.9561 41.3474 34.3548C42.5396 40.7535 42.2305 47.3415 40.4444 53.6005L20.2222 47.8297C21.1153 44.7003 21.2698 41.4062 20.6737 38.2069C20.0776 35.0076 18.747 31.9902 16.7868 29.3924C14.8266 26.7946 12.2902 24.6872 9.37732 23.236C6.46438 21.7848 3.25439 21.0295 -9.19228e-07 21.0295L-1.83846e-06 0Z" fill="var(--fill-0, #006EF9)" stroke="var(--stroke-0, white)" stroke-width="1.29213" mask="url(#path-1-inside-1_0_21)"/>
</g>
</svg>
