<svg preserveAspectRatio="none" width="100%" height="100%" overflow="visible" style="display: block;" viewBox="0 0 136.593 49.2771" fill="none" xmlns="http://www.w3.org/2000/svg">
<path id="Vector 92" d="M0 46.0771C0 47.8444 1.43269 49.2771 3.2 49.2771C4.96731 49.2771 6.4 47.8444 6.4 46.0771C6.4 44.3098 4.96731 42.8771 3.2 42.8771C1.43269 42.8771 0 44.3098 0 46.0771ZM136.593 5.68279L131.834 0.647587L129.853 7.28648L136.593 5.68279ZM3.2 46.0771L3.79416 46.1606C3.89495 45.4435 4.02758 44.7325 4.19113 44.0277L3.60667 43.8921L3.0222 43.7565C2.85075 44.4952 2.71162 45.241 2.60584 45.9936L3.2 46.0771ZM4.97406 39.6657L5.52787 39.8965C6.07603 38.5815 6.73383 37.2903 7.49517 36.0243L6.98098 35.7151L6.46679 35.4059C5.67707 36.7191 4.99228 38.0626 4.42026 39.4348L4.97406 39.6657ZM9.50646 32.066L9.97835 32.4365C10.8597 31.3142 11.824 30.2147 12.8662 29.1393L12.4353 28.7217L12.0045 28.3042C10.9353 29.4074 9.94334 30.5382 9.03457 31.6954L9.50646 32.066ZM15.6718 25.6683L16.0647 26.1217C17.1505 25.1808 18.2971 24.2612 19.5006 23.364L19.142 22.883L18.7834 22.402C17.5578 23.3157 16.3881 24.2535 15.2788 25.2149L15.6718 25.6683ZM22.7906 20.3413L23.1184 20.8439C24.3279 20.0552 25.5824 19.2864 26.8786 18.5384L26.5787 18.0187L26.2789 17.4991C24.9647 18.2574 23.6915 19.0375 22.4629 19.8387L22.7906 20.3413ZM30.4816 15.8921L30.7562 16.4256C32.0461 15.7616 33.3699 15.1165 34.7248 14.4908L34.4733 13.9461L34.2218 13.4014C32.8519 14.0339 31.5127 14.6865 30.207 15.3586L30.4816 15.8921ZM38.5407 12.1644L38.7709 12.7184C40.1165 12.1594 41.4878 11.6185 42.8825 11.0964L42.6721 10.5345L42.4618 9.97254C41.0541 10.4996 39.6696 11.0456 38.3105 11.6103L38.5407 12.1644ZM46.8583 9.04632L47.05 9.61486C48.4363 9.14733 49.8422 8.69761 51.2655 8.26613L51.0915 7.69193L50.9174 7.11774C49.4825 7.55273 48.0648 8.00621 46.6665 8.47778L46.8583 9.04632ZM55.3652 6.46495L55.5224 7.044C56.9392 6.65941 58.3705 6.29251 59.8144 5.94369L59.6735 5.36046L59.5326 4.77724C58.078 5.12866 56.6358 5.49834 55.208 5.88591L55.3652 6.46495ZM64.0111 4.37472L64.1362 4.96153C65.574 4.65506 67.0219 4.36633 68.4782 4.09572L68.3686 3.50581L68.2589 2.91591C66.7924 3.18843 65.3342 3.47922 63.886 3.7879L64.0111 4.37472ZM72.747 2.7506L72.8414 3.34313C74.2967 3.11135 75.7584 2.89766 77.2246 2.7024L77.1454 2.10765L77.0662 1.5129C75.5899 1.7095 74.1181 1.92468 72.6527 2.15807L72.747 2.7506ZM81.5595 1.57696L81.6235 2.17353C83.0915 2.01599 84.5622 1.87711 86.0338 1.75721L85.9851 1.15919L85.9364 0.561174C84.4545 0.681904 82.9736 0.821757 81.4955 0.980385L81.5595 1.57696ZM90.4184 0.855678L90.4515 1.45476C91.9284 1.37293 93.4044 1.31058 94.8777 1.26804L94.8604 0.668292L94.8431 0.068542C93.3591 0.111385 91.8725 0.174188 90.3852 0.256597L90.4184 0.855678ZM99.3065 0.60021L99.3075 1.20021C100.789 1.19781 102.266 1.216 103.736 1.25513L103.752 0.65534L103.768 0.0555518C102.286 0.0161201 100.798 -0.00220424 99.3056 0.000210881L99.3065 0.60021ZM108.193 0.838445L108.159 1.4375C109.639 1.52054 111.111 1.62558 112.571 1.753L112.624 1.15527L112.676 0.557537C111.202 0.429021 109.718 0.323101 108.226 0.239387L108.193 0.838445ZM117.04 1.61275L116.968 2.20845C118.444 2.3861 119.907 2.58772 121.355 2.8137L121.447 2.22088L121.54 1.62806C120.078 1.39986 118.601 1.19633 117.112 1.01705L117.04 1.61275ZM125.829 2.98868L125.714 3.57758C127.174 3.86234 128.616 4.17346 130.037 4.51138L130.175 3.92766L130.314 3.34394C128.877 3.00212 127.419 2.68755 125.944 2.39977L125.829 2.98868Z" fill="var(--stroke-0, #4E4E4E)"/>
</svg>
