<svg preserveAspectRatio="none" width="100%" height="100%" overflow="visible" style="display: block;" viewBox="0 0 27 27" fill="none" xmlns="http://www.w3.org/2000/svg">
<g id="Frame">
<path id="Vector" d="M5.30257 8.01912L5.02517 8.65551C4.82216 9.12141 4.17777 9.12141 3.97476 8.65551L3.69738 8.01912C3.20294 6.8844 2.31238 5.98096 1.20113 5.48671L0.346553 5.10662C-0.115517 4.9011 -0.115517 4.22866 0.346553 4.02313L1.15335 3.66428C2.29318 3.15732 3.19969 2.22045 3.68563 1.04718L3.97048 0.359475C4.169 -0.119825 4.83094 -0.119825 5.02946 0.359475L5.3143 1.04718C5.80024 2.22045 6.70678 3.15732 7.84665 3.66428L8.65336 4.02313C9.11555 4.22866 9.11555 4.9011 8.65336 5.10662L7.79881 5.48671C6.68757 5.98096 5.79699 6.8844 5.30257 8.01912ZM20.5063 2.66771L14.9497 6.9895C10.51 5.89413 6.25323 8.48977 5.0625 12.9337C4.94804 13.3608 4.91228 13.7948 4.87482 14.2493C4.74558 15.8174 4.59623 17.6295 1.125 20.2462C3.9375 21.9337 9 23.6232 12.9393 23.6232C16.666 23.6232 20.0771 21.1383 21.0874 17.3674C21.469 15.9434 21.4625 14.5069 21.1328 13.17L25.4535 7.61489C25.8018 7.16704 25.7622 6.52989 25.3609 6.12871L21.9924 2.76024C21.5912 2.35906 20.9541 2.31939 20.5063 2.66771ZM19.0071 9.32085C18.9359 9.24696 18.8632 9.17431 18.7892 9.10293L17.524 7.83771L21.1038 5.05348L23.0677 7.01746L20.2834 10.5972L19.0071 9.32085Z" fill="var(--fill-0, white)"/>
</g>
</svg>
