<svg preserveAspectRatio="none" width="100%" height="100%" overflow="visible" style="display: block;" viewBox="0 0 460.798 361.701" fill="none" xmlns="http://www.w3.org/2000/svg">
<path id="Vector 95" d="M454.398 358.501C454.398 360.268 455.831 361.701 457.598 361.701C459.365 361.701 460.798 360.268 460.798 358.501C460.798 356.734 459.365 355.301 457.598 355.301C455.831 355.301 454.398 356.734 454.398 358.501ZM0 4.12592L6.35599 6.88298L5.56568 0L0 4.12592ZM6.76819 3.4573L6.81263 4.05566C8.28827 3.94605 9.74937 3.86181 11.1962 3.80252L11.1717 3.20302L11.1471 2.60352C9.6868 2.66337 8.21244 2.74838 6.72375 2.85895L6.76819 3.4573ZM15.4902 3.09905L15.4943 3.69904C16.9656 3.68885 18.4219 3.70504 19.8635 3.74714L19.881 3.1474L19.8985 2.54765C18.4423 2.50512 16.9716 2.48878 15.486 2.49907L15.4902 3.09905ZM24.359 3.36377L24.3184 3.9624C25.7878 4.06189 27.2416 4.18895 28.6802 4.34306L28.7441 3.74647L28.808 3.14989C27.3537 2.9941 25.8843 2.86568 24.3995 2.76514L24.359 3.36377ZM33.0385 4.29244L32.951 4.88603C34.4168 5.10213 35.8665 5.34696 37.3006 5.61993L37.4128 5.03051L37.525 4.44109C36.0744 4.16499 34.6082 3.91739 33.1261 3.69886L33.0385 4.29244ZM41.7549 5.95289L41.6177 6.53699C43.041 6.87125 44.4487 7.23388 45.8413 7.62427L46.0033 7.04654L46.1652 6.46881C44.7562 6.07382 43.332 5.70693 41.892 5.36878L41.7549 5.95289ZM50.1831 8.31526L49.9966 8.88554C51.3989 9.34417 52.7857 9.83159 54.1574 10.3471L54.3685 9.78551L54.5796 9.22387C53.1917 8.70223 51.7886 8.20905 50.3696 7.74499L50.1831 8.31526ZM58.4628 11.4255L58.2278 11.9776C59.5698 12.5488 60.8973 13.1475 62.2106 13.7731L62.4687 13.2314L62.7267 12.6897C61.3983 12.057 60.0554 11.4513 58.6977 10.8735L58.4628 11.4255ZM66.4025 15.2063L66.1223 15.7369C67.4138 16.4189 68.6916 17.1274 69.956 17.8617L70.2573 17.3429L70.5587 16.824C69.2805 16.0817 67.9886 15.3654 66.6827 14.6758L66.4025 15.2063ZM74.0313 19.6349L73.71 20.1416C74.9424 20.9232 76.1622 21.7297 77.3697 22.5606L77.7098 22.0663L78.0499 21.572C76.8303 20.7328 75.598 19.9179 74.3527 19.1282L74.0313 19.6349ZM81.2782 24.6174L80.9207 25.0992C82.0926 25.9689 83.2531 26.8617 84.4024 27.7772L84.7762 27.3079L85.15 26.8385C83.9902 25.9148 82.819 25.0135 81.6357 24.1356L81.2782 24.6174ZM88.2063 30.1338L87.8174 30.5907C88.9184 31.5281 90.0093 32.4866 91.0904 33.4654L91.4931 33.0206L91.8958 32.5758C90.8059 31.589 89.7059 30.6226 88.5953 29.677L88.2063 30.1338ZM94.7067 36.0164L94.2914 36.4494C95.349 37.4638 96.3972 38.4979 97.4366 39.5511L97.8637 39.1296L98.2907 38.7081C97.2438 37.6474 96.1878 36.6056 95.1221 35.5834L94.7067 36.0164ZM100.937 42.3253L100.499 42.7356C101.486 43.7881 102.465 44.8578 103.436 45.9442L103.883 45.5443L104.331 45.1444C103.353 44.0512 102.368 42.9745 101.375 41.9149L100.937 42.3253ZM106.784 48.8632L106.327 49.253C107.284 50.3723 108.233 51.5077 109.176 52.6587L109.64 52.2786L110.104 51.8985C109.157 50.7411 108.202 49.5992 107.24 48.4734L106.784 48.8632ZM112.395 55.7115L111.923 56.0826C112.818 57.2198 113.707 58.3711 114.59 59.536L115.069 59.1735L115.547 58.811C114.659 57.6406 113.766 56.4836 112.867 55.3405L112.395 55.7115ZM117.707 62.7163L117.223 63.0707C118.095 64.2622 118.962 65.4668 119.824 66.684L120.314 66.3373L120.803 65.9906C119.938 64.7684 119.068 63.5587 118.192 62.3619L117.707 62.7163ZM122.821 69.9339L122.326 70.2735C123.147 71.4695 123.964 72.6767 124.776 73.8948L125.276 73.5619L125.775 73.2289C124.959 72.0065 124.14 70.7948 123.315 69.5943L122.821 69.9339ZM127.705 77.2546L127.202 77.5813C128.007 78.8208 128.808 80.0706 129.605 81.3305L130.112 81.0097L130.619 80.6888C129.819 79.4251 129.016 78.1714 128.209 76.9279L127.705 77.2546ZM132.437 84.7281L131.927 85.0436C132.691 86.2794 133.452 87.524 134.21 88.7773L134.723 88.4668L135.237 88.1562C134.477 86.8998 133.714 85.6518 132.948 84.4126L132.437 84.7281ZM136.992 92.2566L136.476 92.5626C137.229 93.8326 137.979 95.1109 138.728 96.397L139.246 96.0954L139.765 95.7937C139.015 94.5048 138.263 93.2237 137.509 91.9507L136.992 92.2566ZM141.445 99.9093L140.925 100.207C141.646 101.469 142.366 102.738 143.084 104.014L143.607 103.72L144.13 103.426C143.41 102.147 142.689 100.876 141.966 99.6115L141.445 99.9093ZM145.758 107.57L145.234 107.861C145.949 109.15 146.663 110.445 147.375 111.746L147.901 111.458L148.428 111.17C147.714 109.867 146.999 108.57 146.283 107.279L145.758 107.57ZM150.018 115.346L149.491 115.632C150.183 116.911 150.874 118.195 151.565 119.485L152.094 119.201L152.623 118.918C151.931 117.627 151.239 116.341 150.546 115.06L150.018 115.346ZM154.166 123.087L153.636 123.368C154.326 124.667 155.016 125.971 155.705 127.28L156.236 127L156.766 126.72C156.077 125.411 155.387 124.106 154.696 122.805L154.166 123.087ZM158.303 130.939L157.772 131.217C158.447 132.507 159.122 133.801 159.797 135.099L160.329 134.822L160.862 134.545C160.186 133.247 159.511 131.952 158.835 130.661L158.303 130.939ZM162.356 138.724L161.823 139C162.499 140.304 163.175 141.612 163.852 142.922L164.385 142.646L164.918 142.371C164.241 141.06 163.564 139.753 162.889 138.448L162.356 138.724ZM166.417 146.586L165.884 146.861C166.557 148.166 167.23 149.474 167.905 150.784L168.438 150.509L168.971 150.234C168.297 148.924 167.623 147.616 166.951 146.311L166.417 146.586ZM170.449 154.415L169.916 154.69C170.588 155.994 171.261 157.301 171.935 158.609L172.468 158.334L173.001 158.059C172.327 156.751 171.654 155.445 170.983 154.141L170.449 154.415ZM174.495 162.263L173.962 162.538C174.639 163.849 175.318 165.162 175.999 166.476L176.532 166.2L177.065 165.924C176.384 164.61 175.705 163.298 175.028 161.987L174.495 162.263ZM178.557 170.1L178.025 170.377C178.702 171.678 179.381 172.98 180.062 174.283L180.593 174.005L181.125 173.727C180.444 172.425 179.766 171.124 179.089 169.823L178.557 170.1ZM182.643 177.913L182.112 178.192C182.797 179.496 183.485 180.8 184.176 182.104L184.706 181.823L185.236 181.542C184.546 180.239 183.859 178.936 183.174 177.634L182.643 177.913ZM186.779 185.722L186.25 186.004C186.941 187.299 187.635 188.594 188.332 189.888L188.86 189.603L189.388 189.319C188.692 188.026 187.999 186.733 187.308 185.439L186.779 185.722ZM190.958 193.481L190.431 193.768C191.134 195.06 191.839 196.352 192.549 197.643L193.075 197.354L193.6 197.065C192.892 195.776 192.187 194.486 191.485 193.195L190.958 193.481ZM195.211 201.221L194.686 201.512C195.4 202.798 196.118 204.082 196.84 205.364L197.363 205.07L197.886 204.776C197.165 203.496 196.448 202.213 195.735 200.929L195.211 201.221ZM199.535 208.908L199.014 209.205C199.742 210.483 200.474 211.76 201.211 213.034L201.73 212.734L202.25 212.434C201.515 211.161 200.784 209.887 200.056 208.611L199.535 208.908ZM203.949 216.547L203.432 216.85C204.176 218.12 204.925 219.388 205.678 220.652L206.194 220.345L206.709 220.038C205.958 218.776 205.21 217.511 204.467 216.243L203.949 216.547ZM208.465 224.129L207.952 224.44C208.715 225.699 209.482 226.956 210.253 228.21L210.764 227.895L211.275 227.58C210.505 226.33 209.74 225.076 208.979 223.818L208.465 224.129ZM213.092 231.641L212.583 231.96C213.365 233.207 214.151 234.45 214.943 235.689L215.449 235.366L215.954 235.043C215.165 233.807 214.38 232.566 213.6 231.323L213.092 231.641ZM217.84 239.074L217.338 239.402C218.142 240.637 218.952 241.868 219.768 243.095L220.267 242.763L220.767 242.431C219.954 241.207 219.146 239.979 218.343 238.747L217.84 239.074ZM222.727 246.425L222.231 246.762C223.058 247.98 223.89 249.194 224.729 250.402L225.222 250.06L225.715 249.718C224.879 248.513 224.048 247.303 223.224 246.088L222.727 246.425ZM227.752 253.665L227.262 254.013C228.116 255.216 228.977 256.414 229.843 257.606L230.328 257.253L230.814 256.901C229.95 255.712 229.092 254.518 228.241 253.318L227.752 253.665ZM232.944 260.81L232.463 261.168C233.343 262.35 234.229 263.526 235.122 264.696L235.599 264.332L236.076 263.967C235.186 262.801 234.302 261.629 233.425 260.451L232.944 260.81ZM238.294 267.817L237.822 268.187C238.73 269.346 239.645 270.499 240.568 271.645L241.035 271.269L241.503 270.893C240.584 269.751 239.672 268.602 238.767 267.447L238.294 267.817ZM243.827 274.691L243.364 275.074C244.304 276.21 245.251 277.339 246.206 278.461L246.663 278.072L247.12 277.683C246.169 276.566 245.225 275.441 244.289 274.309L243.827 274.691ZM249.544 281.409L249.093 281.804C250.063 282.912 251.04 284.011 252.026 285.103L252.472 284.701L252.917 284.299C251.935 283.212 250.961 282.117 249.995 281.014L249.544 281.409ZM255.453 287.953L255.014 288.362C256.018 289.441 257.031 290.511 258.052 291.574L258.485 291.158L258.918 290.742C257.901 289.684 256.892 288.618 255.892 287.544L255.453 287.953ZM261.568 294.313L261.142 294.736C262.18 295.781 263.227 296.818 264.283 297.846L264.702 297.416L265.12 296.986C264.069 295.963 263.027 294.931 261.993 293.89L261.568 294.313ZM267.887 300.464L267.476 300.901C268.549 301.91 269.63 302.909 270.721 303.898L271.124 303.454L271.527 303.01C270.442 302.025 269.366 301.031 268.298 300.027L267.887 300.464ZM274.415 306.387L274.02 306.839C275.129 307.809 276.248 308.77 277.376 309.721L277.762 309.262L278.149 308.803C277.027 307.857 275.914 306.901 274.81 305.936L274.415 306.387ZM281.167 312.076L280.789 312.542C281.931 313.468 283.083 314.384 284.245 315.289L284.614 314.816L284.983 314.343C283.827 313.442 282.681 312.531 281.545 311.61L281.167 312.076ZM288.11 317.486L287.751 317.966C288.93 318.848 290.118 319.719 291.317 320.579L291.667 320.091L292.016 319.604C290.824 318.748 289.642 317.882 288.47 317.005L288.11 317.486ZM295.284 322.631L294.944 323.125C296.163 323.963 297.393 324.789 298.633 325.603L298.962 325.102L299.292 324.6C298.059 323.79 296.836 322.969 295.624 322.136L295.284 322.631ZM302.647 327.468L302.328 327.976C303.57 328.755 304.823 329.524 306.086 330.28L306.394 329.765L306.702 329.25C305.446 328.498 304.201 327.735 302.966 326.959L302.647 327.468ZM310.205 331.992L309.908 332.513C311.192 333.246 312.488 333.966 313.794 334.675L314.08 334.147L314.366 333.62C313.067 332.916 311.779 332.199 310.502 331.471L310.205 331.992ZM317.987 336.211L317.712 336.745C319.007 337.411 320.313 338.065 321.629 338.708L321.892 338.169L322.155 337.629C320.847 336.991 319.549 336.34 318.261 335.678L317.987 336.211ZM325.862 340.053L325.611 340.598C326.949 341.216 328.298 341.821 329.658 342.414L329.898 341.864L330.137 341.314C328.785 340.725 327.444 340.123 326.114 339.509L325.862 340.053ZM334 343.599L333.772 344.154C335.127 344.71 336.493 345.254 337.87 345.785L338.086 345.225L338.302 344.665C336.933 344.137 335.575 343.597 334.228 343.044L334 343.599ZM342.169 346.75L341.964 347.314C343.34 347.812 344.726 348.297 346.124 348.769L346.316 348.201L346.508 347.632C345.119 347.163 343.74 346.68 342.373 346.186L342.169 346.75ZM350.528 349.576L350.348 350.148C351.768 350.595 353.198 351.03 354.639 351.451L354.808 350.875L354.976 350.299C353.542 349.88 352.12 349.448 350.709 349.004L350.528 349.576ZM359.035 352.063L358.879 352.642C360.273 353.019 361.678 353.383 363.094 353.736L363.239 353.154L363.384 352.571C361.976 352.221 360.579 351.858 359.192 351.484L359.035 352.063ZM367.505 354.171L367.371 354.756C368.808 355.084 370.255 355.399 371.713 355.702L371.834 355.114L371.956 354.527C370.506 354.226 369.067 353.912 367.638 353.586L367.505 354.171ZM376.228 355.982L376.118 356.572C377.567 356.843 379.026 357.103 380.496 357.349L380.596 356.758L380.695 356.166C379.232 355.92 377.78 355.662 376.339 355.392L376.228 355.982ZM384.858 357.434L384.77 358.027C386.204 358.241 387.648 358.444 389.102 358.634L389.18 358.039L389.258 357.445C387.811 357.255 386.374 357.053 384.947 356.84L384.858 357.434ZM393.562 358.574L393.494 359.17C394.969 359.337 396.453 359.492 397.947 359.634L398.004 359.037L398.061 358.44C396.574 358.298 395.096 358.144 393.629 357.978L393.562 358.574ZM402.507 359.427L402.461 360.025C403.894 360.137 405.336 360.237 406.787 360.327L406.824 359.728L406.861 359.129C405.416 359.04 403.98 358.94 402.554 358.829L402.507 359.427ZM411.141 359.96L411.114 360.559C412.565 360.625 414.026 360.681 415.495 360.725L415.513 360.125L415.531 359.525C414.068 359.481 412.613 359.426 411.168 359.36L411.141 359.96ZM419.941 360.224L419.932 360.824C421.421 360.846 422.918 360.856 424.425 360.855L424.425 360.255L424.424 359.655C422.924 359.656 421.432 359.646 419.95 359.624L419.941 360.224ZM428.965 360.218L428.975 360.818C430.402 360.796 431.837 360.763 433.28 360.721L433.262 360.121L433.245 359.521C431.807 359.564 430.377 359.596 428.956 359.618L428.965 360.218ZM437.574 359.964L437.599 360.564C439.047 360.501 440.504 360.429 441.968 360.346L441.935 359.747L441.901 359.148C440.441 359.231 438.99 359.303 437.548 359.365L437.574 359.964ZM446.346 359.469L446.388 360.067C447.869 359.964 449.359 359.851 450.858 359.727L450.808 359.129L450.759 358.531C449.265 358.654 447.781 358.767 446.304 358.87L446.346 359.469ZM455.322 358.726L455.379 359.323C456.137 359.251 456.897 359.176 457.659 359.098L457.598 358.501L457.537 357.904C456.777 357.981 456.02 358.056 455.265 358.129L455.322 358.726Z" fill="var(--stroke-0, #4E4E4E)"/>
</svg>
