<svg preserveAspectRatio="none" width="100%" height="100%" overflow="visible" style="display: block;" viewBox="0 0 20.6641 189.2" fill="none" xmlns="http://www.w3.org/2000/svg">
<path id="Vector 101" d="M0 186C0 187.767 1.43269 189.2 3.2 189.2C4.96731 189.2 6.4 187.767 6.4 186C6.4 184.233 4.96731 182.8 3.2 182.8C1.43269 182.8 0 184.233 0 186ZM17.2 0L13.7359 6H20.6641L17.2 0ZM3.2 186V186.6H5.7V186V185.4H3.2V186ZM10.7 186V186.6H13.2V186V185.4H10.7V186ZM13.2 186V186.6C13.8226 186.6 14.4178 186.476 14.961 186.251L14.7312 185.696L14.5013 185.142C14.1013 185.308 13.6621 185.4 13.2 185.4V186ZM16.8965 183.531L17.4507 183.761C17.676 183.218 17.8 182.623 17.8 182H17.2H16.6C16.6 182.462 16.5081 182.901 16.3422 183.301L16.8965 183.531ZM17.2 182H17.8V179.972H17.2H16.6V182H17.2ZM17.2 175.917H17.8V171.862H17.2H16.6V175.917H17.2ZM17.2 167.807H17.8V163.752H17.2H16.6V167.807H17.2ZM17.2 159.697H17.8V155.642H17.2H16.6V159.697H17.2ZM17.2 151.587H17.8V147.532H17.2H16.6V151.587H17.2ZM17.2 143.476H17.8V139.421H17.2H16.6V143.476H17.2ZM17.2 135.366H17.8V131.311H17.2H16.6V135.366H17.2ZM17.2 127.256H17.8V123.201H17.2H16.6V127.256H17.2ZM17.2 119.146H17.8V115.091H17.2H16.6V119.146H17.2ZM17.2 111.035H17.8V106.98H17.2H16.6V111.035H17.2ZM17.2 102.925H17.8V98.8701H17.2H16.6V102.925H17.2ZM17.2 94.815H17.8V90.7599H17.2H16.6V94.815H17.2ZM17.2 86.7048H17.8V82.6497H17.2H16.6V86.7048H17.2ZM17.2 78.5946H17.8V74.5394H17.2H16.6V78.5946H17.2ZM17.2 70.4843H17.8V66.4292H17.2H16.6V70.4843H17.2ZM17.2 62.3741H17.8V58.319H17.2H16.6V62.3741H17.2ZM17.2 54.2639H17.8V50.2088H17.2H16.6V54.2639H17.2ZM17.2 46.1536H17.8V42.0985H17.2H16.6V46.1536H17.2ZM17.2 38.0434H17.8V36.0158H17.2H16.6V38.0434H17.2ZM17.2 36.0158H17.8V34.215H17.2H16.6V36.0158H17.2ZM17.2 30.6135H17.8V27.0119H17.2H16.6V30.6135H17.2ZM17.2 23.4103H17.8V19.8087H17.2H16.6V23.4103H17.2ZM17.2 16.2071H17.8V12.6055H17.2H16.6V16.2071H17.2ZM17.2 9.00396H17.8V5.40238H17.2H16.6V9.00396H17.2Z" fill="var(--stroke-0, #4E4E4E)"/>
</svg>
