<svg preserveAspectRatio="none" width="100%" height="100%" overflow="visible" style="display: block;" viewBox="0 0 236.2 164.664" fill="none" xmlns="http://www.w3.org/2000/svg">
<path id="Vector 102" d="M0 161.464C0 163.231 1.43269 164.664 3.2 164.664C4.96731 164.664 6.4 163.231 6.4 161.464C6.4 159.697 4.96731 158.264 3.2 158.264C1.43269 158.264 0 159.697 0 161.464ZM236.2 3.4641L230.2 0V6.9282L236.2 3.4641ZM3.2 161.464H3.8V159.438H3.2H2.6V161.464H3.2ZM3.2 155.385H3.8V151.333H3.2H2.6V155.385H3.2ZM3.2 147.28H3.8V143.227H3.2H2.6V147.28H3.2ZM3.2 139.175H3.8V135.122H3.2H2.6V139.175H3.2ZM3.2 131.069H3.8V127.017H3.2H2.6V131.069H3.2ZM3.2 122.964H3.8V118.911H3.2H2.6V122.964H3.2ZM3.2 114.859H3.8V110.806H3.2H2.6V114.859H3.2ZM3.2 106.754H3.8V102.701H3.2H2.6V106.754H3.2ZM3.2 98.6483H3.8V94.5957H3.2H2.6V98.6483H3.2ZM3.2 90.5431H3.8V86.4904H3.2H2.6V90.5431H3.2ZM3.2 82.4378H3.8V78.3852H3.2H2.6V82.4378H3.2ZM3.2 74.3325H3.8V70.2799H3.2H2.6V74.3325H3.2ZM3.2 66.2273H3.8V62.1747H3.2H2.6V66.2273H3.2ZM3.2 58.122H3.8V54.0694H3.2H2.6V58.122H3.2ZM3.2 50.0168H3.8V45.9642H3.2H2.6V50.0168H3.2ZM3.2 41.9115H3.8V37.8589H3.2H2.6V41.9115H3.2ZM3.2 33.8063H3.8V29.7536H3.2H2.6V33.8063H3.2ZM3.2 25.701H3.8V21.6484H3.2H2.6V25.701H3.2ZM3.2 17.5958H3.8V13.5431H3.2H2.6V17.5958H3.2ZM3.2 9.4905H3.8V7.46411H3.2H2.6V9.4905H3.2ZM3.2 7.46411H3.8C3.8 7.00199 3.89186 6.56284 4.05776 6.16279L3.50352 5.93295L2.94929 5.70312C2.72403 6.24633 2.6 6.84149 2.6 7.46411H3.2ZM5.66885 3.76762L5.89868 4.32186C6.29873 4.15596 6.73788 4.0641 7.2 4.0641V3.4641V2.8641C6.57738 2.8641 5.98222 2.98813 5.43902 3.21339L5.66885 3.76762ZM7.2 3.4641V4.0641H9.17414V3.4641V2.8641H7.2V3.4641ZM13.1224 3.4641V4.0641H17.0707V3.4641V2.8641H13.1224V3.4641ZM21.019 3.4641V4.0641H24.9672V3.4641V2.8641H21.019V3.4641ZM28.9155 3.4641V4.0641H32.8638V3.4641V2.8641H28.9155V3.4641ZM36.8121 3.4641V4.0641H40.7603V3.4641V2.8641H36.8121V3.4641ZM44.7086 3.4641V4.0641H48.6569V3.4641V2.8641H44.7086V3.4641ZM52.6052 3.4641V4.0641H56.5535V3.4641V2.8641H52.6052V3.4641ZM60.5017 3.4641V4.0641H64.45V3.4641V2.8641H60.5017V3.4641ZM68.3983 3.4641V4.0641H72.3466V3.4641V2.8641H68.3983V3.4641ZM76.2948 3.4641V4.0641H80.2431V3.4641V2.8641H76.2948V3.4641ZM84.1914 3.4641V4.0641H88.1396V3.4641V2.8641H84.1914V3.4641ZM92.0879 3.4641V4.0641H96.0362V3.4641V2.8641H92.0879V3.4641ZM99.9845 3.4641V4.0641H103.933V3.4641V2.8641H99.9845V3.4641ZM107.881 3.4641V4.0641H111.829V3.4641V2.8641H107.881V3.4641ZM115.778 3.4641V4.0641H119.726V3.4641V2.8641H115.778V3.4641ZM123.674 3.4641V4.0641H127.622V3.4641V2.8641H123.674V3.4641ZM131.571 3.4641V4.0641H135.519V3.4641V2.8641H131.571V3.4641ZM139.467 3.4641V4.0641H143.415V3.4641V2.8641H139.467V3.4641ZM147.364 3.4641V4.0641H151.312V3.4641V2.8641H147.364V3.4641ZM155.26 3.4641V4.0641H159.209V3.4641V2.8641H155.26V3.4641ZM163.157 3.4641V4.0641H167.105V3.4641V2.8641H163.157V3.4641ZM171.053 3.4641V4.0641H175.002V3.4641V2.8641H171.053V3.4641ZM178.95 3.4641V4.0641H182.898V3.4641V2.8641H178.95V3.4641ZM186.846 3.4641V4.0641H190.795V3.4641V2.8641H186.846V3.4641ZM194.743 3.4641V4.0641H198.691V3.4641V2.8641H194.743V3.4641ZM202.64 3.4641V4.0641H206.588V3.4641V2.8641H202.64V3.4641ZM210.536 3.4641V4.0641H214.484V3.4641V2.8641H210.536V3.4641ZM218.433 3.4641V4.0641H222.381V3.4641V2.8641H218.433V3.4641ZM226.329 3.4641V4.0641H230.277V3.4641V2.8641H226.329V3.4641Z" fill="var(--stroke-0, #4E4E4E)"/>
</svg>
