<svg preserveAspectRatio="none" width="100%" height="100%" overflow="visible" style="display: block;" viewBox="0 0 662.6 206.3" fill="none" xmlns="http://www.w3.org/2000/svg">
<path id="Vector 107" d="M8.4 203.1C8.4 204.867 9.83269 206.3 11.6 206.3C13.3673 206.3 14.8 204.867 14.8 203.1C14.8 201.333 13.3673 199.9 11.6 199.9C9.83269 199.9 8.4 201.333 8.4 203.1ZM662.6 97.6L656.6 94.1359V101.064L662.6 97.6ZM11.6 203.1V202.5H9.85V203.1V203.7H11.6V203.1ZM6.35 203.1V202.5H4.6V203.1V203.7H6.35V203.1ZM4.6 203.1V202.5C4.13788 202.5 3.69873 202.408 3.29868 202.242L3.06885 202.796L2.83902 203.351C3.38222 203.576 3.97738 203.7 4.6 203.7V203.1ZM0.903522 200.631L1.45776 200.401C1.29186 200.001 1.2 199.562 1.2 199.1H0.6H0C0 199.723 0.124027 200.318 0.349286 200.861L0.903522 200.631ZM0.6 199.1H1.2V197.074H0.6H0V199.1H0.6ZM0.6 193.022H1.2V188.97H0.6H0V193.022H0.6ZM0.6 184.918H1.2V180.866H0.6H0V184.918H0.6ZM0.6 176.814H1.2V172.761H0.6H0V176.814H0.6ZM0.6 168.709H1.2V164.657H0.6H0V168.709H0.6ZM0.6 160.605H1.2V156.553H0.6H0V160.605H0.6ZM0.6 152.501H1.2V148.449H0.6H0V152.501H0.6ZM0.6 144.397H1.2V140.345H0.6H0V144.397H0.6ZM0.6 136.293H1.2V132.241H0.6H0V136.293H0.6ZM0.6 128.189H1.2V124.136H0.6H0V128.189H0.6ZM0.6 120.084H1.2V116.032H0.6H0V120.084H0.6ZM0.6 111.98H1.2V107.928H0.6H0V111.98H0.6ZM0.6 103.876H1.2V99.8239H0.6H0V103.876H0.6ZM0.6 95.7719H1.2V91.7198H0.6H0V95.7719H0.6ZM0.6 87.6677H1.2V83.6156H0.6H0V87.6677H0.6ZM0.6 79.5635H1.2V75.5114H0.6H0V79.5635H0.6ZM0.6 71.4593H1.2V67.4073H0.6H0V71.4593H0.6ZM0.6 63.3552H1.2V59.3031H0.6H0V63.3552H0.6ZM0.6 55.251H1.2V51.199H0.6H0V55.251H0.6ZM0.6 47.1469H1.2V43.0948H0.6H0V47.1469H0.6ZM0.6 39.0427H1.2V34.9906H0.6H0V39.0427H0.6ZM0.6 30.9386H1.2V26.8865H0.6H0V30.9386H0.6ZM0.6 22.8344H1.2V18.7823H0.6H0V22.8344H0.6ZM0.6 14.7303H1.2V10.6782H0.6H0V14.7303H0.6ZM0.6 6.62609H1.2V4.6H0.6H0V6.62609H0.6ZM0.6 4.6H1.2C1.2 4.13789 1.29186 3.69874 1.45776 3.29868L0.903522 3.06885L0.349287 2.83902C0.124027 3.38223 0 3.97739 0 4.6H0.6ZM3.06885 0.903523L3.29868 1.45776C3.69873 1.29186 4.13788 1.2 4.6 1.2V0.6V0C3.97738 0 3.38222 0.124027 2.83902 0.349287L3.06885 0.903523ZM4.6 0.6V1.2H6.61102V0.6V0H4.6V0.6ZM10.6331 0.6V1.2H14.6551V0.6V0H10.6331V0.6ZM18.6771 0.6V1.2H22.6992V0.6V0H18.6771V0.6ZM26.7212 0.6V1.2H30.7432V0.6V0H26.7212V0.6ZM34.7653 0.6V1.2H38.7873V0.6V0H34.7653V0.6ZM42.8094 0.6V1.2H46.8314V0.6V0H42.8094V0.6ZM50.8534 0.6V1.2H54.8755V0.6V0H50.8534V0.6ZM58.8975 0.6V1.2H62.9195V0.6V0H58.8975V0.6ZM66.9416 0.6V1.2H70.9636V0.6V0H66.9416V0.6ZM74.9857 0.6V1.2H79.0077V0.6V0H74.9857V0.6ZM83.0297 0.6V1.2H87.0518V0.6V0H83.0297V0.6ZM91.0738 0.6V1.2H95.0959V0.6V0H91.0738V0.6ZM99.1179 0.6V1.2H103.14V0.6V0H99.1179V0.6ZM107.162 0.6V1.2H111.184V0.6V0H107.162V0.6ZM115.206 0.6V1.2H119.228V0.6V0H115.206V0.6ZM123.25 0.6V1.2H127.272V0.6V0H123.25V0.6ZM131.294 0.6V1.2H135.316V0.6V0H131.294V0.6ZM139.338 0.6V1.2H143.36V0.6V0H139.338V0.6ZM147.382 0.6V1.2H151.404V0.6V0H147.382V0.6ZM155.426 0.6V1.2H159.448V0.6V0H155.426V0.6ZM163.471 0.6V1.2H167.493V0.6V0H163.471V0.6ZM171.515 0.6V1.2H175.537V0.6V0H171.515V0.6ZM179.559 0.6V1.2H183.581V0.6V0H179.559V0.6ZM187.603 0.6V1.2H191.625V0.6V0H187.603V0.6ZM195.647 0.6V1.2H199.669V0.6V0H195.647V0.6ZM203.691 0.6V1.2H207.713V0.6V0H203.691V0.6ZM211.735 0.6V1.2H215.757V0.6V0H211.735V0.6ZM219.779 0.6V1.2H223.801V0.6V0H219.779V0.6ZM227.823 0.6V1.2H231.845V0.6V0H227.823V0.6ZM235.867 0.6V1.2H239.889V0.6V0H235.867V0.6ZM243.911 0.6V1.2H247.933V0.6V0H243.911V0.6ZM251.955 0.6V1.2H255.977V0.6V0H251.955V0.6ZM259.999 0.6V1.2H264.021V0.6V0H259.999V0.6ZM268.043 0.6V1.2H272.065V0.6V0H268.043V0.6ZM276.087 0.6V1.2H280.109V0.6V0H276.087V0.6ZM284.132 0.6V1.2H288.154V0.6V0H284.132V0.6ZM292.176 0.6V1.2H296.198V0.6V0H292.176V0.6ZM300.22 0.6V1.2H304.242V0.6V0H300.22V0.6ZM308.264 0.6V1.2H312.286V0.6V0H308.264V0.6ZM316.308 0.6V1.2H320.33V0.6V0H316.308V0.6ZM324.352 0.6V1.2H328.374V0.6V0H324.352V0.6ZM332.396 0.6V1.2H336.418V0.6V0H332.396V0.6ZM340.44 0.6V1.2H344.462V0.6V0H340.44V0.6ZM348.484 0.6V1.2H352.506V0.6V0H348.484V0.6ZM356.528 0.6V1.2H360.55V0.6V0H356.528V0.6ZM364.572 0.6V1.2H368.594V0.6V0H364.572V0.6ZM372.616 0.6V1.2H376.638V0.6V0H372.616V0.6ZM380.66 0.6V1.2H384.682V0.6V0H380.66V0.6ZM388.704 0.6V1.2H392.726V0.6V0H388.704V0.6ZM396.748 0.6V1.2H400.77V0.6V0H396.748V0.6ZM404.793 0.6V1.2H408.815V0.6V0H404.793V0.6ZM412.837 0.6V1.2H416.859V0.6V0H412.837V0.6ZM420.881 0.6V1.2H424.903V0.6V0H420.881V0.6ZM428.925 0.6V1.2H432.947V0.6V0H428.925V0.6ZM436.969 0.6V1.2H440.991V0.6V0H436.969V0.6ZM445.013 0.6V1.2H449.035V0.6V0H445.013V0.6ZM453.057 0.6V1.2H457.079V0.6V0H453.057V0.6ZM461.101 0.6V1.2H465.123V0.6V0H461.101V0.6ZM469.145 0.6V1.2H473.167V0.6V0H469.145V0.6ZM477.189 0.6V1.2H481.211V0.6V0H477.189V0.6ZM485.233 0.6V1.2H489.255V0.6V0H485.233V0.6ZM493.277 0.6V1.2H497.299V0.6V0H493.277V0.6ZM501.321 0.6V1.2H505.343V0.6V0H501.321V0.6ZM509.365 0.6V1.2H513.387V0.6V0H509.365V0.6ZM517.41 0.6V1.2H521.432V0.6V0H517.41V0.6ZM525.454 0.6V1.2H529.476V0.6V0H525.454V0.6ZM533.498 0.6V1.2H537.52V0.6V0H533.498V0.6ZM541.542 0.6V1.2H545.564V0.6V0H541.542V0.6ZM549.586 0.6V1.2H553.608V0.6V0H549.586V0.6ZM557.63 0.6V1.2H561.652V0.6V0H557.63V0.6ZM565.674 0.6V1.2H569.696V0.6V0H565.674V0.6ZM573.718 0.6V1.2H577.74V0.6V0H573.718V0.6ZM581.762 0.6V1.2H585.784V0.6V0H581.762V0.6ZM589.806 0.6V1.2H593.828V0.6V0H589.806V0.6ZM597.85 0.6V1.2H601.872V0.6V0H597.85V0.6ZM605.894 0.6V1.2H607.906V0.6V0H605.894V0.6ZM607.906 0.6V1.2C608.368 1.2 608.807 1.29186 609.207 1.45776L609.437 0.903522L609.667 0.349286C609.123 0.124027 608.528 0 607.906 0V0.6ZM611.602 3.06885L611.048 3.29868C611.214 3.69874 611.306 4.13788 611.306 4.6H611.906H612.506C612.506 3.97738 612.382 3.38222 612.156 2.83901L611.602 3.06885ZM611.906 4.6H611.306V6.62273H611.906H612.506V4.6H611.906ZM611.906 10.6682H611.306V14.7136H611.906H612.506V10.6682H611.906ZM611.906 18.7591H611.306V22.8045H611.906H612.506V18.7591H611.906ZM611.906 26.85H611.306V30.8955H611.906H612.506V26.85H611.906ZM611.906 34.9409H611.306V38.9864H611.906H612.506V34.9409H611.906ZM611.906 43.0318H611.306V47.0773H611.906H612.506V43.0318H611.906ZM611.906 51.1227H611.306V55.1682H611.906H612.506V51.1227H611.906ZM611.906 59.2136H611.306V63.2591H611.906H612.506V59.2136H611.906ZM611.906 67.3046H611.306V71.35H611.906H612.506V67.3046H611.906ZM611.906 75.3955H611.306V79.4409H611.906H612.506V75.3955H611.906ZM611.906 83.4864H611.306V87.5318H611.906H612.506V83.4864H611.906ZM611.906 91.5773H611.306V93.6H611.906H612.506V91.5773H611.906ZM611.906 93.6H611.306C611.306 94.2226 611.43 94.8178 611.655 95.361L612.209 95.1312L612.763 94.9013C612.597 94.5013 612.506 94.0621 612.506 93.6H611.906ZM614.375 97.2965L614.145 97.8507C614.688 98.076 615.283 98.2 615.906 98.2V97.6V97C615.444 97 615.004 96.9081 614.604 96.7422L614.375 97.2965ZM615.906 97.6V98.2H617.851V97.6V97H615.906V97.6ZM621.742 97.6V98.2H625.634V97.6V97H621.742V97.6ZM629.525 97.6V98.2H633.416V97.6V97H629.525V97.6ZM637.307 97.6V98.2H641.198V97.6V97H637.307V97.6ZM645.09 97.6V98.2H648.981V97.6V97H645.09V97.6ZM652.872 97.6V98.2H656.763V97.6V97H652.872V97.6Z" fill="var(--stroke-0, #4E4E4E)"/>
</svg>
