<svg preserveAspectRatio="none" width="100%" height="100%" overflow="visible" style="display: block;" viewBox="0 0 326.017 220.683" fill="none" xmlns="http://www.w3.org/2000/svg">
<path id="Vector 92" d="M0 217.483C0 219.25 1.43269 220.683 3.2 220.683C4.96731 220.683 6.4 219.25 6.4 217.483C6.4 215.716 4.96731 214.283 3.2 214.283C1.43269 214.283 0 215.716 0 217.483ZM322.072 0L319.112 6.26392L326.017 5.69565L322.072 0ZM3.2 217.483L3.79553 217.41C3.70587 216.68 3.63991 215.952 3.59724 215.228L2.99828 215.263L2.39932 215.298C2.44349 216.048 2.51174 216.801 2.60447 217.556L3.2 217.483ZM3.01881 210.874L3.61741 210.915C3.71519 209.487 3.90304 208.07 4.17799 206.662L3.58911 206.547L3.00024 206.432C2.71593 207.887 2.52146 209.354 2.42021 210.833L3.01881 210.874ZM4.6906 202.282L5.26183 202.465C5.69361 201.122 6.20429 199.786 6.7913 198.459L6.24255 198.216L5.6938 197.973C5.09051 199.338 4.56462 200.713 4.11937 202.098L4.6906 202.282ZM8.22755 194.256L8.75098 194.549C9.43764 193.324 10.1887 192.105 11.0019 190.892L10.5036 190.558L10.0054 190.224C9.17525 191.461 8.4073 192.707 7.70412 193.962L8.22755 194.256ZM13.1012 186.972L13.5747 187.341C14.4438 186.223 15.3649 185.112 16.3363 184.005L15.8855 183.61L15.4346 183.214C14.4484 184.337 13.5121 185.467 12.6276 186.604L13.1012 186.972ZM18.8686 180.388L19.2985 180.806C20.3051 179.772 21.3549 178.743 22.4462 177.719L22.0355 177.281L21.6248 176.844C20.5212 177.88 19.4586 178.922 18.4387 179.969L18.8686 180.388ZM25.2512 174.379L25.6449 174.831C26.7472 173.873 27.8851 172.919 29.0574 171.968L28.6795 171.502L28.3017 171.036C27.1193 171.995 25.9708 172.958 24.8575 173.926L25.2512 174.379ZM32.0869 168.824L32.4509 169.301C33.5933 168.429 34.7639 167.56 35.9618 166.695L35.6104 166.209L35.2591 165.722C34.0531 166.593 32.874 167.468 31.7229 168.347L32.0869 168.824ZM39.2751 163.629L39.6148 164.123C40.781 163.322 41.9699 162.524 43.1806 161.729L42.8512 161.228L42.5218 160.726C41.3045 161.526 40.1087 162.328 38.9355 163.134L39.2751 163.629ZM46.5575 158.844L46.8774 159.351C48.1188 158.569 49.3807 157.789 50.6624 157.012L50.3512 156.499L50.0401 155.986C48.7528 156.766 47.485 157.55 46.2376 158.336L46.5575 158.844ZM54.0644 154.285L54.3677 154.803C55.6202 154.069 56.8897 153.337 58.1756 152.608L57.8794 152.086L57.5833 151.564C56.2928 152.296 55.0184 153.031 53.761 153.768L54.0644 154.285ZM61.7798 149.906L62.0691 150.432C63.32 149.743 64.5849 149.056 65.8633 148.371L65.5799 147.842L65.2965 147.313C64.0143 148.001 62.7453 148.69 61.4904 149.38L61.7798 149.906ZM69.4605 145.79L69.7383 146.321C71.043 145.64 72.3606 144.96 73.6904 144.282L73.4178 143.747L73.1453 143.213C71.8121 143.893 70.491 144.574 69.1827 145.258L69.4605 145.79ZM77.3109 141.784L77.5787 142.321C78.874 141.675 80.1799 141.03 81.4959 140.387L81.2325 139.848L80.969 139.309C79.6501 139.954 78.3413 140.6 77.043 141.247L77.3109 141.784ZM85.2146 137.921L85.474 138.462C86.7921 137.83 88.1196 137.199 89.4559 136.57L89.2003 136.027L88.9446 135.484C87.6059 136.114 86.2759 136.746 84.9552 137.379L85.2146 137.921ZM93.1497 134.182L93.4019 134.727C94.7254 134.113 96.0568 133.502 97.3957 132.891L97.1467 132.345L96.8976 131.799C95.5567 132.411 94.2231 133.024 92.8975 133.638L93.1497 134.182ZM101.188 130.514L101.434 131.062C102.756 130.467 104.085 129.874 105.42 129.281L105.177 128.733L104.934 128.184C103.597 128.777 102.266 129.372 100.942 129.967L101.188 130.514ZM109.185 126.965L109.426 127.514C110.767 126.926 112.114 126.339 113.466 125.753L113.227 125.203L112.989 124.652C111.635 125.239 110.287 125.827 108.944 126.415L109.185 126.965ZM117.284 123.453L117.521 124.005C118.855 123.432 120.194 122.86 121.538 122.289L121.303 121.737L121.069 121.185C119.724 121.756 118.383 122.329 117.047 122.902L117.284 123.453ZM125.348 120.026L125.581 120.578C126.932 120.009 128.288 119.44 129.646 118.872L129.415 118.319L129.183 117.765C127.824 118.333 126.467 118.903 125.115 119.473L125.348 120.026ZM133.475 116.627L133.705 117.181C135.052 116.622 136.402 116.063 137.755 115.505L137.526 114.95L137.297 114.396C135.944 114.954 134.593 115.513 133.245 116.073L133.475 116.627ZM141.591 113.278L141.819 113.833C143.176 113.276 144.535 112.72 145.896 112.164L145.669 111.608L145.442 111.053C144.081 111.609 142.721 112.165 141.363 112.723L141.591 113.278ZM149.737 109.95L149.963 110.505C151.318 109.954 152.675 109.403 154.032 108.853L153.806 108.297L153.581 107.741C152.223 108.291 150.867 108.842 149.511 109.394L149.737 109.95ZM157.88 106.646L158.105 107.203C159.464 106.653 160.823 106.104 162.182 105.555L161.957 104.998L161.733 104.442C160.373 104.991 159.014 105.54 157.655 106.09L157.88 106.646ZM166.036 103.352L166.261 103.908C167.62 103.36 168.98 102.811 170.338 102.263L170.114 101.707L169.889 101.151C168.531 101.699 167.172 102.247 165.812 102.795L166.036 103.352ZM174.187 100.064L174.411 100.62C175.769 100.072 177.127 99.5241 178.482 98.9763L178.258 98.42L178.033 97.8637C176.677 98.4114 175.32 98.9593 173.962 99.5074L174.187 100.064ZM182.345 96.7672L182.57 97.3234C183.93 96.7726 185.289 96.2219 186.645 95.6713L186.42 95.1154L186.194 94.5594C184.838 95.1098 183.48 95.6604 182.119 96.2111L182.345 96.7672ZM190.481 93.4641L190.707 94.0198C192.067 93.4661 193.423 92.9125 194.777 92.3588L194.55 91.8035L194.322 91.2481C192.97 91.8015 191.613 92.3549 190.255 92.9084L190.481 93.4641ZM198.633 90.1289L198.861 90.6838C200.22 90.1255 201.574 89.5671 202.924 89.0087L202.695 88.4542L202.466 87.8998C201.116 88.4579 199.763 89.0159 198.405 89.574L198.633 90.1289ZM206.732 86.7792L206.963 87.3331C208.325 86.7658 209.683 86.1984 211.036 85.6309L210.804 85.0776L210.572 84.5243C209.22 85.0914 207.863 85.6584 206.502 86.2253L206.732 86.7792ZM214.871 83.3643L215.105 83.9169C216.455 83.3454 217.801 82.7737 219.14 82.2017L218.904 81.6499L218.668 81.0981C217.33 81.6696 215.987 82.2408 214.637 82.8118L214.871 83.3643ZM222.911 79.9297L223.149 80.4805C224.514 79.891 225.873 79.3011 227.225 78.7109L226.985 78.161L226.745 77.6111C225.395 78.2007 224.037 78.7899 222.673 79.3788L222.911 79.9297ZM231.015 76.3902L231.258 76.9389C232.594 76.3478 233.923 75.7563 235.243 75.1644L234.998 74.6169L234.752 74.0694C233.434 74.6605 232.107 75.2512 230.772 75.8414L231.015 76.3902ZM239.015 72.8025L239.263 73.3486C240.615 72.7331 241.958 72.1169 243.291 71.5002L243.039 70.9557L242.787 70.4111C241.457 71.0268 240.116 71.6419 238.766 72.2565L239.015 72.8025ZM247.003 69.1051L247.259 69.6479C248.582 69.0246 249.894 68.4007 251.195 67.776L250.935 67.2351L250.675 66.6942C249.377 67.3176 248.068 67.9403 246.747 68.5623L247.003 69.1051ZM254.946 65.2886L255.21 65.8273C256.536 65.1768 257.849 64.5255 259.148 63.8732L258.879 63.337L258.61 62.8007C257.314 63.4513 256.004 64.101 254.681 64.7499L254.946 65.2886ZM262.731 61.3798L263.006 61.9133C264.345 61.2241 265.669 60.5337 266.977 59.8421L266.697 59.3117L266.416 58.7813C265.113 59.4707 263.792 60.159 262.457 60.8462L262.731 61.3798ZM270.576 57.2297L270.863 57.7566C272.142 57.0601 273.403 56.3623 274.646 55.6631L274.352 55.1402L274.058 54.6172C272.819 55.3136 271.563 56.0088 270.289 56.7028L270.576 57.2297ZM278.232 52.9183L278.535 53.4366C279.82 52.6869 281.085 51.9355 282.327 51.1822L282.016 50.6692L281.704 50.1561C280.469 50.9057 279.21 51.6536 277.93 52.4L278.232 52.9183ZM285.666 48.4088L285.987 48.9158C287.278 48.099 288.542 47.2799 289.779 46.4585L289.446 45.9587L289.114 45.459C287.886 46.2752 286.629 47.0894 285.345 47.9017L285.666 48.4088ZM293.057 43.4954L293.402 43.9867C294.618 43.1344 295.803 42.2793 296.955 41.4214L296.597 40.9401L296.239 40.4588C295.096 41.3095 293.92 42.1579 292.713 43.0041L293.057 43.4954ZM300.128 38.2208L300.502 38.6898C301.647 37.7759 302.755 36.8586 303.823 35.9377L303.432 35.4832L303.04 35.0287C301.984 35.9392 300.888 36.8469 299.754 37.7519L300.128 38.2208ZM306.769 32.4722L307.182 32.908C308.263 31.8849 309.294 30.857 310.275 29.8241L309.839 29.4111L309.404 28.9981C308.44 30.0144 307.423 31.0272 306.357 32.0365L306.769 32.4722ZM312.791 26.0949L313.253 26.4784C314.213 25.3229 315.108 24.1607 315.935 22.9914L315.445 22.645L314.955 22.2987C314.147 23.4407 313.272 24.5782 312.33 25.7114L312.791 26.0949ZM317.828 18.9177L318.349 19.2154C319.094 17.9117 319.752 16.5987 320.32 15.2761L319.769 15.0393L319.218 14.8025C318.669 16.0807 318.031 17.3531 317.307 18.62L317.828 18.9177ZM321.241 10.8694L321.819 11.0292C322.218 9.58668 322.507 8.13317 322.681 6.66843L322.085 6.59744L321.49 6.52645C321.322 7.92904 321.045 9.32319 320.662 10.7096L321.241 10.8694Z" fill="var(--stroke-0, #4E4E4E)"/>
</svg>
