<svg preserveAspectRatio="none" width="100%" height="100%" overflow="visible" style="display: block;" viewBox="0 0 390.024 310.432" fill="none" xmlns="http://www.w3.org/2000/svg">
<path id="Vector 93" d="M0 3.2C0 4.96731 1.43269 6.4 3.2 6.4C4.96731 6.4 6.4 4.96731 6.4 3.2C6.4 1.43269 4.96731 0 3.2 0C1.43269 0 0 1.43269 0 3.2ZM390.024 306.318L383.674 303.548L384.45 310.432L390.024 306.318ZM3.2 3.2L3.27312 3.79553C4.01744 3.70413 4.75944 3.61938 5.49915 3.54121L5.4361 2.94454L5.37305 2.34786C4.62659 2.42674 3.87787 2.51226 3.12688 2.60447L3.2 3.2ZM9.86749 2.55226L9.91014 3.15075C11.3714 3.04662 12.8237 2.96836 14.2672 2.91552L14.2452 2.31592L14.2233 1.71632C12.7659 1.76967 11.2998 1.84867 9.82485 1.95378L9.86749 2.55226ZM18.5702 2.23278L18.5712 2.83278C20.0505 2.83022 21.5205 2.85452 22.9813 2.90517L23.0021 2.30553L23.0229 1.70589C21.5475 1.65474 20.063 1.6302 18.5691 1.63278L18.5702 2.23278ZM27.4094 2.53934L27.3666 3.13781C28.8192 3.24173 30.2627 3.37185 31.6973 3.52765L31.762 2.93116L31.8268 2.33467C30.3776 2.17728 28.9195 2.04584 27.4522 1.94087L27.4094 2.53934ZM36.099 3.48341L36.0122 4.0771C37.4666 4.2897 38.9118 4.52881 40.3481 4.7939L40.457 4.20386L40.5659 3.61383C39.115 3.34604 37.655 3.10449 36.1858 2.88972L36.099 3.48341ZM44.7607 5.08088L44.63 5.66649C46.0485 5.98295 47.4582 6.32482 48.8593 6.69155L49.0112 6.11111L49.1631 5.53066C47.748 5.16026 46.3241 4.81494 44.8913 4.49528L44.7607 5.08088ZM53.2463 7.30221L53.0735 7.87678C54.4707 8.2971 55.8593 8.74219 57.2396 9.2115L57.4328 8.64344L57.6259 8.07537C56.2323 7.60154 54.8301 7.15211 53.4192 6.72765L53.2463 7.30221ZM61.5684 10.1305L61.3556 10.6915C62.716 11.2074 64.0683 11.7468 65.4126 12.3091L65.6442 11.7556L65.8757 11.2021C64.5191 10.6346 63.1543 10.0902 61.7811 9.56945L61.5684 10.1305ZM69.6631 13.5151L69.4135 14.0607C70.7394 14.6671 72.0576 15.2958 73.3683 15.9462L73.635 15.4087L73.9017 14.8713C72.5798 14.2153 71.2502 13.5812 69.9126 12.9694L69.6631 13.5151ZM77.5527 17.4288L77.2696 17.9578C78.5458 18.6406 79.815 19.344 81.0772 20.0674L81.3755 19.5468L81.6739 19.0262C80.4017 18.2972 79.1224 17.5881 77.8357 16.8997L77.5527 17.4288ZM85.156 21.7852L84.8431 22.2971C86.0916 23.0601 87.3334 23.8425 88.5686 24.6439L88.8951 24.1406L89.2217 23.6372C87.9776 22.8301 86.7267 22.0419 85.4688 21.2732L85.156 21.7852ZM92.5382 26.5714L92.1988 27.0662C93.3944 27.886 94.5837 28.7235 95.7671 29.578L96.1184 29.0916L96.4697 28.6052C95.2785 27.745 94.0812 26.902 92.8775 26.0766L92.5382 26.5714ZM99.6622 31.7145L99.2996 32.1926C100.466 33.0772 101.627 33.9784 102.783 34.8955L103.156 34.4255L103.529 33.9556C102.367 33.0331 101.199 32.1265 100.025 31.2364L99.6622 31.7145ZM106.541 37.171L106.159 37.6331C107.279 38.5606 108.393 39.503 109.503 40.4598L109.895 40.0054L110.287 39.551C109.171 38.5891 108.05 37.6416 106.924 36.7089L106.541 37.171ZM113.217 42.9259L112.817 43.3729C113.901 44.3437 114.98 45.328 116.054 46.3255L116.463 45.8857L116.871 45.446C115.791 44.4439 114.707 43.4547 113.618 42.479L113.217 42.9259ZM119.64 48.8857L119.225 49.3185C120.277 50.3287 121.325 51.3512 122.368 52.3855L122.791 51.9594L123.213 51.5332C122.165 50.4945 121.113 49.4676 120.056 48.4529L119.64 48.8857ZM125.916 55.1041L125.487 55.5238C126.5 56.559 127.51 57.6052 128.515 58.662L128.95 58.2484L129.384 57.8348C128.375 56.774 127.362 55.7238 126.344 54.6844L125.916 55.1041ZM131.947 61.4407L131.507 61.8485C132.5 62.9209 133.49 64.0033 134.477 65.0954L134.922 64.6933L135.367 64.2911C134.377 63.1953 133.384 62.1091 132.387 61.033L131.947 61.4407ZM137.875 68.0031L137.425 68.3999C138.381 69.4847 139.334 70.5783 140.284 71.6804L140.739 71.2886L141.193 70.8969C140.24 69.7915 139.284 68.6945 138.325 67.6063L137.875 68.0031ZM143.584 74.6247L143.125 75.0117C144.069 76.1303 145.01 77.257 145.948 78.3915L146.411 78.0091L146.873 77.6268C145.933 76.4893 144.989 75.3595 144.042 74.2378L143.584 74.6247ZM149.215 81.4328L148.749 81.8108C149.662 82.9367 150.573 84.0696 151.481 85.2092L151.95 84.8353L152.419 84.4613C151.509 83.3191 150.596 82.1834 149.681 81.0548L149.215 81.4328ZM154.671 88.2777L154.198 88.6478C155.102 89.8004 156.002 90.9594 156.901 92.1244L157.376 91.758L157.851 91.3915C156.951 90.2242 156.048 89.0627 155.143 87.9076L154.671 88.2777ZM160.063 95.2678L159.585 95.6309C160.465 96.7877 161.342 97.95 162.216 99.1174L162.697 98.7575L163.177 98.3976C162.3 97.2282 161.422 96.0638 160.541 94.9048L160.063 95.2678ZM165.318 102.278L164.836 102.635C165.707 103.812 166.576 104.994 167.443 106.18L167.928 105.826L168.412 105.472C167.543 104.284 166.673 103.1 165.8 101.921L165.318 102.278ZM170.525 109.4L170.039 109.751C170.892 110.931 171.743 112.115 172.593 113.303L173.081 112.954L173.569 112.604C172.718 111.415 171.866 110.23 171.011 109.048L170.525 109.4ZM175.628 116.53L175.138 116.876C175.985 118.071 176.83 119.269 177.674 120.471L178.165 120.126L178.656 119.781C177.811 118.578 176.965 117.379 176.117 116.183L175.628 116.53ZM180.695 123.74L180.203 124.083C181.038 125.28 181.872 126.481 182.705 127.683L183.198 127.342L183.691 127C182.858 125.797 182.023 124.595 181.187 123.396L180.695 123.74ZM185.693 130.956L185.198 131.296C186.029 132.503 186.858 133.711 187.686 134.921L188.181 134.583L188.676 134.244C187.848 133.033 187.018 131.823 186.187 130.616L185.693 130.956ZM190.664 138.219L190.168 138.557C190.993 139.767 191.816 140.978 192.639 142.191L193.135 141.854L193.632 141.517C192.809 140.304 191.985 139.092 191.16 137.882L190.664 138.219ZM195.6 145.492L195.103 145.828C195.924 147.042 196.744 148.256 197.564 149.47L198.061 149.135L198.558 148.799C197.738 147.584 196.918 146.37 196.097 145.156L195.6 145.492ZM200.519 152.78L200.022 153.116C200.841 154.332 201.66 155.548 202.479 156.764L202.976 156.429L203.474 156.094C202.655 154.878 201.836 153.661 201.017 152.445L200.519 152.78ZM205.432 160.078L204.935 160.413C205.753 161.629 206.571 162.845 207.39 164.06L207.887 163.725L208.385 163.389C207.567 162.175 206.749 160.959 205.93 159.743L205.432 160.078ZM210.342 167.366L209.844 167.702C210.665 168.918 211.485 170.134 212.306 171.347L212.803 171.011L213.3 170.675C212.479 169.462 211.659 168.247 210.839 167.031L210.342 167.366ZM215.272 174.659L214.775 174.996C215.598 176.21 216.422 177.423 217.246 178.634L217.742 178.296L218.238 177.959C217.414 176.749 216.591 175.536 215.768 174.322L215.272 174.659ZM220.214 181.921L219.719 182.26C220.546 183.471 221.374 184.679 222.203 185.885L222.697 185.545L223.192 185.205C222.364 184 221.536 182.793 220.709 181.583L220.214 181.921ZM225.201 189.177L224.707 189.519C225.543 190.727 226.379 191.932 227.216 193.134L227.708 192.792L228.201 192.449C227.365 191.248 226.529 190.044 225.694 188.836L225.201 189.177ZM230.22 196.386L229.729 196.73C230.571 197.93 231.413 199.125 232.257 200.317L232.746 199.97L233.236 199.624C232.394 198.433 231.552 197.239 230.712 196.041L230.22 196.386ZM235.308 203.572L234.82 203.921C235.675 205.117 236.531 206.31 237.389 207.497L237.876 207.146L238.362 206.795C237.506 205.609 236.65 204.418 235.796 203.223L235.308 203.572ZM240.451 210.692L239.966 211.046C240.83 212.228 241.695 213.405 242.562 214.577L243.044 214.22L243.527 213.864C242.661 212.694 241.798 211.518 240.935 210.338L240.451 210.692ZM245.687 217.77L245.207 218.13C246.091 219.309 246.976 220.481 247.863 221.647L248.34 221.284L248.818 220.921C247.933 219.757 247.049 218.587 246.167 217.411L245.687 217.77ZM251.003 224.759L250.528 225.125C251.424 226.285 252.322 227.438 253.222 228.584L253.694 228.213L254.166 227.843C253.268 226.7 252.372 225.549 251.478 224.392L251.003 224.759ZM256.445 231.686L255.976 232.06C256.897 233.211 257.819 234.355 258.744 235.489L259.209 235.11L259.674 234.731C258.752 233.599 257.832 232.459 256.914 231.311L256.445 231.686ZM261.988 238.485L261.526 238.869C262.466 239.999 263.409 241.121 264.354 242.233L264.811 241.844L265.269 241.456C264.326 240.347 263.386 239.229 262.449 238.102L261.988 238.485ZM267.699 245.203L267.246 245.597C268.213 246.708 269.183 247.81 270.156 248.901L270.604 248.502L271.052 248.102C270.082 247.015 269.116 245.917 268.152 244.809L267.699 245.203ZM273.527 251.738L273.084 252.143C274.083 253.234 275.085 254.314 276.09 255.382L276.527 254.971L276.964 254.56C275.963 253.496 274.964 252.42 273.969 251.333L273.527 251.738ZM279.582 258.169L279.151 258.587C280.175 259.642 281.203 260.686 282.234 261.716L282.658 261.291L283.082 260.867C282.055 259.841 281.032 258.802 280.012 257.751L279.582 258.169ZM285.757 264.337L285.34 264.768C286.414 265.806 287.492 266.829 288.575 267.837L288.984 267.398L289.393 266.959C288.315 265.956 287.243 264.938 286.174 263.905L285.757 264.337ZM292.236 270.371L291.836 270.818C292.928 271.796 294.024 272.759 295.125 273.706L295.516 273.252L295.908 272.797C294.813 271.855 293.723 270.897 292.637 269.924L292.236 270.371ZM298.877 276.081L298.496 276.544C299.644 277.489 300.797 278.416 301.956 279.326L302.326 278.854L302.697 278.382C301.546 277.478 300.4 276.557 299.259 275.617L298.877 276.081ZM305.808 281.519L305.449 282C306.621 282.875 307.8 283.731 308.984 284.568L309.33 284.078L309.676 283.588C308.501 282.757 307.331 281.907 306.167 281.038L305.808 281.519ZM312.988 286.589L312.655 287.089C313.886 287.908 315.123 288.706 316.366 289.483L316.684 288.974L317.002 288.465C315.768 287.695 314.541 286.903 313.321 286.09L312.988 286.589ZM320.419 291.23L320.116 291.748C321.396 292.495 322.684 293.218 323.978 293.918L324.263 293.39L324.549 292.862C323.266 292.169 321.99 291.452 320.721 290.712L320.419 291.23ZM328.173 295.42L327.906 295.957C329.223 296.612 330.547 297.242 331.879 297.847L332.128 297.301L332.376 296.755C331.057 296.156 329.745 295.531 328.44 294.882L328.173 295.42ZM336.157 299.043L335.929 299.598C337.295 300.159 338.67 300.693 340.053 301.2L340.26 300.636L340.466 300.073C339.097 299.572 337.737 299.043 336.385 298.488L336.157 299.043ZM344.412 302.066L344.228 302.637C345.628 303.088 347.036 303.511 348.453 303.905L348.614 303.327L348.774 302.749C347.373 302.359 345.98 301.941 344.596 301.495L344.412 302.066ZM352.863 304.415L352.726 304.999C354.16 305.334 355.602 305.64 357.054 305.916L357.166 305.327L357.278 304.737C355.843 304.465 354.417 304.162 353 303.831L352.863 304.415ZM361.511 306.057L361.424 306.651C362.865 306.862 364.316 307.043 365.775 307.194L365.837 306.597L365.898 306.001C364.456 305.851 363.023 305.672 361.598 305.464L361.511 306.057ZM370.218 306.957L370.181 307.556C371.659 307.646 373.147 307.705 374.644 307.732L374.655 307.132L374.666 306.532C373.186 306.505 371.715 306.447 370.254 306.358L370.218 306.957ZM378.991 307.123L379.004 307.723C380.46 307.69 381.925 307.628 383.4 307.535L383.362 306.937L383.324 306.338C381.866 306.429 380.417 306.491 378.977 306.523L378.991 307.123Z" fill="var(--stroke-0, #4E4E4E)"/>
</svg>
