<svg preserveAspectRatio="none" width="100%" height="100%" overflow="visible" style="display: block;" viewBox="0 0 144.679 172.817" fill="none" xmlns="http://www.w3.org/2000/svg">
<path id="Vector 92" d="M0 169.617C0 171.384 1.43269 172.817 3.2 172.817C4.96731 172.817 6.4 171.384 6.4 169.617C6.4 167.85 4.96731 166.417 3.2 166.417C1.43269 166.417 0 167.85 0 169.617ZM144.679 2.59108L138.254 0L139.223 6.86014L144.679 2.59108ZM3.2 169.617L3.27312 170.213C4.0272 170.12 4.77258 170.008 5.50948 169.878L5.40496 169.287L5.30045 168.696C4.58447 168.823 3.86002 168.931 3.12688 169.021L3.2 169.617ZM9.67817 168.295L9.8449 168.871C11.2859 168.454 12.6925 167.963 14.0666 167.401L13.8394 166.845L13.6123 166.29C12.277 166.836 10.9108 167.314 9.51144 167.718L9.67817 168.295ZM17.8193 164.972L18.102 165.502C19.4067 164.805 20.6807 164.042 21.9258 163.217L21.5944 162.717L21.2631 162.217C20.0482 163.022 18.8067 163.765 17.5367 164.443L17.8193 164.972ZM25.1626 160.123L25.5355 160.593C26.6856 159.68 27.8104 158.714 28.9117 157.696L28.5045 157.255L28.0973 156.815C27.0169 157.813 25.9149 158.76 24.7897 159.652L25.1626 160.123ZM31.6279 154.169L32.063 154.582C33.0709 153.521 34.0591 152.416 35.0292 151.271L34.5713 150.883L34.1135 150.495C33.1572 151.624 32.1841 152.712 31.1928 153.756L31.6279 154.169ZM37.3433 147.439L37.8195 147.805C38.7029 146.652 39.5716 145.466 40.4268 144.249L39.9359 143.904L39.445 143.559C38.5987 144.763 37.7398 145.936 36.8671 147.074L37.3433 147.439ZM42.4081 140.245L42.911 140.573C43.7077 139.348 44.4931 138.097 45.2684 136.822L44.7557 136.51L44.243 136.199C43.4737 137.464 42.6947 138.705 41.9051 139.918L42.4081 140.245ZM46.9878 132.726L47.5084 133.025C48.2377 131.752 48.9587 130.459 49.6722 129.146L49.1451 128.86L48.618 128.573C47.9084 129.878 47.1918 131.164 46.4672 132.428L46.9878 132.726ZM51.205 124.984L51.7374 125.26C52.4123 123.962 53.0812 122.648 53.7451 121.321L53.2084 121.052L52.6718 120.784C52.0105 122.107 51.3444 123.415 50.6727 124.707L51.205 124.984ZM55.1535 117.095L55.6936 117.357C56.3297 116.042 56.9619 114.715 57.591 113.378L57.0481 113.122L56.5053 112.867C55.8778 114.2 55.2474 115.523 54.6133 116.834L55.1535 117.095ZM58.9122 109.115L59.4572 109.366C60.0677 108.04 60.676 106.705 61.2828 105.363L60.7362 105.116L60.1895 104.869C59.5836 106.208 58.9764 107.541 58.3671 108.865L58.9122 109.115ZM62.547 101.087L63.0948 101.332C63.6915 99.996 64.2876 98.6553 64.8837 97.311L64.3352 97.0677L63.7867 96.8245C63.1909 98.1682 62.5953 99.5078 61.9992 100.842L62.547 101.087ZM66.1207 93.0333L66.6695 93.2759C67.2623 91.935 67.8558 90.592 68.4508 89.2479L67.9021 89.0051L67.3535 88.7622C66.7583 90.1066 66.1647 91.45 65.572 92.7907L66.1207 93.0333ZM69.6907 84.9751L70.2389 85.2191C70.836 83.8781 71.4353 82.5377 72.0374 81.1991L71.4902 80.9529L70.943 80.7068C70.3401 82.0471 69.7402 83.3889 69.1426 84.731L69.6907 84.9751ZM73.3093 76.9367L73.8552 77.1858C74.4649 75.8498 75.0782 74.5171 75.6958 73.189L75.1518 72.936L74.6077 72.683C73.9888 74.0139 73.3743 75.3493 72.7635 76.6875L73.3093 76.9367ZM77.0291 68.9439L77.5709 69.2017C78.2017 67.8762 78.8375 66.5568 79.4791 65.2449L78.9401 64.9813L78.4011 64.7177C77.7575 66.0337 77.1198 67.357 76.4873 68.686L77.0291 68.9439ZM80.9049 61.0259L81.4405 61.2963C82.1023 59.9856 82.7706 58.6841 83.4464 57.3932L82.9148 57.1149L82.3832 56.8366C81.7046 58.1331 81.0335 59.4399 80.3693 60.7555L80.9049 61.0259ZM84.9957 53.2187L85.5224 53.5059C86.2266 52.2147 86.9391 50.936 87.6608 49.6714L87.1397 49.374L86.6186 49.0766C85.8928 50.3483 85.1765 51.6338 84.4689 52.9314L84.9957 53.2187ZM89.366 45.5688L89.8804 45.8776C90.6391 44.6138 91.4081 43.3664 92.1885 42.137L91.6819 41.8155L91.1753 41.4939C90.3894 42.7322 89.6151 43.9881 88.8516 45.26L89.366 45.5688ZM94.0876 38.1381L94.5849 38.4738C95.4114 37.2489 96.2507 36.0449 97.1037 34.8635L96.6172 34.5123L96.1307 34.1611C95.27 35.3533 94.4234 36.5677 93.5902 37.8025L94.0876 38.1381ZM99.25 30.9959L99.7237 31.3641C100.629 30.1996 101.549 29.061 102.486 27.95L102.027 27.5632L101.568 27.1765C100.621 28.3002 99.6905 29.4513 98.7762 30.6277L99.25 30.9959ZM104.94 24.2568L105.381 24.6635C106.374 23.5864 107.384 22.5403 108.414 21.5272L107.993 21.0995L107.573 20.6718C106.528 21.6992 105.504 22.7594 104.498 23.8502L104.94 24.2568ZM111.225 18.0865L111.622 18.5365C112.718 17.5689 113.836 16.6382 114.976 15.7465L114.607 15.2738L114.237 14.8012C113.078 15.708 111.942 16.6539 110.828 17.6366L111.225 18.0865ZM118.16 12.6724L118.498 13.1678C119.702 12.3454 120.929 11.5654 122.182 10.83L121.878 10.3126L121.575 9.79514C120.297 10.5449 119.047 11.3396 117.821 12.1771L118.16 12.6724ZM125.751 8.22201L126.017 8.76003C127.317 8.11854 128.643 7.52348 129.996 6.97708L129.772 6.4207L129.547 5.86432C128.165 6.42211 126.812 7.02945 125.486 7.68398L125.751 8.22201ZM133.903 4.93212L134.085 5.5039C135.462 5.066 136.867 4.67661 138.301 4.33787L138.163 3.75395L138.025 3.17003C136.561 3.51576 135.127 3.91325 133.721 4.36033L133.903 4.93212Z" fill="var(--stroke-0, #4E4E4E)"/>
</svg>
