<svg preserveAspectRatio="none" width="100%" height="100%" overflow="visible" style="display: block;" viewBox="0 0 467.358 247.88" fill="none" xmlns="http://www.w3.org/2000/svg">
<path id="Vector 94" d="M0 244.68C0 246.447 1.43269 247.88 3.2 247.88C4.96731 247.88 6.4 246.447 6.4 244.68C6.4 242.912 4.96731 241.48 3.2 241.48C1.43269 241.48 0 242.912 0 244.68ZM463.147 0L460.488 6.39731L467.358 5.50209L463.147 0ZM3.2 244.68L3.7955 244.606C3.70711 243.889 3.65145 243.174 3.62797 242.46L3.02829 242.48L2.42862 242.5C2.45329 243.249 2.51174 244 2.6045 244.753L3.2 244.68ZM3.27505 238.115L3.86876 238.202C4.06912 236.828 4.38724 235.46 4.81985 234.096L4.24794 233.915L3.67603 233.734C3.22466 235.156 2.89148 236.588 2.68133 238.029L3.27505 238.115ZM5.87941 229.836L6.41977 230.097C7.0191 228.855 7.71199 227.617 8.49599 226.381L7.98937 226.06L7.48275 225.738C6.67578 227.01 5.95995 228.289 5.33904 229.576L5.87941 229.836ZM10.5072 222.492L10.981 222.86C11.8498 221.742 12.7916 220.626 13.8046 219.513L13.3608 219.109L12.9171 218.705C11.8848 219.84 10.9226 220.979 10.0333 222.124L10.5072 222.492ZM16.336 216.042L16.754 216.473C17.7951 215.462 18.8936 214.453 20.0478 213.447L19.6535 212.995L19.2592 212.542C18.09 213.562 16.9756 214.585 15.918 215.612L16.336 216.042ZM22.9425 210.252L23.3171 210.721C24.4165 209.842 25.5574 208.966 26.7386 208.091L26.3815 207.609L26.0245 207.127C24.8321 208.01 23.6795 208.895 22.5679 209.784L22.9425 210.252ZM30.061 204.979L30.402 205.473C31.547 204.682 32.7242 203.892 33.9328 203.104L33.6051 202.602L33.2774 202.099C32.0603 202.893 30.8742 203.688 29.7199 204.485L30.061 204.979ZM37.2596 200.282L37.5752 200.792C38.8189 200.023 40.0918 199.255 41.393 198.489L41.0886 197.972L40.7841 197.455C39.4757 198.226 38.1954 198.998 36.944 199.772L37.2596 200.282ZM44.8789 195.789L45.1736 196.311C46.3986 195.621 47.6461 194.931 48.9155 194.243L48.6294 193.715L48.3434 193.188C47.0684 193.879 45.8152 194.572 44.5842 195.266L44.8789 195.789ZM52.5108 191.649L52.7888 192.181C54.1013 191.494 55.4352 190.809 56.7896 190.125L56.5191 189.59L56.2486 189.054C54.8894 189.741 53.5505 190.428 52.2328 191.117L52.5108 191.649ZM60.3479 187.685L60.6119 188.224C61.8904 187.597 63.1857 186.972 64.4974 186.347L64.2394 185.805L63.9814 185.264C62.6658 185.89 61.3665 186.518 60.0839 187.146L60.3479 187.685ZM68.2289 183.931L68.4813 184.476C69.8253 183.852 71.1853 183.23 72.5607 182.609L72.3136 182.062L72.0666 181.515C70.6878 182.138 69.3243 182.762 67.9766 183.387L68.2289 183.931ZM76.2246 180.315L76.467 180.864C77.7738 180.287 79.0935 179.71 80.4258 179.134L80.1877 178.584L79.9497 178.033C78.6146 178.61 77.292 179.188 75.9822 179.766L76.2246 180.315ZM84.226 176.856L84.46 177.409C85.817 176.834 87.1862 176.26 88.5672 175.687L88.3371 175.133L88.107 174.579C86.7235 175.153 85.3518 175.728 83.9921 176.304L84.226 176.856ZM92.362 173.477L92.5885 174.032C93.9106 173.493 95.2428 172.955 96.5847 172.416L96.3614 171.86L96.1381 171.303C94.794 171.842 93.4597 172.381 92.1354 172.921L92.362 173.477ZM100.419 170.245L100.64 170.804C102.001 170.266 103.371 169.73 104.751 169.193L104.534 168.634L104.317 168.075C102.935 168.612 101.562 169.149 100.199 169.687L100.419 170.245ZM108.681 167.034L108.896 167.594C110.226 167.085 111.565 166.575 112.912 166.066L112.7 165.505L112.488 164.944C111.139 165.453 109.799 165.963 108.466 166.474L108.681 167.034ZM116.765 163.978L116.974 164.54C118.336 164.032 119.705 163.524 121.081 163.016L120.874 162.453L120.666 161.89C119.288 162.398 117.918 162.907 116.555 163.416L116.765 163.978ZM125.026 160.931L125.231 161.494C126.602 160.994 127.98 160.494 129.365 159.995L129.161 159.431L128.958 158.866C127.572 159.366 126.193 159.866 124.82 160.367L125.026 160.931ZM133.229 157.97L133.431 158.535C134.792 158.049 136.159 157.563 137.532 157.077L137.332 156.511L137.132 155.946C135.758 156.432 134.39 156.918 133.027 157.405L133.229 157.97ZM141.468 155.054L141.666 155.62C143.05 155.135 144.439 154.65 145.832 154.165L145.635 153.599L145.438 153.032C144.043 153.517 142.654 154.002 141.269 154.488L141.468 155.054ZM149.782 152.162L149.978 152.729C151.34 152.259 152.706 151.789 154.076 151.32L153.882 150.752L153.687 150.185C152.316 150.654 150.949 151.124 149.587 151.595L149.782 152.162ZM158.006 149.344L158.2 149.912C159.578 149.443 160.961 148.974 162.348 148.505L162.156 147.936L161.963 147.368C160.576 147.837 159.193 148.306 157.813 148.776L158.006 149.344ZM166.328 146.53L166.519 147.099C167.904 146.633 169.292 146.168 170.684 145.702L170.494 145.133L170.303 144.564C168.911 145.03 167.522 145.495 166.137 145.961L166.328 146.53ZM174.614 143.759L174.804 144.329C176.18 143.871 177.56 143.413 178.942 142.956L178.753 142.386L178.565 141.816C177.182 142.274 175.802 142.732 174.425 143.19L174.614 143.759ZM182.909 141.013L183.097 141.583C184.484 141.125 185.875 140.668 187.267 140.211L187.08 139.641L186.893 139.071C185.5 139.528 184.109 139.986 182.721 140.443L182.909 141.013ZM191.26 138.27L191.447 138.841C192.824 138.39 194.203 137.939 195.584 137.489L195.398 136.919L195.212 136.348C193.83 136.799 192.451 137.249 191.073 137.7L191.26 138.27ZM199.547 135.567L199.732 136.137C201.117 135.687 202.503 135.236 203.891 134.786L203.705 134.215L203.52 133.645C202.132 134.095 200.746 134.546 199.361 134.996L199.547 135.567ZM207.873 132.864L208.058 133.435C209.448 132.984 210.84 132.534 212.233 132.083L212.048 131.512L211.864 130.942C210.471 131.392 209.079 131.843 207.688 132.293L207.873 132.864ZM216.207 130.168L216.391 130.739C217.776 130.292 219.162 129.844 220.549 129.397L220.364 128.826L220.18 128.255C218.793 128.702 217.407 129.15 216.022 129.597L216.207 130.168ZM224.526 127.483L224.71 128.055C226.097 127.607 227.485 127.159 228.873 126.712L228.689 126.141L228.505 125.57C227.117 126.017 225.729 126.465 224.341 126.912L224.526 127.483ZM232.854 124.798L233.039 125.369C234.427 124.921 235.816 124.473 237.205 124.025L237.02 123.454L236.836 122.883C235.448 123.331 234.059 123.779 232.67 124.227L232.854 124.798ZM241.186 122.109L241.371 122.68C242.759 122.232 244.147 121.783 245.535 121.335L245.35 120.764L245.166 120.193C243.778 120.641 242.39 121.09 241.002 121.538L241.186 122.109ZM249.51 119.418L249.695 119.989C251.081 119.54 252.466 119.091 253.851 118.642L253.666 118.071L253.481 117.5C252.096 117.949 250.711 118.398 249.325 118.847L249.51 119.418ZM257.82 116.722L258.005 117.293C259.398 116.84 260.79 116.387 262.18 115.934L261.994 115.363L261.808 114.793C260.418 115.246 259.027 115.699 257.634 116.152L257.82 116.722ZM266.16 114.003L266.347 114.574C267.734 114.12 269.12 113.666 270.504 113.212L270.317 112.642L270.13 112.072C268.746 112.526 267.361 112.98 265.974 113.433L266.16 114.003ZM274.462 111.28L274.65 111.85C276.03 111.396 277.408 110.941 278.784 110.487L278.596 109.917L278.407 109.347C277.032 109.802 275.654 110.256 274.275 110.71L274.462 111.28ZM282.769 108.534L282.958 109.104C284.35 108.642 285.74 108.179 287.127 107.716L286.937 107.147L286.747 106.578C285.361 107.041 283.972 107.503 282.58 107.965L282.769 108.534ZM291.089 105.759L291.279 106.328C292.661 105.864 294.039 105.401 295.414 104.937L295.222 104.369L295.031 103.8C293.656 104.264 292.279 104.727 290.898 105.19L291.089 105.759ZM299.337 102.977L299.53 103.545C300.919 103.074 302.305 102.602 303.687 102.13L303.493 101.562L303.299 100.995C301.918 101.466 300.533 101.938 299.144 102.409L299.337 102.977ZM307.66 100.134L307.855 100.702C309.24 100.225 310.622 99.7485 311.999 99.2713L311.803 98.7044L311.606 98.1374C310.23 98.6143 308.849 99.0908 307.465 99.5669L307.66 100.134ZM315.92 97.2723L316.118 97.8388C317.486 97.3609 318.85 96.8827 320.21 96.4041L320.01 95.8381L319.811 95.2722C318.453 95.7504 317.09 96.2283 315.722 96.7058L315.92 97.2723ZM324.145 94.3761L324.345 94.9415C325.738 94.4468 327.125 93.9518 328.507 93.4562L328.304 92.8915L328.102 92.3267C326.721 92.8218 325.335 93.3165 323.944 93.8107L324.145 94.3761ZM332.431 91.4042L332.635 91.9684C334.005 91.4719 335.37 90.9751 336.729 90.4778L336.522 89.9143L336.316 89.3509C334.959 89.8477 333.596 90.3441 332.226 90.8401L332.431 91.4042ZM340.578 88.4216L340.786 88.9843C342.167 88.4732 343.542 87.9616 344.909 87.4494L344.699 86.8875L344.488 86.3256C343.122 86.8372 341.749 87.3483 340.37 87.8589L340.578 88.4216ZM348.838 85.3274L349.051 85.8884C350.425 85.3675 351.79 84.8461 353.149 84.3241L352.934 83.764L352.718 83.204C351.362 83.7253 349.997 84.2461 348.626 84.7664L348.838 85.3274ZM356.983 82.1972L357.201 82.7563C358.543 82.2331 359.878 81.7093 361.205 81.1848L360.984 80.6268L360.763 80.0689C359.439 80.5925 358.106 81.1156 356.765 81.6381L356.983 82.1972ZM365.115 78.9809L365.339 79.5377C366.714 78.9851 368.081 78.4318 369.437 77.8778L369.211 77.3223L368.984 76.7668C367.629 77.3199 366.265 77.8724 364.891 78.4241L365.115 78.9809ZM373.248 75.6594L373.478 76.2134C374.815 75.6579 376.142 75.1017 377.458 74.5446L377.224 73.9921L376.99 73.4395C375.676 73.9955 374.352 74.5508 373.018 75.1053L373.248 75.6594ZM381.232 72.2797L381.469 72.8306C382.845 72.2371 384.208 71.6427 385.559 71.0474L385.317 70.4984L385.075 69.9493C383.727 70.5434 382.367 71.1365 380.994 71.7288L381.232 72.2797ZM389.326 68.7117L389.573 69.2587C390.898 68.6615 392.21 68.0634 393.509 67.4642L393.258 66.9194L393.006 66.3746C391.711 66.9722 390.402 67.5689 389.08 68.1646L389.326 68.7117ZM397.151 65.1015L397.407 65.6439C398.774 64.9977 400.125 64.3502 401.46 63.7016L401.198 63.1619L400.936 62.6223C399.605 63.269 398.258 63.9146 396.894 64.5591L397.151 65.1015ZM405.146 61.2154L405.415 61.752C406.716 61.1009 408.001 60.4486 409.268 59.795L408.993 59.2617L408.718 58.7285C407.455 59.3797 406.175 60.0298 404.878 60.6788L405.146 61.2154ZM412.802 57.2651L413.084 57.7946C414.426 57.0796 415.746 56.3631 417.044 55.645L416.754 55.1199L416.464 54.5949C415.171 55.3099 413.856 56.0234 412.52 56.7356L412.802 57.2651ZM420.574 52.9657L420.873 53.4858C422.128 52.7644 423.359 52.0413 424.568 51.3166L424.259 50.802L423.95 50.2875C422.748 51.0083 421.523 51.7277 420.275 52.4456L420.574 52.9657ZM428.017 48.495L428.337 49.003C429.617 48.1977 430.869 47.3903 432.091 46.5807L431.76 46.0805L431.428 45.5804C430.215 46.3845 428.971 47.1867 427.698 47.9871L428.017 48.495ZM435.321 43.6537L435.666 44.1449C436.87 43.3002 438.041 42.453 439.179 41.6032L438.82 41.1225L438.46 40.6419C437.333 41.4842 436.172 42.3243 434.977 43.1624L435.321 43.6537ZM442.371 38.3698L442.747 38.8371C443.896 37.9119 445.003 36.9835 446.069 36.0517L445.674 35.6001L445.279 35.1484C444.226 36.0689 443.131 36.9869 441.994 37.9025L442.371 38.3698ZM448.874 32.6667L449.29 33.0989C450.397 32.0331 451.447 30.9627 452.439 29.8876L451.999 29.4806L451.558 29.0737C450.582 30.1304 449.548 31.184 448.458 32.2346L448.874 32.6667ZM454.773 26.2709L455.241 26.6474C456.212 25.4424 457.109 24.2311 457.93 23.0133L457.432 22.678L456.934 22.3427C456.134 23.5303 455.258 24.7141 454.306 25.8944L454.773 26.2709ZM459.675 18.9721L460.204 19.2559C460.919 17.924 461.541 16.5839 462.066 15.2354L461.507 15.0175L460.948 14.7997C460.441 16.1003 459.84 17.3964 459.147 18.6884L459.675 18.9721ZM462.808 10.8464L463.392 10.9831C463.731 9.53789 463.956 8.08388 464.065 6.62109L463.467 6.57658L462.868 6.53207C462.764 7.93089 462.549 9.32326 462.224 10.7097L462.808 10.8464Z" fill="var(--stroke-0, #4E4E4E)"/>
</svg>
